<svg width="40" height="40" viewBox="0 0 40 40" fill="none" xmlns="http://www.w3.org/2000/svg">
<g filter="url(#filter0_d_125_1436)">
<circle opacity="0.9" cx="16" cy="16" r="16" fill="white"/>
<path d="M16 10H11.3333C10.9797 10 10.6406 10.1405 10.3905 10.3905C10.1405 10.6406 10 10.9797 10 11.3333V20.6667C10 21.0203 10.1405 21.3594 10.3905 21.6095C10.6406 21.8595 10.9797 22 11.3333 22H20.6667C21.0203 22 21.3594 21.8595 21.6095 21.6095C21.8595 21.3594 22 21.0203 22 20.6667V16" stroke="#272B2B" stroke-linecap="round" stroke-linejoin="round"/>
<path d="M20.2497 9.75015C20.5149 9.48493 20.8746 9.33594 21.2497 9.33594C21.6247 9.33594 21.9845 9.48493 22.2497 9.75015C22.5149 10.0154 22.6639 10.3751 22.6639 10.7502C22.6639 11.1252 22.5149 11.4849 22.2497 11.7502L15.9997 18.0002L13.333 18.6668L13.9997 16.0002L20.2497 9.75015Z" stroke="#272B2B" stroke-linecap="round" stroke-linejoin="round"/>
</g>
<defs>
<filter id="filter0_d_125_1436" x="0" y="0" width="40" height="40" filterUnits="userSpaceOnUse" color-interpolation-filters="sRGB">
<feFlood flood-opacity="0" result="BackgroundImageFix"/>
<feColorMatrix in="SourceAlpha" type="matrix" values="0 0 0 0 0 0 0 0 0 0 0 0 0 0 0 0 0 0 127 0" result="hardAlpha"/>
<feOffset dx="4" dy="4"/>
<feGaussianBlur stdDeviation="2"/>
<feComposite in2="hardAlpha" operator="out"/>
<feColorMatrix type="matrix" values="0 0 0 0 0.00392157 0 0 0 0 0.682353 0 0 0 0 0.603922 0 0 0 0.15 0"/>
<feBlend mode="normal" in2="BackgroundImageFix" result="effect1_dropShadow_125_1436"/>
<feBlend mode="normal" in="SourceGraphic" in2="effect1_dropShadow_125_1436" result="shape"/>
</filter>
</defs>
</svg>
