<svg width="40" height="40" viewBox="0 0 40 40" fill="none" xmlns="http://www.w3.org/2000/svg">
<g filter="url(#filter0_d_393_313)">
<circle opacity="0.9" cx="16" cy="16" r="16" fill="white"/>
<path d="M16 17C16.5523 17 17 16.5523 17 16C17 15.4477 16.5523 15 16 15C15.4477 15 15 15.4477 15 16C15 16.5523 15.4477 17 16 17Z" stroke="#272B2B" stroke-width="2" stroke-linecap="round" stroke-linejoin="round"/>
<path d="M16 10C16.5523 10 17 9.55228 17 9C17 8.44772 16.5523 8 16 8C15.4477 8 15 8.44772 15 9C15 9.55228 15.4477 10 16 10Z" stroke="#272B2B" stroke-width="2" stroke-linecap="round" stroke-linejoin="round"/>
<path d="M16 24C16.5523 24 17 23.5523 17 23C17 22.4477 16.5523 22 16 22C15.4477 22 15 22.4477 15 23C15 23.5523 15.4477 24 16 24Z" stroke="#272B2B" stroke-width="2" stroke-linecap="round" stroke-linejoin="round"/>
</g>
<defs>
<filter id="filter0_d_393_313" x="0" y="0" width="40" height="40" filterUnits="userSpaceOnUse" color-interpolation-filters="sRGB">
<feFlood flood-opacity="0" result="BackgroundImageFix"/>
<feColorMatrix in="SourceAlpha" type="matrix" values="0 0 0 0 0 0 0 0 0 0 0 0 0 0 0 0 0 0 127 0" result="hardAlpha"/>
<feOffset dx="4" dy="4"/>
<feGaussianBlur stdDeviation="2"/>
<feComposite in2="hardAlpha" operator="out"/>
<feColorMatrix type="matrix" values="0 0 0 0 0.00392157 0 0 0 0 0.682353 0 0 0 0 0.603922 0 0 0 0.15 0"/>
<feBlend mode="normal" in2="BackgroundImageFix" result="effect1_dropShadow_393_313"/>
<feBlend mode="normal" in="SourceGraphic" in2="effect1_dropShadow_393_313" result="shape"/>
</filter>
</defs>
</svg>
