<svg width="74" height="74" viewBox="0 0 74 74" fill="none" xmlns="http://www.w3.org/2000/svg">
<circle cx="37" cy="37" r="36" stroke="#64D1C6"/>
<path d="M37 61.0001C50.2548 61.0001 61 54.988 61 47.5718C61 40.1556 50.2548 34.1436 37 34.1436C23.7452 34.1436 13 40.1556 13 47.5718C13 54.988 23.7452 61.0001 37 61.0001Z" fill="#E3E3E3"/>
<path d="M56.4169 43.5475L48.5582 39.0231C47.811 38.5974 46.6028 38.5974 45.8568 39.0231L30.3943 47.9249C29.6472 48.3507 29.6472 49.051 30.3943 49.4799L38.2531 54.0021C39.0002 54.4278 40.2084 54.4278 40.9545 54.0021L56.4169 45.1003C57.163 44.6735 57.163 43.9775 56.4169 43.5475Z" fill="#E0E0E0"/>
<path d="M54.7192 38.8137C54.5965 37.444 54.525 36.1764 55.0757 34.1723C55.5368 32.4918 56.9158 30.7261 57.9383 30.7198C58.8903 30.7134 59.1881 31.8575 58.4154 32.9548C57.6426 34.0521 55.936 36.1679 55.9285 37.5994L55.73 38.9649C55.7255 38.9978 55.7133 39.0291 55.6945 39.0565C55.6757 39.0839 55.6507 39.1065 55.6216 39.1225C55.5924 39.1385 55.5599 39.1475 55.5267 39.1488C55.4934 39.1501 55.4603 39.1436 55.4301 39.1298L54.7192 38.8137Z" fill="#366E68"/>
<path opacity="0.2" d="M54.7192 38.8137C54.5965 37.444 54.525 36.1764 55.0757 34.1723C55.5368 32.4918 56.9158 30.7261 57.9383 30.7198C58.8903 30.7134 59.1881 31.8575 58.4154 32.9548C57.6426 34.0521 55.936 36.1679 55.9285 37.5994L55.73 38.9649C55.7255 38.9978 55.7133 39.0291 55.6945 39.0565C55.6757 39.0839 55.6507 39.1065 55.6216 39.1225C55.5924 39.1385 55.5599 39.1475 55.5267 39.1488C55.4934 39.1501 55.4603 39.1436 55.4301 39.1298L54.7192 38.8137Z" fill="black"/>
<path d="M55.1114 38.4348C55.1241 38.431 55.1353 38.4231 55.143 38.4123C55.1507 38.4015 55.1546 38.3884 55.1541 38.3752C55.0602 35.1716 56.6483 32.3768 58.0743 31.4466C58.0878 31.4375 58.0972 31.4235 58.1006 31.4077C58.1039 31.3918 58.101 31.3752 58.0924 31.3614C58.0833 31.348 58.0692 31.3386 58.0533 31.3354C58.0373 31.3322 58.0207 31.3355 58.0071 31.3444C56.5544 32.2895 54.9363 35.1312 55.0324 38.3794C55.0327 38.3874 55.0345 38.3952 55.0378 38.4025C55.0412 38.4097 55.0459 38.4163 55.0517 38.4217C55.0576 38.4272 55.0644 38.4314 55.0719 38.4342C55.0794 38.437 55.0874 38.4383 55.0954 38.438L55.1114 38.4348Z" fill="white"/>
<path d="M55.5643 39.1916C55.6192 39.2174 55.6789 39.2312 55.7396 39.2321C55.8002 39.233 55.8604 39.2211 55.916 39.197C55.9717 39.1729 56.0215 39.1373 56.0623 39.0925C56.103 39.0478 56.1338 38.9948 56.1524 38.9373C56.3837 38.2989 56.7416 37.7136 57.2048 37.2163C58.0373 36.2935 59.2242 35.6773 59.3864 35.0739C59.5828 34.3501 58.9285 34.0202 57.9103 34.3193C56.6871 34.6779 55.4159 36.202 55.4053 39.1171L55.5643 39.1916Z" fill="#366E68"/>
<path d="M55.7044 38.9871C55.7156 38.9837 55.7256 38.977 55.7331 38.9679C55.7405 38.9588 55.745 38.9477 55.746 38.936C56.0288 36.3678 57.6779 35.1045 58.4901 34.7937C58.4976 34.7909 58.5045 34.7866 58.5104 34.7811C58.5162 34.7756 58.5209 34.769 58.5242 34.7617C58.5275 34.7544 58.5292 34.7465 58.5294 34.7385C58.5296 34.7304 58.5282 34.7225 58.5253 34.715C58.5226 34.7075 58.5184 34.7007 58.513 34.6949C58.5076 34.689 58.501 34.6843 58.4938 34.6811C58.4865 34.6778 58.4787 34.676 58.4707 34.6758C58.4627 34.6756 58.4548 34.677 58.4474 34.6799C57.5487 35.0204 55.9136 36.3008 55.6254 38.9232C55.6236 38.9392 55.6282 38.9552 55.6382 38.9677C55.6482 38.9803 55.6628 38.9884 55.6788 38.9903C55.6874 38.9914 55.6962 38.9903 55.7044 38.9871Z" fill="white"/>
<path d="M34.707 54.0105L46.6217 45.7561L52.2282 49.6416L40.3136 57.8941L34.707 54.0105Z" fill="#E0E0E0"/>
<path d="M35.0078 54.2174L40.3139 57.8939L51.9281 49.8486L46.622 46.1721L35.0078 54.2174Z" fill="#EBEBEB"/>
<path d="M28.8507 39.4543L29.1703 39.6768C29.2611 39.7316 29.3612 39.7601 29.4628 39.7601C29.5644 39.7601 29.6645 39.7316 29.7553 39.6768L31.0754 38.762C31.111 38.748 31.1419 38.7209 31.1639 38.6846C31.1858 38.6483 31.1977 38.6045 31.1977 38.5596C31.1977 38.5147 31.1858 38.471 31.1639 38.4347C31.1419 38.3983 31.111 38.3713 31.0754 38.3573L30.7558 38.1329C30.665 38.0781 30.5649 38.0496 30.4633 38.0496C30.3617 38.0496 30.2615 38.0781 30.1708 38.1329L28.8507 39.0477C28.8153 39.0622 28.7846 39.0896 28.7629 39.126C28.7412 39.1625 28.7295 39.2062 28.7295 39.251C28.7295 39.2958 28.7412 39.3395 28.7629 39.376C28.7846 39.4124 28.8153 39.4398 28.8507 39.4543Z" fill="#FAFAFA"/>
<path d="M35.7551 34.6694L36.0747 34.8938C36.1654 34.9486 36.2656 34.9772 36.3672 34.9772C36.4688 34.9772 36.5689 34.9486 36.6597 34.8938L37.9798 33.979C38.0153 33.9651 38.0463 33.938 38.0683 33.9016C38.0902 33.8653 38.102 33.8216 38.102 33.7767C38.102 33.7318 38.0902 33.6881 38.0683 33.6517C38.0463 33.6154 38.0153 33.5883 37.9798 33.5743L37.6601 33.35C37.5694 33.2951 37.4692 33.2666 37.3677 33.2666C37.2661 33.2666 37.1659 33.2951 37.0752 33.35L35.7551 34.2648C35.7195 34.2787 35.6885 34.3058 35.6666 34.3421C35.6446 34.3785 35.6328 34.4222 35.6328 34.4671C35.6328 34.512 35.6446 34.5557 35.6666 34.5921C35.6885 34.6284 35.7195 34.6555 35.7551 34.6694Z" fill="#FAFAFA"/>
<path d="M38.0558 33.0754L38.3754 33.2978C38.4659 33.3537 38.5661 33.3828 38.6679 33.3828C38.7696 33.3828 38.8699 33.3537 38.9604 33.2978L40.2805 32.3849C40.3158 32.3705 40.3465 32.3431 40.3683 32.3066C40.39 32.2702 40.4017 32.2265 40.4017 32.1816C40.4017 32.1368 40.39 32.0931 40.3683 32.0567C40.3465 32.0202 40.3158 31.9928 40.2805 31.9784L39.9608 31.7559C39.8704 31.7 39.7701 31.6709 39.6684 31.6709C39.5666 31.6709 39.4664 31.7 39.3759 31.7559L38.0558 32.6688C38.0204 32.6833 37.9897 32.7106 37.968 32.7471C37.9463 32.7835 37.9346 32.8272 37.9346 32.8721C37.9346 32.9169 37.9463 32.9606 37.968 32.997C37.9897 33.0335 38.0204 33.0609 38.0558 33.0754Z" fill="#FAFAFA"/>
<path d="M40.3575 31.4814L40.6772 31.7039C40.7676 31.7597 40.8679 31.7889 40.9696 31.7889C41.0714 31.7889 41.1716 31.7597 41.2621 31.7039L42.5822 30.7891C42.6178 30.7751 42.6488 30.748 42.6707 30.7117C42.6927 30.6754 42.7045 30.6316 42.7045 30.5867C42.7045 30.5418 42.6927 30.4981 42.6707 30.4618C42.6488 30.4254 42.6178 30.3984 42.5822 30.3844L42.2626 30.16C42.1719 30.1052 42.0717 30.0767 41.9701 30.0767C41.8685 30.0767 41.7684 30.1052 41.6777 30.16L40.3575 31.0748C40.3222 31.0893 40.2915 31.1167 40.2697 31.1531C40.248 31.1896 40.2363 31.2333 40.2363 31.2781C40.2363 31.3229 40.248 31.3666 40.2697 31.4031C40.2915 31.4395 40.3222 31.4669 40.3575 31.4814Z" fill="#FAFAFA"/>
<path d="M36.2774 35.7122L34.8918 36.6712C34.8562 36.6851 34.8253 36.7122 34.8033 36.7485C34.7814 36.7849 34.7695 36.8286 34.7695 36.8735C34.7695 36.9184 34.7814 36.9621 34.8033 36.9985C34.8253 37.0348 34.8562 37.0619 34.8918 37.0758L36.2567 38.0213C36.3474 38.0761 36.4476 38.1047 36.5491 38.1047C36.6507 38.1047 36.7509 38.0761 36.8416 38.0213L38.2273 37.0624C38.2626 37.0479 38.2933 37.0205 38.315 36.9841C38.3368 36.9476 38.3485 36.9039 38.3485 36.8591C38.3485 36.8143 38.3368 36.7706 38.315 36.7341C38.2933 36.6977 38.2626 36.6703 38.2273 36.6558L36.8624 35.7103C36.7715 35.6558 36.6713 35.6276 36.5697 35.6279C36.4681 35.6283 36.368 35.6571 36.2774 35.7122Z" fill="#FAFAFA"/>
<path d="M38.6445 34.0729L37.2589 35.0318C37.2235 35.0462 37.1928 35.0736 37.1711 35.1101C37.1494 35.1465 37.1377 35.1902 37.1377 35.2351C37.1377 35.2799 37.1494 35.3236 37.1711 35.36C37.1928 35.3965 37.2235 35.4239 37.2589 35.4384L38.6238 36.3838C38.7148 36.4387 38.8152 36.4672 38.917 36.4672C39.0189 36.4672 39.1193 36.4387 39.2103 36.3838L40.5944 35.4249C40.6297 35.4105 40.6604 35.3831 40.6821 35.3466C40.7039 35.3102 40.7156 35.2665 40.7156 35.2216C40.7156 35.1768 40.7039 35.1331 40.6821 35.0967C40.6604 35.0602 40.6297 35.0328 40.5944 35.0183L39.2295 34.0729C39.1388 34.0181 39.0386 33.9895 38.937 33.9895C38.8354 33.9895 38.7353 34.0181 38.6445 34.0729Z" fill="#FAFAFA"/>
<path d="M42.9616 33.3785L41.5967 32.433C41.5057 32.3782 41.4052 32.3496 41.3034 32.3496C41.2016 32.3496 41.1011 32.3782 41.0101 32.433L39.6261 33.3919C39.5907 33.4064 39.56 33.4338 39.5383 33.4702C39.5166 33.5067 39.5049 33.5504 39.5049 33.5952C39.5049 33.64 39.5166 33.6837 39.5383 33.7202C39.56 33.7566 39.5907 33.784 39.6261 33.7985L40.9894 34.744C41.0804 34.7988 41.1808 34.8274 41.2826 34.8274C41.3845 34.8274 41.4849 34.7988 41.5759 34.744L42.96 33.7851C42.9962 33.7718 43.0279 33.745 43.0505 33.7085C43.0731 33.6721 43.0853 33.6279 43.0855 33.5825C43.0857 33.537 43.0738 33.4927 43.0515 33.456C43.0291 33.4193 42.9976 33.3922 42.9616 33.3785Z" fill="#FAFAFA"/>
<path d="M41.9949 32.1585L43.355 33.104C43.446 33.1588 43.5464 33.1873 43.6482 33.1873C43.7501 33.1873 43.8505 33.1588 43.9415 33.104L44.9308 32.4174C44.9662 32.4029 44.9969 32.3755 45.0186 32.3391C45.0403 32.3026 45.052 32.2589 45.052 32.2141C45.052 32.1693 45.0403 32.1256 45.0186 32.0891C44.9969 32.0527 44.9662 32.0253 44.9308 32.0108L43.5675 31.0653C43.4765 31.0105 43.3761 30.9819 43.2743 30.9819C43.1724 30.9819 43.072 31.0105 42.981 31.0653L41.9917 31.7519C41.9565 31.7668 41.926 31.7945 41.9045 31.8312C41.8831 31.8679 41.8717 31.9117 41.8721 31.9566C41.8724 32.0014 41.8845 32.045 41.9065 32.0812C41.9285 32.1174 41.9594 32.1444 41.9949 32.1585Z" fill="#FAFAFA"/>
<path d="M37.8055 40.6102L39.1895 39.6513C39.2249 39.6368 39.2556 39.6094 39.2773 39.573C39.299 39.5365 39.3107 39.4928 39.3107 39.448C39.3107 39.4032 39.299 39.3595 39.2773 39.323C39.2556 39.2865 39.2249 39.2592 39.1895 39.2447L37.8262 38.2992C37.7352 38.2444 37.6348 38.2158 37.533 38.2158C37.4311 38.2158 37.3307 38.2444 37.2397 38.2992L35.8556 39.2581C35.8201 39.2721 35.7891 39.2992 35.7672 39.3355C35.7452 39.3718 35.7334 39.4156 35.7334 39.4604C35.7334 39.5053 35.7452 39.5491 35.7672 39.5854C35.7891 39.6217 35.8201 39.6488 35.8556 39.6628L37.2189 40.6083C37.3098 40.6634 37.4102 40.6923 37.512 40.6926C37.6138 40.6929 37.7143 40.6647 37.8055 40.6102Z" fill="#FAFAFA"/>
<path d="M40.1726 38.9703L41.5566 38.0114C41.592 37.9969 41.6227 37.9695 41.6444 37.9331C41.6661 37.8966 41.6778 37.8529 41.6778 37.8081C41.6778 37.7633 41.6661 37.7196 41.6444 37.6831C41.6227 37.6467 41.592 37.6193 41.5566 37.6048L40.1934 36.6593C40.1023 36.6045 40.0019 36.5759 39.9001 36.5759C39.7983 36.5759 39.6978 36.6045 39.6068 36.6593L38.2228 37.6182C38.1874 37.6327 38.1567 37.6601 38.135 37.6965C38.1132 37.733 38.1016 37.7767 38.1016 37.8215C38.1016 37.8663 38.1132 37.91 38.135 37.9465C38.1567 37.9829 38.1874 38.0103 38.2228 38.0248L39.586 38.9703C39.6771 39.0251 39.7775 39.0537 39.8793 39.0537C39.9811 39.0537 40.0816 39.0251 40.1726 38.9703Z" fill="#FAFAFA"/>
<path d="M42.5397 37.3314L43.9253 36.3725C43.9609 36.3585 43.9918 36.3314 44.0138 36.2951C44.0358 36.2588 44.0476 36.215 44.0476 36.1701C44.0476 36.1252 44.0358 36.0815 44.0138 36.0452C43.9918 36.0088 43.9609 35.9818 43.9253 35.9678L42.5557 35.0204C42.4647 34.9656 42.3642 34.937 42.2624 34.937C42.1606 34.937 42.0601 34.9656 41.9691 35.0204L40.5851 35.9793C40.5497 35.9938 40.519 36.0212 40.4973 36.0576C40.4756 36.0941 40.4639 36.1378 40.4639 36.1826C40.4639 36.2274 40.4756 36.2711 40.4973 36.3076C40.519 36.344 40.5497 36.3714 40.5851 36.3859L41.9499 37.3314C42.0413 37.3871 42.1423 37.4162 42.2448 37.4162C42.3473 37.4162 42.4483 37.3871 42.5397 37.3314Z" fill="#FAFAFA"/>
<path d="M42.9565 34.7462L44.3214 35.6917C44.4121 35.7465 44.5123 35.775 44.6139 35.775C44.7155 35.775 44.8156 35.7465 44.9063 35.6917L47.2829 34.0443C47.3184 34.0303 47.3494 34.0032 47.3714 33.9669C47.3933 33.9306 47.4051 33.8868 47.4051 33.8419C47.4051 33.7971 47.3933 33.7533 47.3714 33.717C47.3494 33.6806 47.3184 33.6536 47.2829 33.6396L45.9116 32.6941C45.8212 32.6383 45.7209 32.6091 45.6192 32.6091C45.5174 32.6091 45.4171 32.6383 45.3267 32.6941L42.9501 34.3396C42.915 34.3549 42.8847 34.383 42.8635 34.4199C42.8424 34.4569 42.8314 34.5008 42.8321 34.5457C42.8328 34.5905 42.8452 34.6339 42.8675 34.6699C42.8898 34.7059 42.9209 34.7326 42.9565 34.7462Z" fill="#FAFAFA"/>
<path d="M38.907 43.1016L40.291 42.1427C40.3264 42.1283 40.3571 42.1009 40.3788 42.0644C40.4005 42.028 40.4122 41.9843 40.4122 41.9394C40.4122 41.8946 40.4005 41.8509 40.3788 41.8145C40.3571 41.778 40.3264 41.7506 40.291 41.7361L38.9277 40.7907C38.8367 40.7358 38.7363 40.7073 38.6345 40.7073C38.5326 40.7073 38.4322 40.7358 38.3412 40.7907L36.9571 41.7496C36.9218 41.764 36.8911 41.7914 36.8694 41.8279C36.8476 41.8643 36.8359 41.908 36.8359 41.9529C36.8359 41.9977 36.8476 42.0414 36.8694 42.0778C36.8911 42.1143 36.9218 42.1417 36.9571 42.1562L38.322 43.1016C38.4127 43.1564 38.5129 43.185 38.6145 43.185C38.7161 43.185 38.8162 43.1564 38.907 43.1016Z" fill="#FAFAFA"/>
<path d="M41.2771 41.4583L42.6611 40.4994C42.6967 40.4854 42.7276 40.4583 42.7496 40.422C42.7716 40.3857 42.7834 40.3419 42.7834 40.297C42.7834 40.2521 42.7716 40.2084 42.7496 40.1721C42.7276 40.1357 42.6967 40.1087 42.6611 40.0947L41.2979 39.1492C41.2072 39.093 41.1066 39.0637 41.0046 39.0637C40.9025 39.0637 40.802 39.093 40.7113 39.1492L39.3273 40.1081C39.2919 40.1226 39.2612 40.15 39.2395 40.1864C39.2177 40.2229 39.2061 40.2666 39.2061 40.3114C39.2061 40.3562 39.2177 40.3999 39.2395 40.4364C39.2612 40.4728 39.2919 40.5002 39.3273 40.5147L40.6905 41.4602C40.7817 41.5147 40.8822 41.5429 40.984 41.5426C41.0858 41.5423 41.1862 41.5134 41.2771 41.4583Z" fill="#FAFAFA"/>
<path d="M43.6531 39.8123L45.0372 38.8534C45.0725 38.8389 45.1032 38.8115 45.125 38.7751C45.1467 38.7386 45.1584 38.6949 45.1584 38.6501C45.1584 38.6052 45.1467 38.5615 45.125 38.5251C45.1032 38.4886 45.0725 38.4613 45.0372 38.4468L43.6739 37.5032C43.5832 37.447 43.4827 37.4177 43.3806 37.4177C43.2786 37.4177 43.178 37.447 43.0874 37.5032L41.7033 38.4621C41.6678 38.4761 41.6368 38.5032 41.6148 38.5395C41.5929 38.5758 41.5811 38.6196 41.5811 38.6645C41.5811 38.7093 41.5929 38.7531 41.6148 38.7894C41.6368 38.8258 41.6678 38.8528 41.7033 38.8668L43.0666 39.8123C43.1573 39.8685 43.2578 39.8978 43.3599 39.8978C43.4619 39.8978 43.5625 39.8685 43.6531 39.8123Z" fill="#FAFAFA"/>
<path d="M44.0765 37.2232L45.4398 38.1687C45.5308 38.2235 45.6312 38.252 45.733 38.252C45.8349 38.252 45.9353 38.2235 46.0263 38.1687L46.1861 38.0536L46.6272 37.7487L49.6255 35.6716C49.6608 35.6572 49.6915 35.6298 49.7133 35.5933C49.735 35.5569 49.7467 35.5132 49.7467 35.4683C49.7467 35.4235 49.735 35.3798 49.7133 35.3434C49.6915 35.3069 49.6608 35.2795 49.6255 35.2651L48.267 34.3119C48.176 34.2571 48.0756 34.2285 47.9737 34.2285C47.8719 34.2285 47.7715 34.2571 47.6805 34.3119L44.0765 36.8051C44.036 36.8144 43.9995 36.8404 43.9732 36.8786C43.947 36.9167 43.9326 36.9646 43.9326 37.0141C43.9326 37.0636 43.947 37.1115 43.9732 37.1497C43.9995 37.1878 44.036 37.2138 44.0765 37.2232Z" fill="#FAFAFA"/>
<path d="M43.388 42.8448L42.0247 41.8993C41.9337 41.8445 41.8333 41.8159 41.7315 41.8159C41.6296 41.8159 41.5292 41.8445 41.4382 41.8993L39.5715 43.1938C39.5359 43.2078 39.505 43.2349 39.483 43.2712C39.461 43.3075 39.4492 43.3513 39.4492 43.3962C39.4492 43.4411 39.461 43.4848 39.483 43.5211C39.505 43.5575 39.5359 43.5845 39.5715 43.5985L40.9347 44.544C41.0254 44.6002 41.126 44.6295 41.228 44.6295C41.3301 44.6295 41.4306 44.6002 41.5213 44.544L43.388 43.2495C43.4236 43.2355 43.4545 43.2084 43.4765 43.1721C43.4984 43.1357 43.5103 43.092 43.5103 43.0471C43.5103 43.0022 43.4984 42.9585 43.4765 42.9222C43.4545 42.8858 43.4236 42.8587 43.388 42.8448Z" fill="#FAFAFA"/>
<path d="M46.2391 40.8694L44.8743 39.9239C44.7835 39.8691 44.6834 39.8406 44.5818 39.8406C44.4802 39.8406 44.38 39.8691 44.2893 39.9239L42.421 41.2166C42.3856 41.231 42.355 41.2584 42.3332 41.2949C42.3115 41.3313 42.2998 41.375 42.2998 41.4198C42.2998 41.4647 42.3115 41.5084 42.3332 41.5448C42.355 41.5813 42.3856 41.6087 42.421 41.6231L43.7859 42.5686C43.8766 42.6234 43.9768 42.652 44.0783 42.652C44.1799 42.652 44.2801 42.6234 44.3708 42.5686L46.2391 41.2741C46.2739 41.2592 46.304 41.2318 46.3253 41.1955C46.3466 41.1593 46.358 41.1161 46.358 41.0718C46.358 41.0274 46.3466 40.9842 46.3253 40.948C46.304 40.9117 46.2739 40.8843 46.2391 40.8694Z" fill="#FAFAFA"/>
<path d="M48.1488 39.5444L47.9043 39.3756C47.8136 39.3208 47.7134 39.2922 47.6118 39.2922C47.5103 39.2922 47.4101 39.3208 47.3194 39.3756L46.3908 40.0219C46.3553 40.0358 46.3243 40.0629 46.3023 40.0993C46.2804 40.1356 46.2686 40.1793 46.2686 40.2242C46.2686 40.2691 46.2804 40.3128 46.3023 40.3492C46.3243 40.3855 46.3553 40.4126 46.3908 40.4266L46.6337 40.5953C46.7245 40.6501 46.8246 40.6787 46.9262 40.6787C47.0278 40.6787 47.1279 40.6501 47.2187 40.5953L48.1488 39.9509C48.1842 39.9365 48.2149 39.9091 48.2366 39.8726C48.2584 39.8362 48.27 39.7925 48.27 39.7476C48.27 39.7028 48.2584 39.6591 48.2366 39.6227C48.2149 39.5862 48.1842 39.5588 48.1488 39.5444Z" fill="#FAFAFA"/>
<path d="M50.0667 38.2196L49.8238 38.0509C49.7331 37.9961 49.6329 37.9675 49.5313 37.9675C49.4298 37.9675 49.3296 37.9961 49.2389 38.0509L48.3087 38.6953C48.2733 38.7097 48.2427 38.7371 48.2209 38.7736C48.1992 38.81 48.1875 38.8537 48.1875 38.8986C48.1875 38.9434 48.1992 38.9871 48.2209 39.0235C48.2427 39.06 48.2733 39.0874 48.3087 39.1019L48.5532 39.2706C48.644 39.3254 48.7441 39.354 48.8457 39.354C48.9473 39.354 49.0474 39.3254 49.1382 39.2706L50.0683 38.6243C50.1038 38.6102 50.1347 38.5829 50.1565 38.5464C50.1783 38.51 50.19 38.4662 50.1898 38.4213C50.1896 38.3764 50.1776 38.3327 50.1555 38.2965C50.1334 38.2603 50.1023 38.2334 50.0667 38.2196Z" fill="#FAFAFA"/>
<path d="M51.9838 36.892L51.7409 36.7251C51.6502 36.669 51.5496 36.6396 51.4476 36.6396C51.3456 36.6396 51.245 36.669 51.1543 36.7251L50.2258 37.3695C50.1902 37.3835 50.1592 37.4106 50.1373 37.4469C50.1153 37.4832 50.1035 37.527 50.1035 37.5719C50.1035 37.6167 50.1153 37.6605 50.1373 37.6968C50.1592 37.7332 50.1902 37.7602 50.2258 37.7742L50.4687 37.943C50.5594 37.9991 50.6599 38.0284 50.762 38.0284C50.864 38.0284 50.9646 37.9991 51.0552 37.943L51.9854 37.2986C52.0207 37.2839 52.0513 37.2563 52.0729 37.2198C52.0945 37.1832 52.106 37.1394 52.1058 37.0946C52.1056 37.0498 52.0938 37.0061 52.0719 36.9698C52.05 36.9335 52.0192 36.9063 51.9838 36.892Z" fill="#FAFAFA"/>
<path d="M48.7024 37.2733C48.6114 37.2185 48.511 37.1899 48.4092 37.1899C48.3073 37.1899 48.2069 37.2185 48.1159 37.2733L47.1905 37.9177C47.1552 37.9322 47.1245 37.9596 47.1028 37.996C47.081 38.0325 47.0693 38.0762 47.0693 38.121C47.0693 38.1658 47.081 38.2095 47.1028 38.246C47.1245 38.2824 47.1552 38.3098 47.1905 38.3243L47.4335 38.4931C47.5245 38.5479 47.6249 38.5764 47.7267 38.5764C47.8286 38.5764 47.929 38.5479 48.02 38.4931L48.9502 37.8468C48.9857 37.8328 49.0167 37.8057 49.0386 37.7694C49.0606 37.733 49.0724 37.6893 49.0724 37.6444C49.0724 37.5995 49.0606 37.5558 49.0386 37.5195C49.0167 37.4831 48.9857 37.456 48.9502 37.4421L48.7024 37.2733Z" fill="#FAFAFA"/>
<path d="M25.3123 44.6095C25.1888 44.3514 25.1028 44.0699 25.0582 43.7772C25.011 43.3628 24.9213 42.957 24.7912 42.5689C24.7097 42.3657 24.5963 42.1854 24.5036 41.9936C24.4018 41.8013 24.3465 41.5789 24.3438 41.3511C24.3581 40.9676 24.6218 40.7758 24.8568 40.5591C25.0589 40.4175 25.2347 40.2275 25.373 40.001C25.5328 39.7133 25.9516 38.156 25.9516 38.156L27.4794 39.6193C27.4794 39.6193 26.6691 40.9714 26.5061 41.4489C26.405 41.6964 26.3406 41.9631 26.3159 42.2372C26.3261 42.4899 26.3715 42.7388 26.4502 42.9736C26.4995 43.1429 26.5713 43.3016 26.6628 43.4435C26.7746 43.5873 26.9824 43.6487 27.1182 43.7599C27.2733 43.879 27.403 44.0399 27.497 44.2298C27.5239 44.2759 27.5383 44.3308 27.5383 44.3871C27.5383 44.4433 27.5239 44.4982 27.497 44.5443C27.4667 44.5923 27.4219 44.6249 27.3915 44.6728C27.3624 44.7333 27.3287 44.7904 27.2909 44.8435C27.1748 44.9668 27.0396 45.0613 26.8929 45.1216C26.6173 45.2549 26.3161 45.2927 26.0235 45.2309C25.8749 45.1941 25.7345 45.1197 25.6119 45.0125C25.4892 44.9053 25.3871 44.7679 25.3123 44.6095Z" fill="#FFBDA7"/>
<path d="M24.2589 40.9075C23.968 41.0724 23.9792 41.3793 24.024 41.7015C24.0687 42.0236 24.3836 42.4686 24.521 42.7141C24.6847 42.9422 24.7673 43.2383 24.7512 43.5387C24.7671 44.0412 24.8391 44.584 25.2722 44.9311C25.6749 45.2533 26.1432 45.4105 26.832 45.3147C27.2859 45.2514 27.6855 45.0327 27.719 44.8409C27.7261 44.5821 27.6706 44.3263 27.5592 44.1045C27.4889 44.0124 26.4405 43.6078 26.0425 43.1954C25.6446 42.7831 24.2589 40.9075 24.2589 40.9075Z" fill="#263238"/>
<path d="M25.413 39.9013C25.3331 39.8571 25.2867 39.8725 25.1605 40.0317C25.0446 40.1738 24.9141 40.2975 24.7721 40.3999C24.5276 40.5917 24.1216 40.7624 24.1903 41.4394C24.2335 41.8498 24.4269 42.1931 24.6107 42.5306C24.6842 42.6637 24.7469 42.805 24.7977 42.9525C24.8533 43.1793 24.8829 43.4142 24.8856 43.6506C24.906 43.804 24.9414 43.954 24.991 44.0975C25.0276 44.2344 25.0815 44.3638 25.1509 44.481C25.2244 44.593 25.3143 44.6879 25.4162 44.7611C25.7917 45.0564 26.2888 45.0852 26.7235 45.0449C26.8035 45.0388 26.8831 45.026 26.9616 45.0065C27.0856 44.9721 27.2046 44.9159 27.3148 44.8397C27.4253 44.7769 27.5229 44.6859 27.6009 44.5731C27.7272 44.3084 27.5386 44.0227 27.3996 43.8367C27.2682 43.674 27.1025 43.5573 26.9201 43.4991C26.5173 43.3572 26.4135 42.2257 26.4167 42.0876C26.4223 41.8813 26.4778 41.6814 26.5765 41.5122C26.6836 41.2802 26.7235 41.2131 26.4039 41.2054C26.121 41.2054 25.5392 41.1747 25.3954 41.6618C25.3954 41.6618 25.5025 41.1536 25.4337 40.981C25.365 40.8084 25.1668 40.444 25.2979 40.1371C25.3483 40.0679 25.3873 39.9879 25.413 39.9013Z" fill="#37474F"/>
<path d="M25.3789 44.759C25.3917 44.4426 25.6634 43.965 26.1061 43.685C26.3825 43.4807 26.7139 43.412 27.0315 43.4933C27.2163 43.5543 27.3813 43.6816 27.5044 43.858C27.6275 44.0345 27.7028 44.2518 27.7203 44.4809C27.578 45.0716 26.0661 45.4494 25.3789 44.759Z" fill="#FAFAFA"/>
<path d="M28.6681 31.9453C28.6681 31.9453 28.1614 30.9404 28.1886 30.0045C28.2158 29.0686 28.6025 26.865 28.6025 26.865H32.873C33.0823 28.8039 32.7451 30.4609 32.5629 31.8245C32.3152 33.4163 32.1905 34.0013 31.8373 34.7224C31.4697 35.4742 31.1037 36.0648 29.6334 37.6854C28.3149 39.1468 27.1833 40.3876 27.1833 40.3876C27.1833 40.3876 26.7214 40.4816 26.2244 39.7586C26.0353 39.4467 25.9045 39.0895 25.8408 38.7115C25.8408 38.7115 26.9596 35.9728 27.5605 35.1194C27.8917 34.6383 28.254 34.1894 28.6441 33.7769L28.6681 31.9453Z" fill="#263238"/>
<path d="M29.2402 44.7224L29.5071 46.6747C29.5071 46.6747 29.6925 47.3767 30.1944 47.4841C30.6962 47.5915 31.278 46.5041 31.278 46.5041L31.254 44.4424L29.2402 44.7224Z" fill="#FFBDA7"/>
<path d="M29.2405 47.9487C29.2349 48.046 29.2483 48.1434 29.2797 48.2333C29.311 48.3232 29.3594 48.4031 29.4211 48.4665C29.6276 48.6474 29.8506 48.7993 30.086 48.9192C30.2985 49.0355 30.474 49.2313 30.5862 49.4772C30.6773 49.7246 30.8323 50.2674 31.6123 50.5416C32.1548 50.7435 32.7385 50.7164 33.2664 50.4649C33.5381 50.3307 33.7778 50.0468 33.7459 49.7668C33.7139 49.4638 29.2405 47.9487 29.2405 47.9487Z" fill="#263238"/>
<path d="M29.6201 46.4851C29.5532 46.4568 29.4966 46.4011 29.4603 46.3279L29.4331 46.1361C29.3804 46.1188 29.2925 46.2473 29.2909 46.3145C29.2909 46.9147 29.0592 47.4652 29.2589 48.0578C29.4188 48.543 30.0788 48.5852 30.3777 48.9304C30.7133 49.314 30.7916 50.1022 31.7841 50.3496C32.6791 50.5701 33.5022 50.0696 33.7435 49.7646C33.7435 49.7646 33.7963 49.032 33.3871 48.8767C33.101 48.7674 32.8469 48.6676 32.385 48.1249C32.205 47.9017 32.0399 47.6619 31.8912 47.4076C31.6971 47.1378 31.5596 46.8163 31.49 46.4698C31.4876 46.3725 31.4545 46.28 31.3973 46.2109C31.3578 46.1902 31.3149 46.1803 31.2718 46.182C31.2287 46.1837 31.1864 46.1968 31.148 46.2205C30.8983 46.3168 30.6383 46.3697 30.3761 46.3777C30.3118 46.3703 30.2472 46.3863 30.1907 46.4238C30.098 46.5005 30.1044 46.6693 30.1395 46.7978C30.1909 46.9197 30.2114 47.057 30.1987 47.1928C30.0005 47.0471 29.9494 46.7057 29.7512 46.5599C29.7087 46.5321 29.6649 46.5071 29.6201 46.4851Z" fill="#37474F"/>
<path d="M31.3768 50.1947C31.3544 49.6808 31.5366 49.2358 32.0273 48.881C32.3677 48.6336 32.8152 48.5627 33.0006 48.6317C33.186 48.7007 33.6159 48.8369 33.6958 49.184C33.7427 49.3703 33.7601 49.5655 33.747 49.7594C33.747 49.7594 33.3922 50.3021 32.5068 50.398C31.7428 50.4901 31.3768 50.1947 31.3768 50.1947Z" fill="#FAFAFA"/>
<path d="M28.5104 37.9316C28.1268 39.228 28.6462 41.587 28.7965 42.6955C28.8764 43.2804 29.2088 45.0909 29.2088 45.0909C29.2088 45.0909 29.5141 45.4744 30.302 45.4226C31.0899 45.3709 31.2865 45.1139 31.2865 45.1139C31.2865 45.1139 31.3504 41.3626 31.376 39.5521C31.3997 38.6648 31.3591 37.7767 31.2545 36.8979C31.2226 36.1211 30.839 33.58 30.5433 32.0553L30.2972 30.5863C30.2972 30.5863 31.9641 30.0934 32.3093 27.9934L27.2526 25.6287C26.9177 26.1585 26.6486 26.7438 26.4535 27.3662C26.2218 28.1621 25.9836 28.8295 26.0204 30.172C26.0459 31.1693 26.372 32.0112 26.5494 32.7266C26.7108 33.4016 28.2978 37.3505 28.5104 37.9316Z" fill="#37474F"/>
<path d="M29.6904 32.395C29.9694 33.2997 30.1984 34.2255 30.3761 35.1663C30.4656 35.6381 30.5359 36.1137 30.595 36.5932C30.6238 36.8329 30.6462 37.0726 30.6653 37.3143C30.6733 37.437 30.6861 37.5578 30.6909 37.6787C30.6957 37.7995 30.6989 37.9241 30.6989 38.045C30.6989 39.0135 30.8044 43.016 30.6989 43.9711C30.7181 43.0122 30.4783 38.5244 30.4736 38.0488C30.4736 37.928 30.4736 37.811 30.4736 37.694C30.4736 37.577 30.4592 37.4562 30.4512 37.3392C30.4336 37.1014 30.4112 36.8636 30.3888 36.6258C30.3425 36.1521 30.2786 35.6803 30.2083 35.2085C30.0596 34.2649 29.8806 33.329 29.6904 32.395Z" fill="#263238"/>
<path d="M30.4631 16.5474C30.3928 17.3874 30.225 18.2619 29.7487 18.8833C29.4285 19.3099 29.0256 19.6353 28.5757 19.8307C28.1331 20.0011 27.6593 20.0177 27.2092 19.8787C26.9471 19.7751 26.8624 19.6639 26.8768 19.5449C26.9408 19.5507 27.0052 19.54 27.0655 19.5135C27.1259 19.487 27.1809 19.4455 27.2268 19.3915C27.045 19.4467 26.8534 19.4326 26.6786 19.3512C26.592 19.3092 26.5154 19.2423 26.4554 19.1564C26.3955 19.0704 26.3541 18.9681 26.335 18.8584C26.4727 18.8668 26.6103 18.8383 26.7378 18.775C26.8652 18.7116 26.9793 18.615 27.0717 18.4921C27.2549 18.243 27.3834 17.9431 27.4457 17.6194C27.5848 16.9808 27.5624 16.3096 27.5528 15.6498C27.5432 14.9901 27.5528 14.3073 27.743 13.6917C27.9332 13.0761 28.3535 12.518 28.8953 12.3972C29.0095 12.3655 29.1281 12.3644 29.2428 12.3939C29.3574 12.4234 29.4652 12.4828 29.5586 12.5679C29.7903 12.8076 30.0077 12.9975 30.1419 13.335C30.2766 13.701 30.3659 14.0887 30.4072 14.4857C30.4552 14.8463 30.4743 15.2068 30.5095 15.5693C30.5241 15.8964 30.5085 16.2244 30.4631 16.5474Z" fill="#263238"/>
<path d="M32.1394 18.082C31.9508 18.3697 31.3898 19.459 31.7766 21.2733C31.9855 22.3592 32.2427 23.4308 32.5469 24.4838C32.8586 25.5616 32.9545 25.8263 33.6417 26.2808C34.692 26.9551 35.7947 27.505 36.934 27.9224C37.1396 27.9812 37.3554 27.9611 37.5509 27.8649C37.7021 27.8047 37.844 27.7153 37.9713 27.6002C38.1407 27.4507 38.1439 27.1764 38.2014 26.9597C38.3037 26.5761 38.4172 26.1791 38.521 25.786C38.5658 25.6076 38.6569 25.4197 38.6057 25.2298C38.5962 25.1914 38.561 25.1397 38.5306 25.1377C38.5306 25.1377 38.5738 24.9709 38.5946 24.8942C38.6329 24.7561 38.6825 24.4895 38.5578 24.3879C38.4331 24.2862 38.2845 24.595 38.2845 24.595C38.3597 24.4614 38.4094 24.3094 38.4299 24.1501C38.4299 23.9468 38.3277 23.7933 38.2142 23.8739C38.1378 23.9346 38.0717 24.012 38.0192 24.1021C37.9962 24.083 37.9699 24.0703 37.9422 24.0649C37.9145 24.0596 37.8862 24.0619 37.8594 24.0714C37.7073 24.1416 37.5832 24.2788 37.5126 24.455C37.4129 24.6361 37.3288 24.8289 37.2616 25.0304C37.2056 25.2394 37.13 25.4401 37.0363 25.6287C36.9666 25.7505 36.8664 25.8425 36.7502 25.8915C36.6112 25.9452 35.2783 24.5394 34.7572 24.0235C34.7572 24.0235 34.1627 21.3385 33.8958 20.3662C33.6065 19.3248 33.1862 18.1415 32.1394 18.082Z" fill="#FFBDA7"/>
<path d="M38.2014 26.96L38.4379 26.0298C38.4779 25.8764 38.5178 25.7191 38.5642 25.5676C38.5873 25.494 38.5997 25.4162 38.6009 25.3375C38.5997 25.2994 38.5932 25.2618 38.5818 25.2262C38.5706 25.1956 38.545 25.161 38.5258 25.1591C38.5235 25.1589 38.5213 25.1581 38.5192 25.1568C38.5171 25.1555 38.5153 25.1538 38.5138 25.1516C38.5123 25.1495 38.5112 25.147 38.5105 25.1443C38.5099 25.1417 38.5096 25.1389 38.5098 25.1361C38.5729 24.9536 38.606 24.7583 38.6073 24.5608C38.5977 24.4706 38.5386 24.369 38.4715 24.4208C38.4028 24.4693 38.3435 24.5346 38.2973 24.6125C38.2953 24.615 38.293 24.617 38.2904 24.6184C38.2878 24.6198 38.2849 24.6205 38.2821 24.6205C38.2792 24.6205 38.2764 24.6198 38.2738 24.6184C38.2712 24.617 38.2689 24.615 38.2669 24.6125C38.2632 24.6079 38.2611 24.6017 38.2611 24.5953C38.2611 24.5888 38.2632 24.5827 38.2669 24.578C38.3134 24.4902 38.3524 24.397 38.3836 24.2999C38.4147 24.205 38.4147 24.0995 38.3836 24.0046C38.3716 23.9578 38.3475 23.9168 38.3149 23.8876C38.2995 23.8742 38.2811 23.867 38.2621 23.867C38.2432 23.867 38.2247 23.8742 38.2094 23.8876C38.1372 23.9451 38.0748 24.0187 38.0256 24.1043C38.0242 24.106 38.0226 24.1073 38.0208 24.1083C38.019 24.1092 38.0171 24.1096 38.0152 24.1096C38.0132 24.1096 38.0113 24.1092 38.0095 24.1083C38.0078 24.1073 38.0061 24.106 38.0048 24.1043C37.9635 24.0788 37.917 24.0682 37.8708 24.0736C37.8246 24.079 37.7807 24.1004 37.7443 24.135C37.666 24.2051 37.5989 24.2915 37.5461 24.3901C37.4306 24.5822 37.3336 24.7894 37.2568 25.0076C37.3271 24.785 37.4182 24.5726 37.5285 24.3747C37.5804 24.2713 37.6488 24.1814 37.7299 24.1101C37.7707 24.0695 37.8209 24.0447 37.8737 24.0393C37.9266 24.0338 37.9795 24.0478 38.0256 24.0794H38.0032C38.054 23.989 38.1185 23.911 38.1934 23.8492C38.2143 23.8318 38.2391 23.8225 38.2645 23.8225C38.2899 23.8225 38.3147 23.8318 38.3356 23.8492C38.3749 23.8834 38.404 23.9318 38.4187 23.9873C38.4539 24.0919 38.4539 24.2088 38.4187 24.3134C38.3875 24.4154 38.3473 24.5131 38.2989 24.6049L38.2637 24.5742C38.3119 24.4854 38.3771 24.4117 38.4539 24.3594C38.4764 24.345 38.5023 24.34 38.5275 24.3452C38.5527 24.3504 38.5757 24.3655 38.5929 24.3882C38.6247 24.4303 38.6448 24.4832 38.6505 24.5397C38.658 24.6439 38.6482 24.7488 38.6217 24.8484L38.545 25.138L38.529 25.1112C38.6217 25.1438 38.6297 25.2512 38.6345 25.3298C38.6336 25.4132 38.62 25.4958 38.5945 25.5734C38.545 25.7268 38.505 25.8783 38.4635 26.0337L38.2014 26.96Z" fill="#F0997A"/>
<path d="M38.0305 24.0815C38.0545 24.1123 38.071 24.1505 38.078 24.1918C38.0851 24.2331 38.0825 24.2759 38.0705 24.3155C38.0537 24.3891 38.0285 24.4595 37.9953 24.5246C37.9286 24.6475 37.8688 24.7756 37.8164 24.9081C37.763 25.0414 37.7166 25.1785 37.6773 25.3185L37.5654 25.7405L37.6661 25.3128C37.7021 25.171 37.7454 25.032 37.7956 24.8966C37.8443 24.7604 37.9009 24.6284 37.965 24.5015C37.9944 24.4415 38.017 24.377 38.0321 24.3098C38.041 24.2791 38.0427 24.2461 38.037 24.2143C38.0314 24.1825 38.0186 24.1532 38.0001 24.1295L38.0305 24.0815Z" fill="#F0997A"/>
<path d="M38.3005 24.6072C38.2301 24.799 38.1662 24.9908 38.1071 25.1826C38.048 25.3744 37.9888 25.5662 37.9473 25.7752C37.984 25.5719 38.0368 25.3725 38.0879 25.1749C38.1391 24.9774 38.1966 24.7779 38.2621 24.5842L38.3005 24.6072Z" fill="#F0997A"/>
<path d="M37.6646 26.6131C37.5915 26.4392 37.4723 26.2996 37.3258 26.2161C37.3146 26.2161 37.3146 26.2352 37.3258 26.2391C37.4425 26.3365 37.5362 26.4687 37.5975 26.6226C37.6522 26.7744 37.6831 26.9369 37.6886 27.1021C37.6886 27.1596 37.6886 27.221 37.6982 27.2785C37.7042 27.2772 37.7098 27.2735 37.7138 27.2679C37.7179 27.2623 37.7203 27.2553 37.7205 27.2479C37.7367 27.1332 37.7442 27.017 37.7429 26.9007C37.7344 26.7992 37.7077 26.701 37.6646 26.6131Z" fill="#F0997A"/>
<path d="M38.5479 25.1492C38.4554 25.379 38.3732 25.6146 38.3018 25.855C38.3591 25.6081 38.4268 25.3649 38.5047 25.1262L38.5479 25.1492Z" fill="#F0997A"/>
<path d="M37.0704 25.3988C37.0879 25.0382 36.9233 24.858 36.8003 24.9078C36.6772 24.9577 36.6852 25.395 36.6165 25.675C36.5477 25.955 36.1642 27.2092 36.6245 27.5928L37.0943 26.1678C37.0272 26.0528 37.0576 25.6826 37.0704 25.3988Z" fill="#FFBDA7"/>
<path d="M37.0933 26.1566C37.0596 26.0765 37.0436 25.9874 37.047 25.8977C37.047 25.8076 37.047 25.7194 37.047 25.6292C37.0695 25.455 37.0602 25.277 37.0198 25.1076C37.0084 25.0681 36.9903 25.0318 36.9666 25.0011C36.943 24.9704 36.9143 24.946 36.8823 24.9292C36.8675 24.9225 36.8517 24.9199 36.8359 24.9215C36.8201 24.9232 36.8049 24.9291 36.7912 24.9388C36.7657 24.9653 36.7478 25.0009 36.7401 25.0404C36.6985 25.2054 36.6922 25.3857 36.6618 25.5621C36.566 25.8997 36.4907 26.2452 36.4364 26.5958C36.4117 26.7701 36.4085 26.9478 36.4269 27.1232C36.4321 27.2116 36.4523 27.2978 36.486 27.3765C36.5198 27.4553 36.5666 27.5251 36.6234 27.5816C36.5635 27.5277 36.5132 27.4598 36.4756 27.382C36.4379 27.3043 36.4138 27.2182 36.4045 27.129C36.3821 26.9503 36.3821 26.7687 36.4045 26.5901C36.4536 26.2379 36.5241 25.8905 36.6154 25.5506C36.6373 25.3738 36.6667 25.1984 36.7033 25.0251C36.7139 24.977 36.7369 24.934 36.7689 24.9024C36.7874 24.8897 36.8081 24.8822 36.8293 24.8802C36.8506 24.8782 36.872 24.8818 36.8919 24.8909C36.929 24.9093 36.9624 24.9369 36.99 24.972C37.0175 25.007 37.0386 25.0486 37.0518 25.0941C37.1476 25.4509 36.991 25.8153 37.0933 26.1566Z" fill="#F0997A"/>
<path d="M30.4084 18.2026C30.9829 18.1024 31.5639 18.0652 32.1441 18.0914C32.3742 18.1374 33.3491 19.5643 33.8877 21.1388C34.4263 22.7133 33.0886 23.632 33.0886 23.632C33.0886 23.632 32.9064 25.3715 32.9032 25.7416C32.9 26.1117 33.095 26.6852 32.9032 27.0841C32.6603 27.5712 31.4424 28.6471 29.5837 28.2827C28.1885 28.0104 26.5072 26.6833 26.9323 25.8145C27.6435 24.4221 27.6675 24.3397 27.6195 23.0586C27.586 22.1936 27.4869 21.415 27.6195 20.6287C27.8017 19.5163 28.1357 19.4032 28.4793 19.081C29.6093 18.4174 29.9417 18.31 30.4084 18.2026Z" fill="#64D1C6"/>
<path d="M29.8235 17.2649C29.8235 17.2649 29.384 16.4977 29.1427 15.9991C28.9014 15.5005 28.2077 13.8109 29.205 13.1089C29.2386 12.547 29.7149 12.0158 30.6162 11.7952C30.9853 11.6917 31.3689 11.6875 31.7395 11.783C32.11 11.8785 32.4584 12.0713 32.7595 12.3475C33.3812 12.9421 33.8015 14.4668 32.9736 15.3029L29.8235 17.2649Z" fill="#263238"/>
<path d="M32.8444 13.324C32.8444 13.324 33.148 13.721 33.0905 14.8352C33.0793 15.027 33.188 15.3741 33.1816 15.8651C33.1672 16.9832 32.7788 17.5317 32.3122 17.7331C32.0908 17.8088 31.858 17.8232 31.6313 17.7753L31.5914 18.4139C31.9758 19.2477 32.1864 20.1808 32.2051 21.1334C31.4309 20.1718 30.578 19.3063 29.6591 18.5501L29.8397 16.7377C29.8397 16.7377 29.5744 16.9851 29.258 16.6016C28.908 16.1815 28.9303 15.5237 29.2196 15.2955C29.6431 14.9599 29.926 15.3511 30.0187 15.5889C30.1114 15.8267 30.4566 15.6752 30.2601 14.9561C30.4726 14.9004 30.7763 14.1007 30.7395 13.5215C31.4811 13.9032 32.3985 13.8418 32.8444 13.324Z" fill="#FFBDA7"/>
<path d="M31.331 14.3822L30.9203 14.6028C30.9069 14.5716 30.899 14.5375 30.897 14.5025C30.895 14.4676 30.899 14.4325 30.9087 14.3994C30.9184 14.3664 30.9337 14.336 30.9536 14.3103C30.9734 14.2846 30.9975 14.2641 31.0242 14.2499C31.0798 14.221 31.1424 14.2186 31.1994 14.2432C31.2565 14.2677 31.3035 14.3175 31.331 14.3822Z" fill="#263238"/>
<path d="M32.418 14.4881L32.8495 14.6357C32.8588 14.6024 32.8623 14.5671 32.8599 14.5321C32.8575 14.497 32.8492 14.463 32.8354 14.4319C32.8216 14.4009 32.8028 14.3735 32.7799 14.3515C32.757 14.3295 32.7307 14.3133 32.7025 14.304C32.6444 14.2851 32.5826 14.2937 32.5296 14.328C32.4767 14.3622 32.4367 14.4195 32.418 14.4881Z" fill="#263238"/>
<path d="M31.8496 14.8713L31.9055 16.0892L32.4905 15.8667L31.8496 14.8713Z" fill="#F0997A"/>
<path d="M31.6322 17.7751C31.2026 17.6872 30.7886 17.512 30.408 17.2572C30.2521 17.1051 30.132 16.9068 30.0596 16.6819C30.0596 16.6819 30.0979 17.2323 30.3488 17.4759C30.7452 17.8594 31.6114 18.1107 31.6114 18.1107L31.6322 17.7751Z" fill="#F0997A"/>
<path d="M32.4185 15.0731C32.423 15.1338 32.4471 15.1901 32.4856 15.2298C32.5241 15.2696 32.574 15.2897 32.6247 15.286C32.6494 15.2848 32.6737 15.2776 32.696 15.2649C32.7184 15.2522 32.7384 15.2342 32.7548 15.212C32.7712 15.1898 32.7837 15.1638 32.7916 15.1357C32.7994 15.1075 32.8025 15.0778 32.8005 15.0482C32.7956 14.9876 32.7715 14.9317 32.7331 14.892C32.6946 14.8524 32.645 14.832 32.5943 14.8353C32.5696 14.8365 32.5454 14.8437 32.523 14.8564C32.5007 14.8691 32.4807 14.8871 32.4643 14.9093C32.4479 14.9315 32.4353 14.9575 32.4275 14.9856C32.4196 15.0138 32.4166 15.0435 32.4185 15.0731Z" fill="#263238"/>
<path d="M31.0266 15.0404C31.0243 15.1016 31.0418 15.1615 31.0755 15.2076C31.1091 15.2537 31.1563 15.2824 31.2072 15.2878C31.2317 15.2907 31.2565 15.2876 31.28 15.2788C31.3035 15.27 31.3253 15.2556 31.3441 15.2364C31.3629 15.2173 31.3783 15.1938 31.3893 15.1674C31.4004 15.1409 31.4069 15.1121 31.4085 15.0826C31.4116 15.0218 31.3949 14.9619 31.3617 14.9157C31.3286 14.8695 31.2817 14.8406 31.2311 14.8352C31.2064 14.8318 31.1812 14.8344 31.1573 14.843C31.1334 14.8516 31.1113 14.8659 31.0921 14.8851C31.073 14.9043 31.0573 14.9279 31.046 14.9547C31.0348 14.9814 31.0281 15.0105 31.0266 15.0404Z" fill="#263238"/>
<path d="M31.4332 16.2986C31.4002 16.3934 31.3999 16.5002 31.4324 16.5953C31.4649 16.6904 31.5276 16.7662 31.6066 16.8058C31.6857 16.8455 31.7746 16.8459 31.8539 16.8069C31.9332 16.7678 31.9963 16.6926 32.0294 16.5978L31.4332 16.2986Z" fill="#B16668"/>
<path d="M31.4105 16.417C31.4065 16.4702 31.4118 16.5238 31.426 16.5744C31.4403 16.625 31.4632 16.6715 31.4933 16.7108C31.5234 16.7502 31.56 16.7816 31.6008 16.803C31.6416 16.8244 31.6856 16.8353 31.7301 16.8351C31.7286 16.7306 31.6953 16.6303 31.6364 16.5533C31.5775 16.4762 31.4971 16.4278 31.4105 16.417Z" fill="#F28F8F"/>
<path d="M28.4619 19.0752C27.8386 19.4012 27.3064 20.2374 27.7076 21.6029C28.1189 22.9365 28.6048 24.2353 29.1619 25.4904C29.4417 26.167 29.8616 26.7462 30.3814 27.1723C32.0914 28.6337 33.7472 29.7479 33.9646 29.8458C34.1819 29.9436 34.4184 29.8784 34.81 29.7268C35.2016 29.5753 35.3055 29.2263 35.5452 28.9194C35.7849 28.6126 36.1493 28.3038 36.0566 28.1868C35.9431 28.0392 35.7577 28.0296 35.4541 28.252C35.1504 28.4745 35.0961 28.5819 35.2943 27.9279C35.405 27.5659 35.5481 27.2193 35.721 26.8942C35.8233 26.6391 35.7737 26.4608 35.673 26.3745C35.5724 26.2882 35.395 26.5663 35.395 26.5663C35.4744 26.435 35.5289 26.2844 35.5548 26.1252C35.5548 25.9238 35.4605 25.7646 35.347 25.8413C35.2686 25.8992 35.2002 25.9748 35.1456 26.0638C35.0865 25.9947 34.8659 25.9641 34.6662 26.3342C34.6662 26.3342 34.5639 26.1424 34.2538 26.503C33.9997 26.8041 33.8063 27.4619 33.7072 27.7707C33.6321 28.0066 31.262 24.7213 31.262 24.7213L30.0889 21.3517C30.0889 21.3517 29.2498 19.2094 28.4619 19.0752Z" fill="#FFBDA7"/>
<path d="M35.2954 27.9283C35.3413 27.7595 35.3947 27.5937 35.4552 27.4316C35.5201 27.2701 35.5926 27.1132 35.6726 26.9617C35.7157 26.8921 35.743 26.8103 35.752 26.7243C35.761 26.6383 35.7512 26.5509 35.7237 26.4708C35.7061 26.4358 35.6813 26.4067 35.6518 26.3864C35.6365 26.3803 35.6201 26.3788 35.6042 26.3822C35.5883 26.3855 35.5734 26.3936 35.5607 26.4055C35.4994 26.4538 35.4454 26.5141 35.4009 26.5839C35.3992 26.586 35.3972 26.5877 35.395 26.5888C35.3928 26.5899 35.3905 26.5905 35.3881 26.5905C35.3857 26.5905 35.3833 26.5899 35.3811 26.5888C35.3789 26.5877 35.3769 26.586 35.3753 26.5839C35.3726 26.5798 35.3711 26.5748 35.3711 26.5695C35.3711 26.5643 35.3726 26.5592 35.3753 26.5551C35.4241 26.4684 35.4653 26.3758 35.4984 26.279C35.5327 26.1862 35.5361 26.0812 35.5079 25.9855C35.4856 25.8896 35.4121 25.811 35.3481 25.8724C35.2756 25.9269 35.2122 25.9971 35.1611 26.0795C35.1567 26.0842 35.1511 26.0868 35.1452 26.0868C35.1393 26.0868 35.1336 26.0842 35.1292 26.0795C35.1117 26.064 35.0918 26.053 35.0706 26.047C35.0494 26.0411 35.0275 26.0404 35.0061 26.045C34.9601 26.052 34.9159 26.071 34.8767 26.1006C34.7968 26.1638 34.7292 26.2469 34.6785 26.3442C34.677 26.3462 34.6751 26.3479 34.6731 26.349C34.671 26.3501 34.6688 26.3507 34.6665 26.3507C34.6642 26.3507 34.662 26.3501 34.6599 26.349C34.6578 26.3479 34.656 26.3462 34.6545 26.3442C34.6314 26.3189 34.602 26.3033 34.5709 26.2999C34.5397 26.2964 34.5085 26.3052 34.4819 26.325C34.4203 26.3602 34.3637 26.4068 34.3141 26.4631C34.2114 26.5727 34.1249 26.7024 34.0584 26.8467C33.9236 27.1408 33.8071 27.4466 33.71 27.7615C33.7945 27.4412 33.9014 27.13 34.0296 26.8313C34.0957 26.6805 34.1827 26.5443 34.2869 26.4286C34.3387 26.3685 34.398 26.3187 34.4627 26.2809C34.4961 26.2559 34.5356 26.2456 34.5746 26.2515C34.6136 26.2575 34.6497 26.2793 34.6769 26.3135H34.6481C34.7006 26.2093 34.7715 26.1202 34.8559 26.0527C34.8994 26.0193 34.9485 25.9977 34.9997 25.9894C35.0276 25.9831 35.0562 25.984 35.0837 25.9919C35.1113 25.9999 35.1371 26.0147 35.1595 26.0354H35.1276C35.181 25.946 35.2483 25.8698 35.3258 25.811C35.3477 25.7932 35.3736 25.7837 35.4001 25.7837C35.4266 25.7837 35.4524 25.7932 35.4744 25.811C35.5134 25.8481 35.5414 25.8992 35.5543 25.9568C35.5854 26.0633 35.5808 26.1802 35.5415 26.2828C35.506 26.3822 35.4627 26.4772 35.4121 26.5666L35.3817 26.5417C35.4268 26.4654 35.4838 26.4003 35.5495 26.3499C35.5667 26.3346 35.5868 26.3247 35.608 26.321C35.6292 26.3173 35.6508 26.32 35.671 26.3288C35.7051 26.3541 35.7336 26.389 35.7541 26.4305C35.7843 26.5161 35.7951 26.6097 35.7856 26.702C35.7761 26.7942 35.7464 26.8818 35.6997 26.956C35.6198 27.1075 35.5399 27.259 35.4744 27.4182C35.407 27.5841 35.3472 27.7545 35.2954 27.9283Z" fill="#F0997A"/>
<path d="M34.687 26.3269C34.7081 26.3853 34.7171 26.4489 34.7132 26.5124C34.7093 26.5759 34.6927 26.6373 34.6646 26.6913C34.64 26.7443 34.6105 26.7938 34.5767 26.839C34.5492 26.8866 34.5257 26.9373 34.5064 26.9905C34.4278 27.2075 34.361 27.4304 34.3066 27.6579C34.3542 27.4272 34.414 27.2005 34.4856 26.979C34.504 26.9227 34.5271 26.8687 34.5544 26.8179C34.585 26.7726 34.6118 26.7238 34.6343 26.6721C34.6574 26.6241 34.6707 26.5702 34.6729 26.5148C34.6751 26.4594 34.6663 26.4042 34.6471 26.3538L34.687 26.3269Z" fill="#F0997A"/>
<path d="M35.1596 26.0486C35.183 26.0798 35.1986 26.1183 35.2048 26.1596C35.2111 26.2009 35.2076 26.2435 35.1948 26.2826C35.176 26.355 35.1491 26.424 35.1149 26.4878C35.0441 26.6102 34.9806 26.7383 34.9247 26.8713C34.8703 27.0037 34.8176 27.1379 34.7744 27.276L34.6514 27.6941L34.7632 27.2702C34.8043 27.1304 34.8518 26.9934 34.9055 26.8598C34.9577 26.7272 35.0175 26.599 35.0845 26.4763C35.1155 26.4165 35.1397 26.352 35.1564 26.2845C35.1662 26.2544 35.1689 26.2216 35.1641 26.1897C35.1593 26.1579 35.1472 26.1283 35.1292 26.1042L35.1596 26.0486Z" fill="#F0997A"/>
<path d="M35.418 26.5839C35.3429 26.7757 35.2742 26.9674 35.2086 27.1592C35.1431 27.351 35.0808 27.5428 35.0312 27.7461C35.0744 27.5428 35.1303 27.3453 35.1911 27.1496C35.2518 26.954 35.3093 26.7661 35.3797 26.5647L35.418 26.5839Z" fill="#F0997A"/>
<path d="M35.4545 28.2527C35.2579 28.3965 35.1668 28.4905 35.1796 28.3639C35.1173 28.6439 35.1429 28.7475 35.218 28.6382C35.2874 28.524 35.3627 28.4151 35.4433 28.3121C35.511 28.2329 35.5893 28.1681 35.6751 28.1204C35.5978 28.1548 35.5238 28.1992 35.4545 28.2527Z" fill="#F0997A"/>
<path d="M34.6456 28.6685C34.5767 28.4917 34.4609 28.3474 34.3164 28.2581C34.3068 28.2581 34.3052 28.2772 34.3164 28.283C34.4316 28.3842 34.5221 28.5206 34.5785 28.6781C34.6057 28.763 34.6276 28.8501 34.644 28.9389C34.6572 28.994 34.6657 29.0505 34.6696 29.1077C34.6664 29.144 34.6664 29.1806 34.6696 29.217C34.6863 29.1819 34.6951 29.1423 34.6952 29.1019C34.7027 29.0557 34.7069 29.0089 34.708 28.9619C34.7055 28.8598 34.6842 28.7596 34.6456 28.6685Z" fill="#F0997A"/>
<path d="M33.6971 27.7917C33.6427 27.8167 33.3774 27.5137 33.0322 27.0879C33.1777 27.4293 33.5804 28.3613 33.606 28.3153C33.6477 28.1399 33.6813 27.9619 33.7067 27.7821C33.7063 27.7849 33.7051 27.7873 33.7034 27.7891C33.7016 27.7908 33.6994 27.7918 33.6971 27.7917Z" fill="#F0997A"/>
<path opacity="0.1" d="M41.6432 45.5075L33.7976 50.9599C33.5323 51.1517 33.5323 51.4432 33.7976 51.6273L42.7908 57.8622C42.9393 57.9527 43.1036 57.9998 43.2702 57.9998C43.4368 57.9998 43.6011 57.9527 43.7497 57.8622L51.5953 52.4098C51.8606 52.218 51.8606 51.9265 51.5953 51.7424L42.6022 45.5075C42.4535 45.4173 42.2893 45.3704 42.1227 45.3704C41.9561 45.3704 41.7919 45.4173 41.6432 45.5075Z" fill="black"/>
<path d="M44.8452 54.607C44.5412 54.6348 44.2364 54.5688 43.9598 54.4152L36.1157 48.9935C35.6363 48.7077 35.1089 47.9636 35.0753 47.2674L34.834 40.555L35.2719 40.5243L35.5132 47.2367C35.5356 47.7162 35.9527 48.3146 36.3123 48.5313L44.1532 53.9473C44.364 54.0532 44.5923 54.0999 44.8205 54.084C45.0487 54.068 45.2709 53.9898 45.4701 53.8552L50.7058 50.2305C50.8321 50.1327 50.904 50.0138 50.8992 49.916C50.8944 49.8181 50.8161 49.7242 50.6835 49.636L42.2833 43.7923C41.8038 43.5066 41.2796 42.7624 41.246 42.0663L41.1293 38.3457L41.5657 38.3169L41.6839 42.0356C41.7063 42.515 42.1218 43.1153 42.483 43.3301L50.8816 49.1814C51.0049 49.2405 51.1125 49.3385 51.193 49.4652C51.2735 49.5918 51.3239 49.7423 51.3387 49.9006C51.3378 50.061 51.3014 50.2181 51.2331 50.356C51.1649 50.4938 51.0673 50.6074 50.9504 50.685L45.7178 54.3021C45.4536 54.4919 45.1531 54.597 44.8452 54.607Z" fill="#455A64"/>
<path d="M43.9621 54.4153L43.9765 54.4249C43.4651 55.2208 42.6324 55.4471 42.4454 55.3435C42.2936 55.2592 42.2057 55.0444 42.3192 54.9159C42.3719 54.8564 42.463 54.795 42.5493 54.7087C42.8002 54.4594 42.8817 54.026 42.9057 53.6865L43.9621 54.4153Z" fill="#E0E0E0"/>
<path d="M43.4367 55.6447C43.4227 55.2957 43.3403 54.9556 43.1962 54.652C43.052 54.3484 42.8503 54.0899 42.6072 53.8975C42.3659 53.7288 42.1485 53.7192 41.9951 53.8419L41.4277 54.2255L42.6152 56.6841L43.1778 56.3006C43.2669 56.2302 43.3382 56.1319 43.3838 56.0162C43.4295 55.9005 43.4478 55.772 43.4367 55.6447Z" fill="#37474F"/>
<path d="M42.0184 54.3006C42.2615 54.4927 42.4632 54.7512 42.6071 55.0549C42.751 55.3585 42.833 55.6987 42.8463 56.0477C42.8463 56.6883 42.4675 56.9452 42.0056 56.6231C41.763 56.4302 41.5617 56.1716 41.4179 55.8681C41.2741 55.5645 41.1918 55.2247 41.1777 54.8759C41.1809 54.2334 41.5581 53.9764 42.0184 54.3006Z" fill="#455A64"/>
<path d="M41.7314 55.2611C41.7314 55.0098 41.8593 54.8967 42.0159 55.006C42.1017 55.081 42.1716 55.179 42.2202 55.2922C42.2687 55.4055 42.2946 55.5307 42.2956 55.6581C42.2956 55.9093 42.1662 56.0224 42.0111 55.9131C41.925 55.8385 41.8548 55.7406 41.8062 55.6273C41.7576 55.514 41.732 55.3885 41.7314 55.2611Z" fill="#263238"/>
<path d="M42.5115 53.4146C42.5115 53.4146 42.5674 54.5979 42.1151 55.0505C42.0304 55.1348 41.9377 55.1962 41.885 55.2557C41.7699 55.3842 41.861 55.599 42.0112 55.6833C42.2302 55.8061 43.3521 55.459 43.79 54.2968L42.5115 53.4146Z" fill="#F5F5F5"/>
<path d="M42.0337 55.3325C42.0586 55.35 42.0798 55.3741 42.0956 55.4031C42.1114 55.432 42.1214 55.465 42.1248 55.4993C42.1248 55.5645 42.0912 55.5914 42.0449 55.5626C42.0196 55.5454 41.9981 55.5214 41.982 55.4924C41.9659 55.4634 41.9557 55.4303 41.9522 55.3958C41.9506 55.3325 41.9858 55.3037 42.0337 55.3325Z" fill="#263238"/>
<path d="M37.7611 50.1345L37.7755 50.1441C37.264 50.94 36.433 51.1663 36.2444 51.0608C36.0942 50.9784 36.0047 50.7617 36.1197 50.6332C36.1725 50.5737 36.2636 50.5143 36.3499 50.428C36.5992 50.1786 36.6823 49.7433 36.7063 49.4058L37.7611 50.1345Z" fill="#E0E0E0"/>
<path d="M37.2408 51.3637C37.2271 51.0148 37.145 50.6748 37.0011 50.3712C36.8573 50.0676 36.6557 49.809 36.4129 49.6165C36.1715 49.4458 35.9542 49.4382 35.7992 49.559L35.2334 49.9425L36.4209 52.4012L36.9834 52.0176C37.0721 51.9474 37.143 51.8492 37.1884 51.7339C37.2338 51.6186 37.2519 51.4905 37.2408 51.3637Z" fill="#37474F"/>
<path d="M35.8241 50.0181C36.0666 50.2109 36.268 50.4696 36.4118 50.7731C36.5556 51.0766 36.6379 51.4165 36.6519 51.7652C36.6519 52.4058 36.2732 52.6628 35.8113 52.3406C35.5687 52.1477 35.3674 51.8891 35.2235 51.5856C35.0797 51.2821 34.9975 50.9422 34.9834 50.5934C34.9866 49.951 35.3638 49.694 35.8241 50.0181Z" fill="#455A64"/>
<path d="M35.5352 50.9804C35.5352 50.7292 35.6646 50.6141 35.8212 50.7253C35.9071 50.8002 35.9771 50.8982 36.0256 51.0115C36.0742 51.1247 36.1 51.25 36.1009 51.3774C36.1009 51.6267 35.9715 51.7418 35.8164 51.6325C35.7302 51.5579 35.6598 51.46 35.611 51.3467C35.5621 51.2334 35.5361 51.1079 35.5352 50.9804Z" fill="#263238"/>
<path d="M36.322 49.1338C36.322 49.1338 36.3764 50.3171 35.9257 50.7678C35.8394 50.8541 35.7483 50.9155 35.6955 50.9749C35.5804 51.1015 35.6715 51.3182 35.8218 51.4026C36.0407 51.5234 37.1627 51.1782 37.599 50.016L36.322 49.1338Z" fill="#F5F5F5"/>
<path d="M35.8433 51.0513C35.8682 51.0688 35.8894 51.0929 35.9052 51.1219C35.921 51.1508 35.931 51.1838 35.9344 51.2181C35.9344 51.2814 35.9009 51.3102 35.8529 51.2814C35.8281 51.2639 35.8069 51.2397 35.7911 51.2108C35.7753 51.1819 35.7653 51.1489 35.7618 51.1146C35.7538 51.0494 35.7906 51.0225 35.8433 51.0513Z" fill="#263238"/>
<path d="M50.17 49.2857C49.657 50.0797 48.8259 50.3079 48.6389 50.2025C48.4887 50.12 48.3992 49.9033 48.5143 49.7748C48.567 49.7172 48.6581 49.6559 48.7428 49.5696C48.9937 49.3202 49.0768 48.8849 49.0992 48.5474L50.0917 49.232L50.1556 49.2761L50.17 49.2857Z" fill="#E0E0E0"/>
<path d="M49.6291 50.505C49.6151 50.156 49.5327 49.8159 49.3886 49.5124C49.2444 49.2088 49.0426 48.9503 48.7996 48.7579C48.5583 48.5891 48.3409 48.5795 48.1875 48.7023L47.6201 49.0858L48.8092 51.5445L49.3702 51.1609C49.4592 51.0904 49.5303 50.992 49.576 50.8764C49.6216 50.7607 49.64 50.6323 49.6291 50.505Z" fill="#37474F"/>
<path d="M48.2118 49.1592C48.4549 49.3514 48.6566 49.6099 48.8005 49.9135C48.9444 50.2172 49.0263 50.5574 49.0396 50.9064C49.0396 51.5469 48.6609 51.8039 48.199 51.4817C47.9562 51.2887 47.7547 51.0298 47.6109 50.7259C47.4671 50.422 47.3849 50.0818 47.3711 49.7327C47.3743 49.0921 47.7515 48.8351 48.2118 49.1592Z" fill="#455A64"/>
<path d="M47.9248 50.1214C47.9248 49.8702 48.0527 49.757 48.2093 49.8663C48.2951 49.9413 48.3651 50.0393 48.4137 50.1525C48.4623 50.2657 48.488 50.3911 48.489 50.5184C48.489 50.7696 48.3595 50.8828 48.2045 50.7735C48.1186 50.6987 48.0485 50.6007 47.9999 50.4874C47.9513 50.3742 47.9256 50.2488 47.9248 50.1214Z" fill="#263238"/>
<path d="M48.7039 48.2742C48.7039 48.2742 48.7598 49.4575 48.3075 49.9101C48.2228 49.9945 48.1301 50.0558 48.0774 50.1153C47.9623 50.2438 48.0534 50.4586 48.2036 50.543C48.4226 50.6657 49.5445 50.3186 49.9824 49.1564L48.7039 48.2742Z" fill="#F5F5F5"/>
<path d="M48.226 50.1921C48.2509 50.2096 48.2721 50.2338 48.2879 50.2627C48.3037 50.2916 48.3137 50.3246 48.3171 50.3589C48.3171 50.4222 48.2836 50.451 48.2372 50.4222C48.212 50.4051 48.1904 50.381 48.1743 50.352C48.1582 50.3231 48.148 50.29 48.1445 50.2554C48.1493 50.1921 48.1781 50.1633 48.226 50.1921Z" fill="#263238"/>
<path d="M43.9769 44.9741L43.9913 44.9837C43.4799 45.7796 42.6472 46.0059 42.4602 45.9024C42.31 45.818 42.2205 45.6032 42.3355 45.4747C42.3883 45.4152 42.4794 45.3539 42.5657 45.2676C42.815 45.0182 42.8981 44.5848 42.9221 44.2454L43.9769 44.9741Z" fill="#E0E0E0"/>
<path d="M43.4507 46.2035C43.437 45.8546 43.3549 45.5146 43.2111 45.211C43.0672 44.9074 42.8657 44.6488 42.6228 44.4564C42.3815 44.2857 42.1626 44.278 42.0091 44.3988L41.4434 44.7824L42.6308 47.241L43.1934 46.8575C43.2824 46.7875 43.3535 46.6894 43.3989 46.574C43.4443 46.4586 43.4622 46.3304 43.4507 46.2035Z" fill="#37474F"/>
<path d="M42.034 44.8608C42.2768 45.0534 42.4782 45.312 42.6221 45.6156C42.7659 45.9192 42.8481 46.2592 42.8619 46.608C42.8619 47.2485 42.4815 47.5055 42.0212 47.1833C41.7787 46.9905 41.5773 46.7319 41.4335 46.4283C41.2897 46.1248 41.2074 45.7849 41.1934 45.4362C41.1966 44.7918 41.5721 44.5348 42.034 44.8608Z" fill="#455A64"/>
<path d="M41.7451 45.8196C41.7451 45.5703 41.8746 45.4552 42.0296 45.5645C42.1155 45.6395 42.1857 45.7374 42.2346 45.8506C42.2834 45.9638 42.3095 46.0891 42.3109 46.2166C42.3109 46.4678 42.1814 46.581 42.0248 46.4717C41.939 46.3968 41.869 46.2988 41.8204 46.1855C41.7718 46.0723 41.746 45.947 41.7451 45.8196Z" fill="#263238"/>
<path d="M42.5265 43.9729C42.5265 43.9729 42.5808 45.1562 42.1301 45.6088C42.0438 45.6932 41.9527 45.7546 41.9 45.814C41.7849 45.9425 41.8744 46.1573 42.0247 46.2417C42.2436 46.3644 43.3672 46.0173 43.8035 44.8551L42.5265 43.9729Z" fill="#F5F5F5"/>
<path d="M42.0469 45.8906C42.0722 45.9075 42.0937 45.9315 42.1096 45.9605C42.1254 45.9896 42.1352 46.0228 42.138 46.0574C42.138 46.1226 42.106 46.1495 42.0581 46.1207C42.033 46.1034 42.0118 46.0793 41.9959 46.0504C41.9801 46.0214 41.9702 45.9883 41.967 45.9539C41.9638 45.8906 42.0006 45.8618 42.0469 45.8906Z" fill="#263238"/>
<path d="M41.1753 28.279L40.9419 28.4401L40.7613 27.5618C40.6032 26.9525 40.2739 26.4279 39.8296 26.0774L39.6154 25.9278C39.5519 25.8909 39.4822 25.8718 39.4117 25.8718C39.3411 25.8718 39.2714 25.8909 39.2079 25.9278L37.7535 26.9308C37.7389 26.941 37.7226 26.9477 37.7058 26.9503C37.689 26.953 37.6719 26.9516 37.6556 26.9462C37.6392 26.9408 37.6239 26.9316 37.6105 26.9191C37.5972 26.9066 37.586 26.891 37.5777 26.8733C37.5608 26.8378 37.5562 26.7959 37.5648 26.7564C37.5735 26.7169 37.5948 26.6831 37.6241 26.6623L39.0784 25.6593C39.1813 25.596 39.2953 25.563 39.4109 25.563C39.5265 25.563 39.6404 25.596 39.7433 25.6593L39.959 25.8069C40.4631 26.2019 40.8358 26.7964 41.0123 27.487L41.1753 28.279Z" fill="#37474F"/>
<path d="M34.6283 29.56L34.208 28.6855L37.7241 26.2556C37.7586 26.2292 37.799 26.2162 37.8399 26.2182C37.8807 26.2203 37.9201 26.2374 37.9526 26.2671C38.0388 26.3352 38.1105 26.4265 38.1621 26.5337C38.2137 26.6409 38.2438 26.7611 38.2499 26.8847C38.255 26.9333 38.2476 26.9827 38.2288 27.0262C38.2099 27.0697 38.1805 27.1053 38.1444 27.1282L34.6283 29.56Z" fill="#64D1C6"/>
<path opacity="0.25" d="M34.6283 29.56L34.208 28.6855L37.7241 26.2556C37.7586 26.2292 37.799 26.2162 37.8399 26.2182C37.8807 26.2203 37.9201 26.2374 37.9526 26.2671C38.0388 26.3352 38.1105 26.4265 38.1621 26.5337C38.2137 26.6409 38.2438 26.7611 38.2499 26.8847C38.255 26.9333 38.2476 26.9827 38.2288 27.0262C38.2099 27.0697 38.1805 27.1053 38.1444 27.1282L34.6283 29.56Z" fill="black"/>
<path d="M34.2083 28.6859C34.3186 28.6092 34.5024 28.7434 34.6174 28.9851C34.7325 29.2267 34.7389 29.4837 34.6286 29.5604C34.5184 29.6371 34.3346 29.5029 34.2179 29.2612C34.1012 29.0196 34.098 28.7626 34.2083 28.6859Z" fill="#64D1C6"/>
<path d="M34.4734 32.9701L34.24 33.1312L34.0594 32.2529C33.9019 31.6433 33.5725 31.1184 33.1277 30.7685L32.9135 30.6189C32.8615 30.5918 32.8171 30.5471 32.786 30.4902C32.7549 30.4333 32.7383 30.3667 32.7383 30.2986C32.7383 30.2305 32.7549 30.1639 32.786 30.107C32.8171 30.0501 32.8615 30.0054 32.9135 29.9783L34.3008 29.0194C34.3359 28.9945 34.3919 29.0367 34.427 29.1095C34.4622 29.1824 34.4654 29.2649 34.427 29.2879L33.0398 30.2468C33.0014 30.2718 32.9934 30.2948 32.9934 30.2986C32.9934 30.3024 33.0014 30.3235 33.0398 30.3504L33.2539 30.5C33.7586 30.8932 34.1316 31.4874 34.3072 32.1781L34.4734 32.9701Z" fill="#37474F"/>
<path d="M41.9415 38.5166L34.9365 43.3706L45.1747 50.4647L52.1812 45.6088L41.9415 38.5166Z" fill="#64D1C6"/>
<path opacity="0.4" d="M41.9415 38.5166L34.9365 43.3706L45.1747 50.4647L52.1812 45.6088L41.9415 38.5166Z" fill="black"/>
<path d="M34.2402 33.1393L41.1749 28.2776L41.942 38.5169L34.9371 43.371L34.2402 33.1393Z" fill="#64D1C6"/>
<path opacity="0.2" d="M34.2402 33.1393L41.1749 28.2776L41.942 38.5169L34.9371 43.371L34.2402 33.1393Z" fill="black"/>
<path d="M41.1748 28.2776L41.9419 38.5169L52.1817 45.6129L53.7975 37.0268L41.1748 28.2776ZM44.7548 38.1218C44.6069 38.1774 44.4466 38.1606 44.309 38.0751C44.1713 37.9896 44.0673 37.8424 44.0196 37.6654L42.3287 32.3952C42.2929 32.3125 42.2721 32.2217 42.2675 32.1287C42.263 32.0358 42.2749 31.9427 42.3024 31.8556C42.3299 31.7685 42.3724 31.6893 42.4272 31.6233C42.4819 31.5573 42.5477 31.5059 42.6201 31.4724C42.6926 31.439 42.7701 31.4243 42.8476 31.4294C42.9251 31.4344 43.0009 31.459 43.0699 31.5015C43.139 31.5441 43.1998 31.6037 43.2483 31.6764C43.2968 31.7491 43.332 31.8332 43.3516 31.9234L45.0425 37.1898C45.1071 37.3592 45.1131 37.5524 45.0592 37.7272C45.0052 37.9019 44.8958 38.0438 44.7548 38.1218ZM47.9512 39.9265C47.8035 39.9825 47.6433 39.9659 47.5058 39.8803C47.3683 39.7948 47.2646 39.6472 47.2177 39.4701L45.5251 34.2018C45.488 34.1185 45.4661 34.0267 45.461 33.9324C45.4558 33.8382 45.4674 33.7437 45.4951 33.6553C45.5228 33.5669 45.5659 33.4866 45.6215 33.4198C45.6772 33.353 45.7441 33.3012 45.8177 33.2679C45.8913 33.2346 45.9701 33.2205 46.0486 33.2266C46.1271 33.2327 46.2037 33.2589 46.2731 33.3034C46.3426 33.3479 46.4033 33.4096 46.4512 33.4845C46.4992 33.5594 46.5333 33.6457 46.5512 33.7377L48.2437 39.0079C48.305 39.1765 48.3086 39.3671 48.2539 39.5389C48.1992 39.7107 48.0905 39.8499 47.9512 39.9265ZM51.1477 41.7312C51.0001 41.7867 50.8403 41.7702 50.7029 41.685C50.5656 41.5999 50.4617 41.4532 50.4141 41.2767L48.7232 36.0065C48.6854 35.9235 48.6628 35.8319 48.657 35.7376C48.6511 35.6434 48.6621 35.5488 48.6892 35.46C48.7163 35.3713 48.7589 35.2905 48.8141 35.2231C48.8693 35.1557 48.9359 35.1033 49.0093 35.0693C49.0828 35.0352 49.1615 35.0204 49.2401 35.0258C49.3187 35.0313 49.3955 35.0568 49.4652 35.1006C49.535 35.1445 49.5961 35.2058 49.6445 35.2803C49.693 35.3548 49.7276 35.4409 49.746 35.5328L51.4369 40.803C51.5009 40.9721 51.5063 41.1648 51.4521 41.3388C51.3979 41.5128 51.2884 41.6539 51.1477 41.7312Z" fill="#64D1C6"/>
<path opacity="0.1" d="M41.1748 28.2776L41.9419 38.5169L52.1817 45.6129L53.7975 37.0268L41.1748 28.2776ZM44.7548 38.1218C44.6069 38.1774 44.4466 38.1606 44.309 38.0751C44.1713 37.9896 44.0673 37.8424 44.0196 37.6654L42.3287 32.3952C42.2929 32.3125 42.2721 32.2217 42.2675 32.1287C42.263 32.0358 42.2749 31.9427 42.3024 31.8556C42.3299 31.7685 42.3724 31.6893 42.4272 31.6233C42.4819 31.5573 42.5477 31.5059 42.6201 31.4724C42.6926 31.439 42.7701 31.4243 42.8476 31.4294C42.9251 31.4344 43.0009 31.459 43.0699 31.5015C43.139 31.5441 43.1998 31.6037 43.2483 31.6764C43.2968 31.7491 43.332 31.8332 43.3516 31.9234L45.0425 37.1898C45.1071 37.3592 45.1131 37.5524 45.0592 37.7272C45.0052 37.9019 44.8958 38.0438 44.7548 38.1218ZM47.9512 39.9265C47.8035 39.9825 47.6433 39.9659 47.5058 39.8803C47.3683 39.7948 47.2646 39.6472 47.2177 39.4701L45.5251 34.2018C45.488 34.1185 45.4661 34.0267 45.461 33.9324C45.4558 33.8382 45.4674 33.7437 45.4951 33.6553C45.5228 33.5669 45.5659 33.4866 45.6215 33.4198C45.6772 33.353 45.7441 33.3012 45.8177 33.2679C45.8913 33.2346 45.9701 33.2205 46.0486 33.2266C46.1271 33.2327 46.2037 33.2589 46.2731 33.3034C46.3426 33.3479 46.4033 33.4096 46.4512 33.4845C46.4992 33.5594 46.5333 33.6457 46.5512 33.7377L48.2437 39.0079C48.305 39.1765 48.3086 39.3671 48.2539 39.5389C48.1992 39.7107 48.0905 39.8499 47.9512 39.9265ZM51.1477 41.7312C51.0001 41.7867 50.8403 41.7702 50.7029 41.685C50.5656 41.5999 50.4617 41.4532 50.4141 41.2767L48.7232 36.0065C48.6854 35.9235 48.6628 35.8319 48.657 35.7376C48.6511 35.6434 48.6621 35.5488 48.6892 35.46C48.7163 35.3713 48.7589 35.2905 48.8141 35.2231C48.8693 35.1557 48.9359 35.1033 49.0093 35.0693C49.0828 35.0352 49.1615 35.0204 49.2401 35.0258C49.3187 35.0313 49.3955 35.0568 49.4652 35.1006C49.535 35.1445 49.5961 35.2058 49.6445 35.2803C49.693 35.3548 49.7276 35.4409 49.746 35.5328L51.4369 40.803C51.5009 40.9721 51.5063 41.1648 51.4521 41.3388C51.3979 41.5128 51.2884 41.6539 51.1477 41.7312Z" fill="black"/>
<path d="M44.0811 26.9187C43.9509 26.8383 43.805 26.8013 43.6588 26.8118C43.5126 26.8223 43.3714 26.8797 43.2501 26.9781C42.5676 27.4518 42.0146 28.8154 42.0146 30.0198V32.8601C42.0146 32.877 42.0174 32.8937 42.0228 32.9093C42.0282 32.9249 42.0361 32.9391 42.046 32.951C42.056 32.9629 42.0678 32.9724 42.0808 32.9789C42.0937 32.9853 42.1077 32.9886 42.1217 32.9886C42.1358 32.9886 42.1497 32.9853 42.1627 32.9789C42.1757 32.9724 42.1875 32.9629 42.1974 32.951C42.2074 32.9391 42.2153 32.9249 42.2207 32.9093C42.226 32.8937 42.2288 32.877 42.2288 32.8601V30.0198C42.2288 28.8979 42.7354 27.634 43.3572 27.2025C43.4457 27.1262 43.55 27.0803 43.6587 27.0699C43.7674 27.0594 43.8765 27.0847 43.9741 27.1431C44.2298 27.3214 44.3768 27.7721 44.3768 28.382V31.2108C44.3772 31.2451 44.3889 31.2777 44.4092 31.3018C44.4295 31.3258 44.4569 31.3393 44.4855 31.3393C44.5139 31.3393 44.5411 31.3258 44.5612 31.3017C44.5813 31.2776 44.5926 31.2449 44.5926 31.2108V28.382C44.5926 27.6782 44.4056 27.145 44.0811 26.9187Z" fill="#263238"/>
<path d="M48.4632 42.4301L47.8016 29.4022L46.4655 28.4817L45.8438 40.6158L48.4632 42.4301Z" fill="#64D1C6"/>
<path opacity="0.4" d="M48.4632 42.4301L47.8016 29.4022L46.4655 28.4817L45.8438 40.6158L48.4632 42.4301Z" fill="white"/>
<path d="M40.1393 32.8601L39.5176 44.9943L45.8433 40.6158L46.465 28.4817L40.1393 32.8601Z" fill="#64D1C6"/>
<path opacity="0.3" d="M40.1393 32.8601L39.5176 44.9943L45.8433 40.6158L46.465 28.4817L40.1393 32.8601Z" fill="white"/>
<path opacity="0.05" d="M40.1393 32.8601L39.5176 44.9943L45.8433 40.6158L46.465 28.4817L40.1393 32.8601Z" fill="black"/>
<path d="M40.1393 32.8604L41.4754 33.7828L42.1371 46.8107L39.5176 44.9945L40.1393 32.8604Z" fill="#64D1C6"/>
<path opacity="0.55" d="M40.1393 32.8604L41.4754 33.7828L42.1371 46.8107L39.5176 44.9945L40.1393 32.8604Z" fill="white"/>
<path opacity="0.5" d="M42.1371 46.8109L40.9751 44.7435L40.8281 39.0437L40.7098 44.5613L39.5176 44.9947L42.1371 46.8109Z" fill="#64D1C6"/>
<path d="M47.8013 29.4028L41.4756 33.7832L42.1372 46.811L48.4694 42.4326L47.8013 29.4028ZM43.4606 34.1015C43.3295 34.1917 43.2224 34.1169 43.2224 33.9347C43.2271 33.8356 43.2511 33.7392 43.2925 33.6533C43.3338 33.5674 43.3914 33.4943 43.4606 33.4399C43.5916 33.3478 43.6987 33.4245 43.6987 33.6067C43.6946 33.706 43.6709 33.8026 43.6295 33.8887C43.5881 33.9747 43.5302 34.0477 43.4606 34.1015ZM45.8243 32.4522C45.6917 32.5423 45.5862 32.4675 45.5862 32.2853C45.5904 32.1861 45.6142 32.0895 45.6556 32.0035C45.697 31.9175 45.7548 31.8445 45.8243 31.7905C45.9554 31.6985 46.0625 31.7733 46.0625 31.9574C46.0581 32.0566 46.0343 32.1531 45.9929 32.2391C45.9515 32.3251 45.8938 32.3981 45.8243 32.4522Z" fill="#64D1C6"/>
<path opacity="0.7" d="M47.8013 29.4028L41.4756 33.7832L42.1372 46.811L48.4694 42.4326L47.8013 29.4028ZM43.4606 34.1015C43.3295 34.1917 43.2224 34.1169 43.2224 33.9347C43.2271 33.8356 43.2511 33.7392 43.2925 33.6533C43.3338 33.5674 43.3914 33.4943 43.4606 33.4399C43.5916 33.3478 43.6987 33.4245 43.6987 33.6067C43.6946 33.706 43.6709 33.8026 43.6295 33.8887C43.5881 33.9747 43.5302 34.0477 43.4606 34.1015ZM45.8243 32.4522C45.6917 32.5423 45.5862 32.4675 45.5862 32.2853C45.5904 32.1861 45.6142 32.0895 45.6556 32.0035C45.697 31.9175 45.7548 31.8445 45.8243 31.7905C45.9554 31.6985 46.0625 31.7733 46.0625 31.9574C46.0581 32.0566 46.0343 32.1531 45.9929 32.2391C45.9515 32.3251 45.8938 32.3981 45.8243 32.4522Z" fill="white"/>
<path d="M45.419 27.8297C45.289 27.7482 45.143 27.7107 44.9966 27.7212C44.8502 27.7317 44.709 27.7897 44.588 27.8891C43.9055 28.3609 43.3525 29.7245 43.3525 30.9289V33.7692C43.3525 33.7861 43.3553 33.8028 43.3607 33.8184C43.3661 33.834 43.374 33.8481 43.3839 33.8601C43.3938 33.872 43.4057 33.8815 43.4186 33.8879C43.4316 33.8944 43.4456 33.8977 43.4596 33.8977C43.4737 33.8977 43.4876 33.8944 43.5006 33.8879C43.5136 33.8815 43.5254 33.872 43.5353 33.8601C43.5453 33.8481 43.5532 33.834 43.5585 33.8184C43.5639 33.8028 43.5667 33.7861 43.5667 33.7692V30.9289C43.5667 29.807 44.0733 28.5431 44.695 28.1116C44.7835 28.0356 44.8874 27.99 44.9958 27.9795C45.1042 27.969 45.2129 27.9941 45.3103 28.0521C45.5677 28.2305 45.7147 28.6831 45.7147 29.293V32.1199C45.7151 32.1541 45.7268 32.1868 45.7471 32.2108C45.7674 32.2349 45.7948 32.2484 45.8234 32.2484C45.8374 32.2484 45.8514 32.245 45.8644 32.2386C45.8773 32.2321 45.8892 32.2227 45.8991 32.2107C45.909 32.1988 45.9169 32.1846 45.9223 32.169C45.9277 32.1535 45.9305 32.1367 45.9305 32.1199V29.293C45.9305 28.5872 45.7515 28.0541 45.419 27.8297Z" fill="#37474F"/>
<path d="M34.2451 33.1389L34.9419 43.3706L45.1801 50.4666L46.7975 41.8785L34.2451 33.1389ZM38.287 43.2114C38.1393 43.2663 37.9795 43.2492 37.8422 43.1638C37.7049 43.0784 37.6011 42.9315 37.5534 42.7549L35.8609 37.4847C35.8254 37.4022 35.8049 37.3116 35.8005 37.2188C35.7961 37.1261 35.8081 37.0333 35.8356 36.9465C35.8631 36.8597 35.9056 36.7808 35.9601 36.7149C36.0147 36.6491 36.0803 36.5978 36.1525 36.5643C36.2247 36.5309 36.302 36.516 36.3793 36.5208C36.4566 36.5256 36.5322 36.5498 36.6012 36.5919C36.6701 36.6341 36.731 36.6932 36.7796 36.7654C36.8283 36.8376 36.8638 36.9213 36.8838 37.011L38.5763 42.2812C38.64 42.4514 38.6448 42.6449 38.5896 42.8193C38.5345 42.9937 38.4239 43.1348 38.2822 43.2114H38.287ZM41.4834 45.0161C41.3357 45.0715 41.1757 45.0547 41.0383 44.9692C40.9009 44.8837 40.7972 44.7365 40.7498 44.5596L39.0541 39.299C39.0183 39.2163 38.9975 39.1256 38.9929 39.0326C38.9884 38.9396 39.0003 38.8465 39.0278 38.7594C39.0553 38.6723 39.0978 38.5931 39.1526 38.5271C39.2073 38.4611 39.2731 38.4097 39.3456 38.3763C39.418 38.3428 39.4955 38.3282 39.5731 38.3332C39.6506 38.3382 39.7263 38.3628 39.7954 38.4053C39.8644 38.4479 39.9252 38.5075 39.9737 38.5802C40.0223 38.6529 40.0574 38.7371 40.077 38.8272L41.7695 44.0936C41.8307 44.2623 41.8347 44.453 41.7807 44.6252C41.7267 44.7974 41.6189 44.9376 41.4802 45.0161H41.4834ZM44.6798 46.8208C44.5321 46.8767 44.3719 46.8601 44.2344 46.7746C44.0969 46.689 43.9933 46.5414 43.9463 46.3643L42.2538 41.0941C42.218 41.0114 42.1971 40.9207 42.1926 40.8277C42.188 40.7347 42.1999 40.6416 42.2274 40.5545C42.2549 40.4674 42.2974 40.3882 42.3522 40.3222C42.407 40.2562 42.4727 40.2048 42.5452 40.1714C42.6176 40.1379 42.6952 40.1233 42.7727 40.1283C42.8502 40.1333 42.9259 40.1579 42.995 40.2004C43.064 40.243 43.1248 40.3026 43.1733 40.3753C43.2219 40.448 43.2571 40.5322 43.2766 40.6223L44.9691 45.8925C45.0329 46.0622 45.0379 46.2552 44.983 46.4293C44.9282 46.6033 44.818 46.7442 44.6766 46.8208H44.6798Z" fill="#64D1C6"/>
<path d="M46.7932 41.8765L53.7981 37.0225L52.1823 45.6105L45.1758 50.4646L46.7932 41.8765Z" fill="#64D1C6"/>
<path opacity="0.2" d="M46.7932 41.8765L53.7981 37.0225L52.1823 45.6105L45.1758 50.4646L46.7932 41.8765Z" fill="black"/>
<path d="M43.3714 19.681C42.4423 20.2181 41.3776 20.31 40.394 19.938L39.9609 19.7462C39.0293 19.2492 38.2876 18.3499 37.8831 17.2269C37.4786 16.1039 37.4409 14.8395 37.7775 13.6847C38.114 12.5299 38.8002 11.5692 39.6998 10.9935C40.5993 10.4178 41.6464 10.2691 42.6331 10.5771L43.0758 10.7497C43.8152 11.0918 44.4551 11.6862 44.9164 12.4595C45.3777 13.2329 45.6402 14.1513 45.6717 15.1016C45.7031 16.0519 45.502 16.9924 45.0933 17.8072C44.6845 18.622 44.086 19.2754 43.3714 19.6868V19.681Z" fill="white"/>
<path d="M45.5803 12.9918C45.1003 11.7975 44.2641 10.8631 43.2373 10.3736C42.2104 9.88416 41.0678 9.87531 40.0358 10.3488C39.0037 10.8223 38.1575 11.7437 37.6647 12.9304C37.172 14.1171 37.0686 15.4827 37.3751 16.7565L36.4385 17.9571C36.4031 18.0023 36.3799 18.0594 36.3721 18.1207C36.3643 18.1821 36.3721 18.2448 36.3946 18.3007C36.4171 18.3566 36.4532 18.403 36.4982 18.4337C36.5431 18.4645 36.5947 18.4782 36.6463 18.473L38.0111 18.3426C38.6498 19.4251 39.604 20.1802 40.6847 20.4582C41.7654 20.7362 42.8938 20.5169 43.8461 19.8437C44.7984 19.1705 45.5052 18.0925 45.8264 16.8235C46.1476 15.5544 46.0597 14.1868 45.5803 12.9918ZM43.3715 19.6812C42.4424 20.2183 41.3777 20.3102 40.3941 19.9382L39.961 19.7464C39.0294 19.2493 38.2877 18.35 37.8832 17.2271C37.4787 16.1041 37.441 14.8396 37.7776 13.6848C38.1141 12.53 38.8003 11.5694 39.6999 10.9937C40.5994 10.418 41.6465 10.2693 42.6332 10.5772L43.0759 10.7498C43.8154 11.092 44.4552 11.6864 44.9165 12.4597C45.3778 13.233 45.6403 14.1515 45.6718 15.1018C45.7032 16.0521 45.5021 16.9926 45.0934 17.8074C44.6847 18.6222 44.0861 19.2756 43.3715 19.687V19.6812Z" fill="#64D1C6"/>
<path d="M43.3714 19.681C42.4423 20.2181 41.3776 20.31 40.394 19.938L39.9609 19.7462C39.0293 19.2492 38.2876 18.3499 37.8831 17.2269C37.4786 16.1039 37.4409 14.8395 37.7775 13.6847C38.114 12.5299 38.8002 11.5692 39.6998 10.9935C40.5993 10.4178 41.6464 10.2691 42.6331 10.5771L43.0758 10.7497C43.8152 11.0918 44.4551 11.6862 44.9164 12.4595C45.3777 13.2329 45.6402 14.1513 45.6717 15.1016C45.7031 16.0519 45.502 16.9924 45.0933 17.8072C44.6845 18.622 44.086 19.2754 43.3714 19.6868V19.681Z" fill="white"/>
<path d="M39.6891 13.9642C39.6753 13.9663 39.6614 13.9649 39.6481 13.9601C39.6349 13.9552 39.6226 13.947 39.6122 13.936C39.6018 13.9251 39.5935 13.9115 39.5878 13.8964C39.5821 13.8812 39.5791 13.8648 39.5791 13.8482C39.5791 13.8316 39.5821 13.8151 39.5878 13.8C39.5935 13.7848 39.6018 13.7713 39.6122 13.7603C39.6226 13.7494 39.6349 13.7412 39.6481 13.7363C39.6614 13.7315 39.6753 13.73 39.6891 13.7322H40.6656C40.691 13.7326 40.7153 13.7449 40.7335 13.7663C40.7517 13.7877 40.7622 13.8167 40.7631 13.8472C40.7631 13.8783 40.7528 13.908 40.7345 13.93C40.7162 13.9519 40.6914 13.9642 40.6656 13.9642H39.6875H39.6891Z" fill="#455A64"/>
<path d="M43.1334 16.5973H40.2854C40.2639 16.5973 40.2431 16.5889 40.226 16.5733C40.209 16.5577 40.1967 16.5358 40.1911 16.511L39.4591 13.2737L38.9908 12.9496C38.9711 12.9326 38.9574 12.9075 38.9524 12.879C38.9473 12.8506 38.9512 12.8209 38.9634 12.7958C38.9756 12.7706 38.9951 12.7518 39.0182 12.743C39.0413 12.7342 39.0663 12.7361 39.0883 12.7482L39.5902 13.0953C39.6013 13.1028 39.611 13.113 39.6187 13.1252C39.6264 13.1374 39.6319 13.1514 39.6349 13.1663L40.3589 16.3633H43.0599L43.6288 13.9411H42.7882C42.7623 13.9411 42.7375 13.9288 42.7192 13.9068C42.701 13.8849 42.6907 13.8551 42.6907 13.8241C42.6907 13.7931 42.701 13.7633 42.7192 13.7414C42.7375 13.7194 42.7623 13.7071 42.7882 13.7071H43.7583C43.7734 13.7072 43.7883 13.7115 43.8018 13.7194C43.8154 13.7274 43.8273 13.7389 43.8366 13.7531C43.8454 13.768 43.8514 13.7849 43.8542 13.8028C43.8569 13.8207 43.8564 13.8391 43.8526 13.8567L43.2277 16.511C43.2223 16.536 43.2101 16.5581 43.193 16.5737C43.1759 16.5894 43.1549 16.5977 43.1334 16.5973Z" fill="#455A64"/>
<path d="M43.1042 17.4049H40.3536C40.2944 17.4092 40.2351 17.3989 40.1794 17.3747C40.1236 17.3505 40.0726 17.3129 40.0294 17.2641C39.9862 17.2153 39.9518 17.1564 39.9282 17.0911C39.9047 17.0258 39.8926 16.9554 39.8926 16.8842C39.8926 16.813 39.9047 16.7426 39.9282 16.6773C39.9518 16.612 39.9862 16.5531 40.0294 16.5043C40.0726 16.4555 40.1236 16.4179 40.1794 16.3937C40.2351 16.3695 40.2944 16.3592 40.3536 16.3635H41.597C41.6099 16.3635 41.6225 16.3665 41.6344 16.3724C41.6462 16.3783 41.6569 16.3869 41.666 16.3978C41.675 16.4086 41.6822 16.4215 41.6871 16.4357C41.692 16.4499 41.6945 16.4651 41.6945 16.4805C41.6945 16.4959 41.692 16.5111 41.6871 16.5253C41.6822 16.5395 41.675 16.5524 41.666 16.5632C41.6569 16.5741 41.6462 16.5827 41.6344 16.5886C41.6225 16.5945 41.6099 16.5975 41.597 16.5975H40.3568C40.2933 16.5975 40.2323 16.6278 40.1873 16.6817C40.1424 16.7357 40.1171 16.8089 40.1171 16.8852C40.1171 16.9615 40.1424 17.0346 40.1873 17.0886C40.2323 17.1425 40.2933 17.1728 40.3568 17.1728H43.1074C43.1211 17.1707 43.1351 17.1721 43.1483 17.177C43.1616 17.1818 43.1738 17.19 43.1842 17.201C43.1946 17.212 43.2029 17.2255 43.2086 17.2407C43.2144 17.2558 43.2173 17.2722 43.2173 17.2889C43.2173 17.3055 43.2144 17.3219 43.2086 17.3371C43.2029 17.3522 43.1946 17.3657 43.1842 17.3767C43.1738 17.3877 43.1616 17.3959 43.1483 17.4007C43.1351 17.4056 43.1211 17.407 43.1074 17.4049H43.1042Z" fill="#455A64"/>
<path d="M40.6694 18.6259C40.5827 18.6259 40.4981 18.5951 40.4261 18.5374C40.3541 18.4796 40.2979 18.3976 40.2648 18.3015C40.2316 18.2055 40.223 18.0999 40.2399 17.9979C40.2568 17.896 40.2985 17.8024 40.3597 17.7289C40.4209 17.6554 40.499 17.6053 40.5839 17.585C40.6689 17.5648 40.7569 17.5752 40.8369 17.615C40.917 17.6547 40.9854 17.7221 41.0335 17.8085C41.0816 17.8949 41.1073 17.9965 41.1073 18.1004C41.1073 18.1694 41.0959 18.2378 41.0739 18.3015C41.0519 18.3653 41.0197 18.4232 40.979 18.472C40.9383 18.5208 40.8901 18.5595 40.8369 18.5859C40.7838 18.6123 40.7269 18.6259 40.6694 18.6259ZM40.6694 17.807C40.6209 17.8066 40.5735 17.8235 40.5331 17.8555C40.4926 17.8875 40.4611 17.9332 40.4423 17.9868C40.4236 18.0404 40.4185 18.0995 40.4277 18.1565C40.437 18.2135 40.4602 18.266 40.4943 18.3072C40.5284 18.3485 40.572 18.3766 40.6195 18.3881C40.6669 18.3996 40.7162 18.3939 40.761 18.3717C40.8057 18.3496 40.844 18.312 40.871 18.2637C40.8979 18.2154 40.9123 18.1586 40.9123 18.1004C40.9123 18.0229 40.8867 17.9486 40.8412 17.8936C40.7957 17.8387 40.7339 17.8075 40.6694 17.807Z" fill="#455A64"/>
<path d="M42.6186 18.6259C42.532 18.6259 42.4473 18.5951 42.3753 18.5374C42.3033 18.4796 42.2471 18.3976 42.214 18.3015C42.1809 18.2055 42.1722 18.0999 42.1891 17.9979C42.206 17.896 42.2477 17.8024 42.3089 17.7289C42.3702 17.6554 42.4482 17.6053 42.5331 17.585C42.6181 17.5648 42.7061 17.5752 42.7862 17.615C42.8662 17.6547 42.9346 17.7221 42.9827 17.8085C43.0308 17.8949 43.0565 17.9965 43.0565 18.1004C43.0565 18.1694 43.0452 18.2378 43.0232 18.3015C43.0011 18.3653 42.9689 18.4232 42.9282 18.472C42.8876 18.5208 42.8393 18.5595 42.7862 18.5859C42.733 18.6123 42.6761 18.6259 42.6186 18.6259ZM42.6186 17.807C42.5849 17.8037 42.551 17.8089 42.5191 17.8221C42.4872 17.8353 42.4579 17.8563 42.433 17.8838C42.4082 17.9113 42.3884 17.9446 42.3748 17.9817C42.3613 18.0189 42.3543 18.0589 42.3543 18.0995C42.3543 18.14 42.3613 18.1801 42.3748 18.2172C42.3884 18.2544 42.4082 18.2877 42.433 18.3152C42.4579 18.3427 42.4872 18.3637 42.5191 18.3769C42.551 18.3901 42.5849 18.3952 42.6186 18.3919C42.6798 18.386 42.7369 18.3526 42.7786 18.2984C42.8202 18.2442 42.8433 18.1732 42.8433 18.0995C42.8433 18.0258 42.8202 17.9547 42.7786 17.9006C42.7369 17.8464 42.6798 17.813 42.6186 17.807Z" fill="#455A64"/>
<path d="M41.7264 15.2238C41.4976 15.2238 41.2739 15.1424 41.0836 14.9898C40.8933 14.8372 40.745 14.6204 40.6574 14.3667C40.5698 14.1129 40.5469 13.8338 40.5916 13.5644C40.6362 13.2951 40.7464 13.0477 40.9082 12.8535C41.0701 12.6593 41.2762 12.527 41.5007 12.4735C41.7252 12.4199 41.9578 12.4474 42.1692 12.5525C42.3807 12.6576 42.5614 12.8355 42.6885 13.0639C42.8157 13.2922 42.8835 13.5607 42.8835 13.8353C42.8835 14.0176 42.8536 14.1982 42.7955 14.3667C42.7373 14.5351 42.6521 14.6882 42.5446 14.8171C42.4372 14.9461 42.3096 15.0483 42.1692 15.1181C42.0289 15.1879 41.8784 15.2238 41.7264 15.2238ZM41.7264 12.6808C41.5368 12.6808 41.3514 12.7482 41.1937 12.8747C41.036 13.0011 40.9131 13.1808 40.8405 13.3911C40.7679 13.6014 40.7489 13.8327 40.7859 14.0559C40.8229 14.2792 40.9143 14.4842 41.0484 14.6451C41.1825 14.8061 41.3533 14.9156 41.5394 14.96C41.7254 15.0044 41.9182 14.9817 42.0934 14.8946C42.2686 14.8075 42.4184 14.66 42.5238 14.4708C42.6291 14.2815 42.6854 14.059 42.6854 13.8315C42.6854 13.5263 42.5843 13.2336 42.4045 13.0178C42.2247 12.802 41.9808 12.6808 41.7264 12.6808Z" fill="#455A64"/>
<path d="M41.5959 14.4687C41.5831 14.4687 41.5704 14.4657 41.5586 14.4598C41.5468 14.4538 41.5361 14.4451 41.5272 14.4342L41.1084 13.9355C41.0903 13.9136 41.0801 13.884 41.0801 13.8531C41.0801 13.8222 41.0903 13.7925 41.1084 13.7706C41.1174 13.7596 41.128 13.7508 41.1398 13.7448C41.1516 13.7388 41.1643 13.7358 41.1771 13.7358C41.19 13.7358 41.2026 13.7388 41.2144 13.7448C41.2262 13.7508 41.2369 13.7596 41.2459 13.7706L41.5799 14.1752L42.1712 13.2278C42.1865 13.203 42.2094 13.1864 42.2349 13.1818C42.2603 13.1771 42.2863 13.1847 42.3071 13.2029C42.3174 13.212 42.3261 13.2234 42.3326 13.2366C42.3392 13.2498 42.3435 13.2644 42.3453 13.2796C42.3471 13.2948 42.3463 13.3102 42.343 13.325C42.3398 13.3399 42.3341 13.3538 42.3263 13.3659L41.6694 14.4226C41.6609 14.4361 41.65 14.4472 41.6376 14.4551C41.6252 14.4631 41.6115 14.4677 41.5975 14.4687H41.5959Z" fill="#455A64"/>
<path d="M41.9559 18.2157H41.3326C41.3189 18.2178 41.3049 18.2164 41.2917 18.2115C41.2784 18.2067 41.2662 18.1985 41.2558 18.1875C41.2454 18.1765 41.237 18.163 41.2313 18.1479C41.2256 18.1327 41.2227 18.1163 41.2227 18.0997C41.2227 18.083 41.2256 18.0666 41.2313 18.0514C41.237 18.0363 41.2454 18.0228 41.2558 18.0118C41.2662 18.0008 41.2784 17.9926 41.2917 17.9878C41.3049 17.9829 41.3189 17.9815 41.3326 17.9836H41.9559C41.9696 17.9815 41.9836 17.9829 41.9969 17.9878C42.0101 17.9926 42.0223 18.0008 42.0327 18.0118C42.0432 18.0228 42.0515 18.0363 42.0572 18.0514C42.0629 18.0666 42.0659 18.083 42.0659 18.0997C42.0659 18.1163 42.0629 18.1327 42.0572 18.1479C42.0515 18.163 42.0432 18.1765 42.0327 18.1875C42.0223 18.1985 42.0101 18.2067 41.9969 18.2115C41.9836 18.2164 41.9696 18.2178 41.9559 18.2157Z" fill="#455A64"/>
</svg>
