<svg width="74" height="74" viewBox="0 0 74 74" fill="none" xmlns="http://www.w3.org/2000/svg">
<circle cx="37" cy="37" r="36" stroke="#01AE9A"/>
<path d="M38.4293 16.9289C38.4289 16.9231 38.4289 16.9174 38.4293 16.9117V16.8632C38.4293 16.8178 38.4293 16.7552 38.4293 16.6744C38.4293 16.5098 38.4293 16.2705 38.4233 15.9726L38.4343 15.9837L34.8636 15.9918C34.8716 15.9837 34.8447 16.01 34.8816 15.9726V16.4573C34.8816 16.6168 34.8816 16.7734 34.8816 16.9268L34.8646 16.9087L37.4068 16.9178L38.1562 16.9228H38.3556H38.4273C38.4273 16.9228 38.4223 16.9228 38.4114 16.9228H38.3605H38.1612L37.4148 16.9279L34.8636 16.947H34.8457V16.4593C34.8457 16.3795 34.8457 16.2988 34.8457 16.218V15.9776L34.8646 15.9595L38.4313 15.9665H38.4423V15.9776C38.4423 16.2806 38.4423 16.5199 38.4363 16.6845C38.4363 16.7633 38.4363 16.8259 38.4363 16.8703V16.9167C38.4303 16.9248 38.4303 16.9299 38.4293 16.9289Z" fill="#E0E0E0"/>
<path d="M38.9124 15.9773C38.9124 15.9773 38.9124 15.9713 38.9124 15.9592C38.9124 15.947 38.9124 15.9289 38.9124 15.9087C38.9124 15.8622 38.9124 15.7976 38.9124 15.7168C38.9124 15.5492 38.9124 15.3129 38.9054 15.0211L38.9184 15.0352L36.7758 15.0403C36.7598 15.0564 36.7977 15.017 36.7937 15.0221V15.5128C36.7937 15.6734 36.7937 15.8279 36.7937 15.9763L36.7768 15.9592L38.3095 15.9672H38.7559H38.8765H38.9194C38.9064 15.9687 38.8934 15.9687 38.8805 15.9672H38.7639H38.3214L36.7768 15.9753H36.7568V15.018C36.7568 15.018 36.7907 14.9827 36.7748 14.9989L38.9174 15.0039H38.9313V15.017C38.9313 15.3119 38.9253 15.5512 38.9243 15.7239C38.9243 15.8037 38.9243 15.8663 38.9243 15.9127C38.9219 15.9345 38.9179 15.9561 38.9124 15.9773Z" fill="#E0E0E0"/>
<path d="M37.7936 47.7257C37.7936 47.7257 37.7936 47.7196 37.7936 47.7085C37.7936 47.6974 37.7936 47.6793 37.7936 47.6591C37.7936 47.6146 37.7936 47.552 37.7936 47.4712C37.7936 47.3056 37.7936 47.0673 37.7866 46.7694L37.7985 46.7805L34.2309 46.7876L34.2488 46.7694V47.7237L34.2309 47.7055L36.7731 47.7136L37.5235 47.7186H37.7228H37.7278H37.5285L36.7821 47.7237L34.2279 47.7318H34.21V46.7755L34.2279 46.7573L37.7955 46.7644H37.8065V46.7755C37.8065 47.0784 37.8065 47.3167 37.8005 47.4823C37.8005 47.5621 37.8005 47.6237 37.8005 47.6681C37.8005 47.6883 37.8005 47.7035 37.8005 47.7156C37.8005 47.7277 37.7936 47.7257 37.7936 47.7257Z" fill="#E0E0E0"/>
<path d="M38.2776 46.7697C38.2776 46.7697 38.2776 46.7636 38.2776 46.7515C38.2776 46.7394 38.2776 46.7212 38.2776 46.701C38.2776 46.6535 38.2776 46.5899 38.2776 46.5091C38.2776 46.3415 38.2776 46.1052 38.2706 45.8134L38.2836 45.8265H36.14C36.124 45.8437 36.1619 45.8043 36.1579 45.8084V46.7626L36.14 46.7454L37.6737 46.7535H38.1201H38.2407H38.2836C38.2707 46.7552 38.2576 46.7552 38.2447 46.7535H38.1281H37.6846L36.14 46.7616H36.123V46.7434C36.123 46.595 36.123 46.4405 36.123 46.2799V45.7892L36.141 45.771H38.2846H38.2975V45.7841C38.2975 46.079 38.2975 46.3183 38.2905 46.491C38.2905 46.5707 38.2905 46.6333 38.2905 46.6798C38.289 46.7101 38.2847 46.7402 38.2776 46.7697Z" fill="#E0E0E0"/>
<path d="M22.0718 40.4835C22.0718 40.4835 22.0718 40.4775 22.0718 40.4664C22.0718 40.4553 22.0718 40.4371 22.0718 40.4169C22.0718 40.3724 22.0718 40.3098 22.0718 40.2291C22.0718 40.0645 22.0718 39.8251 22.0649 39.5273L22.0758 39.5384L18.5092 39.5454C18.5171 39.5374 18.4912 39.5646 18.5271 39.5273V40.4815L18.5092 40.4633L21.0514 40.4714L21.8018 40.4775H22.0011H22.0728C22.0728 40.4775 22.0728 40.4775 22.0569 40.4775H22.0081H21.8087L21.0623 40.4825L18.5082 40.4906H18.4902V39.5182L18.5082 39.5L22.0748 39.5071H22.0868V39.5182C22.0868 39.8211 22.0818 40.0604 22.0798 40.225C22.0798 40.3038 22.0798 40.3664 22.0798 40.4108C22.0798 40.43 22.0798 40.4452 22.0798 40.4573C22.0798 40.4694 22.0728 40.4845 22.0718 40.4835Z" fill="#E0E0E0"/>
<path d="M22.557 39.5275C22.557 39.5275 22.557 39.5215 22.557 39.5093C22.557 39.4972 22.557 39.4791 22.557 39.4589C22.557 39.4114 22.557 39.3478 22.557 39.267C22.557 39.0994 22.557 38.8631 22.55 38.5713L22.563 38.5844L20.4144 38.5904L20.4323 38.5713V39.5255L20.4144 39.5083L21.9481 39.5164L22.3945 39.5215H22.5151H22.558C22.5451 39.5231 22.532 39.5231 22.5191 39.5215H22.4025H21.9591L20.4144 39.5457H20.3975V39.5275C20.3975 39.3791 20.3975 39.2246 20.3975 39.064V38.5733C20.3975 38.5733 20.4323 38.5389 20.4154 38.5551L22.559 38.5602H22.5719V38.5733C22.5719 38.8681 22.5719 39.1075 22.565 39.2801C22.565 39.3599 22.565 39.4225 22.565 39.469C22.5635 39.4886 22.5608 39.5082 22.557 39.5275Z" fill="#E0E0E0"/>
<path d="M18.7945 32.6287C18.7941 32.623 18.7941 32.6173 18.7945 32.6115V32.5631C18.7945 32.5176 18.7945 32.455 18.7945 32.3742C18.7945 32.2096 18.7945 31.9703 18.7885 31.6724L18.7995 31.6846L15.2318 31.6916L15.2497 31.6735V32.6277L15.2318 32.6105L17.774 32.6186L18.5234 32.6237H18.7227H18.7945C18.7945 32.6237 18.7945 32.6237 18.7785 32.6237H18.7277H18.5284L17.782 32.6287L15.2318 32.6469H15.2139V32.1592C15.2139 32.0794 15.2139 31.9986 15.2139 31.9178V31.6745L15.2328 31.6553L18.7995 31.6623H18.8104V31.6735C18.8104 31.9764 18.8104 32.2157 18.8044 32.3803C18.8044 32.4591 18.8044 32.5217 18.8044 32.5661V32.6125C18.7955 32.6247 18.7955 32.6297 18.7945 32.6287Z" fill="#E0E0E0"/>
<path d="M56.1601 12.9278C56.1603 12.9666 56.1491 13.0046 56.1279 13.037C56.1068 13.0694 56.0766 13.0946 56.0412 13.1096C56.0058 13.1246 55.9669 13.1285 55.9293 13.121C55.8917 13.1135 55.8572 13.0948 55.8301 13.0673C55.803 13.0399 55.7845 13.0049 55.7771 12.9668C55.7697 12.9287 55.7736 12.8892 55.7883 12.8534C55.8031 12.8175 55.828 12.787 55.86 12.7655C55.8919 12.7441 55.9294 12.7327 55.9678 12.7329C56.0188 12.7329 56.0677 12.7534 56.1038 12.79C56.1398 12.8265 56.1601 12.8761 56.1601 12.9278Z" fill="#EBEBEB"/>
<path d="M59.1776 59.1152H16.5352V60.1705H59.1776" fill="#F5F5F5"/>
<path d="M59.1784 60.1706H58.9591H58.3174H55.8449L46.7354 60.1767L16.54 60.1827H16.4951V59.0952H16.54L46.7354 59.1013L55.8429 59.1073H58.3144H58.9561H59.1754C59.1754 59.1073 59.1016 59.1073 58.9561 59.1073H58.3144H55.8429L46.7354 59.1134L16.54 59.1194L16.5848 59.0993V60.1545L16.54 60.1353L46.7354 60.1403L55.8449 60.1464H58.3174H58.9591C59.1016 60.1686 59.1784 60.1706 59.1784 60.1706Z" fill="#263238"/>
<path d="M24.9186 60.2122C24.893 59.8535 24.893 59.4935 24.9186 59.1348C24.9442 59.4935 24.9442 59.8535 24.9186 60.2122Z" fill="#263238"/>
<path d="M29.3454 60.2122C29.3198 59.8535 29.3198 59.4935 29.3454 59.1348C29.3709 59.4935 29.3709 59.8535 29.3454 60.2122Z" fill="#263238"/>
<path d="M33.7712 60.2122C33.7442 59.8536 33.7442 59.4934 33.7712 59.1348C33.7968 59.4935 33.7968 59.8535 33.7712 60.2122Z" fill="#263238"/>
<path d="M38.1969 60.2122C38.1713 59.8535 38.1713 59.4935 38.1969 59.1348C38.2225 59.4935 38.2225 59.8535 38.1969 60.2122Z" fill="#263238"/>
<path d="M42.5065 60.2122C42.4796 59.8536 42.4796 59.4934 42.5065 59.1348C42.5321 59.4935 42.5321 59.8535 42.5065 60.2122Z" fill="#263238"/>
<path d="M46.8141 60.2122C46.7885 59.8535 46.7885 59.4935 46.8141 59.1348C46.8397 59.4935 46.8397 59.8535 46.8141 60.2122Z" fill="#263238"/>
<path d="M51.1227 60.2122C51.0971 59.8535 51.0971 59.4935 51.1227 59.1348C51.1483 59.4935 51.1483 59.8535 51.1227 60.2122Z" fill="#263238"/>
<path d="M55.6393 60.2381C55.6137 59.8794 55.6137 59.5193 55.6393 59.1606C55.6649 59.5193 55.6649 59.8794 55.6393 60.2381Z" fill="#263238"/>
<path d="M20.8795 60.2122C20.854 59.8535 20.854 59.4935 20.8795 59.1348C20.9051 59.4935 20.9051 59.8535 20.8795 60.2122Z" fill="#263238"/>
<path d="M59.195 60.2435C59.1694 59.8845 59.1694 59.5241 59.195 59.165C59.2205 59.5241 59.2205 59.8845 59.195 60.2435Z" fill="#263238"/>
<path d="M41.9333 55.5488L41.8934 57.8249C41.8934 57.8249 44.1636 58.6327 44.1965 59.0518L39.8386 59.1325L39.7568 55.5832L41.9333 55.5488Z" fill="#01AE9A"/>
<path d="M40.5433 57.6584C40.5015 57.6719 40.4661 57.7007 40.444 57.7391C40.4219 57.7775 40.4147 57.8228 40.4237 57.8664C40.4354 57.9086 40.4625 57.9447 40.4995 57.9674C40.5365 57.99 40.5807 57.9976 40.623 57.9886C40.6672 57.9739 40.7044 57.9432 40.7276 57.9024C40.7508 57.8615 40.7582 57.8135 40.7486 57.7674C40.731 57.7245 40.6978 57.69 40.6559 57.6712C40.614 57.6524 40.5665 57.6507 40.5233 57.6664" fill="#E0E0E0"/>
<path d="M39.8379 59.1324L39.8439 58.7739L44.0204 58.8305C44.0204 58.8305 44.2197 58.9123 44.1958 59.0516L39.8379 59.1324Z" fill="#263238"/>
<path d="M41.9646 57.8013C41.9646 57.8225 41.858 57.8346 41.7543 57.9023C41.6507 57.9699 41.5969 58.0659 41.5769 58.0578C41.557 58.0497 41.5869 57.9235 41.7135 57.8397C41.84 57.7559 41.9686 57.7821 41.9646 57.8013Z" fill="#263238"/>
<path d="M42.425 57.9846C42.43 58.0058 42.3383 58.0442 42.2685 58.136C42.1988 58.2279 42.1778 58.3259 42.1569 58.3249C42.136 58.3239 42.12 58.2027 42.2097 58.0896C42.2994 57.9765 42.424 57.9644 42.425 57.9846Z" fill="#263238"/>
<path d="M42.6947 58.5337C42.6748 58.5387 42.6439 58.4327 42.6947 58.3125C42.7455 58.1924 42.8462 58.1449 42.8551 58.1621C42.8641 58.1793 42.8043 58.2449 42.7625 58.3428C42.7206 58.4408 42.7156 58.5317 42.6947 58.5337Z" fill="#263238"/>
<path d="M41.9162 57.2773C41.9073 57.2974 41.8096 57.2692 41.689 57.2773C41.5684 57.2853 41.4758 57.3277 41.4648 57.3096C41.4538 57.2914 41.5415 57.2086 41.684 57.2025C41.8265 57.1965 41.9262 57.2641 41.9162 57.2773Z" fill="#263238"/>
<path d="M39.4003 54.335L37.8407 55.9738C37.8407 55.9738 38.9608 58.1297 38.7017 58.4609L35.4619 55.5124L37.7879 52.8577L39.4003 54.335Z" fill="#01AE9A"/>
<path d="M36.9634 54.9195C36.9236 54.9005 36.8783 54.8972 36.8361 54.91C36.794 54.9229 36.7581 54.9511 36.7352 54.9892C36.7155 55.0288 36.7114 55.0746 36.7238 55.1171C36.7363 55.1597 36.7642 55.1959 36.802 55.2184C36.8442 55.238 36.892 55.2411 36.9364 55.2271C36.9807 55.2131 37.0184 55.183 37.0421 55.1426C37.0585 55.0987 37.0573 55.05 37.0386 55.0069C37.02 54.9639 36.9855 54.93 36.9425 54.9124" fill="#E0E0E0"/>
<path d="M35.4619 55.5124L35.7071 55.2539L38.7266 58.1823C38.7266 58.1823 38.8143 58.3772 38.7067 58.465L35.4619 55.5124Z" fill="#263238"/>
<path d="M37.9082 56.005C37.8932 56.0202 37.8085 55.9555 37.6839 55.9364C37.5594 55.9172 37.4587 55.9465 37.4497 55.9273C37.4408 55.9081 37.5494 55.8364 37.6959 55.8626C37.8424 55.8889 37.9241 55.9929 37.9082 56.005Z" fill="#263238"/>
<path d="M38.1209 56.4567C38.1109 56.4759 38.0212 56.4405 37.9046 56.4567C37.788 56.4728 37.7113 56.5334 37.6963 56.5183C37.6814 56.5031 37.7511 56.4031 37.8956 56.3819C38.0401 56.3607 38.1348 56.4415 38.1209 56.4567Z" fill="#263238"/>
<path d="M37.9528 57.0453C37.9349 57.0352 37.9837 56.9352 38.1023 56.8848C38.2209 56.8343 38.3265 56.8656 38.3215 56.8848C38.3166 56.9039 38.2289 56.909 38.1322 56.9524C38.0355 56.9958 37.9668 57.0584 37.9528 57.0453Z" fill="#263238"/>
<path d="M38.2221 55.591C38.2021 55.6001 38.1493 55.5113 38.0546 55.4365C37.96 55.3618 37.8643 55.3265 37.8683 55.3053C37.8723 55.2841 37.9899 55.2871 38.1005 55.378C38.2111 55.4689 38.241 55.586 38.2221 55.591Z" fill="#263238"/>
<path d="M47.9935 30.8779L46.0771 32.1604L46.1051 32.6652L46.6033 33.7346C46.6033 33.7346 46.8345 33.9568 47.5132 33.26C48.1918 32.5633 49.0499 31.1788 49.0499 31.1788L47.9935 30.8779Z" fill="#BA7F72"/>
<path d="M51.2205 28.2061C51.2094 28.181 51.1922 28.1591 51.1703 28.1427C51.1485 28.1262 51.1229 28.1157 51.0959 28.1122L50.1572 27.985C50.1165 27.9801 50.0752 27.9838 50.0359 27.9958C49.9967 28.0078 49.9603 28.0278 49.929 28.0547L47.2383 30.3943L47.3599 30.5145L48.3684 30.7599L51.2374 28.2485L51.2205 28.2061Z" fill="#263238"/>
<path d="M50.4743 28.3978C50.4854 28.408 50.4998 28.4136 50.5147 28.4136C50.5296 28.4136 50.544 28.408 50.5551 28.3978C50.5617 28.3947 50.5677 28.3904 50.5727 28.3849C50.5777 28.3795 50.5816 28.3731 50.5841 28.3661C50.5866 28.3592 50.5877 28.3518 50.5873 28.3444C50.587 28.337 50.5851 28.3297 50.582 28.323C50.5719 28.312 50.5579 28.3053 50.5431 28.3043C50.5282 28.3034 50.5136 28.3083 50.5022 28.318C50.495 28.3211 50.4885 28.3257 50.4832 28.3315C50.4778 28.3373 50.4737 28.3442 50.471 28.3517C50.4684 28.3592 50.4674 28.3671 50.4679 28.3751C50.4685 28.383 50.4707 28.3907 50.4743 28.3978Z" fill="white"/>
<path d="M51.2387 28.248C51.177 28.2486 51.1153 28.2439 51.0543 28.2339L50.5561 28.1743L50.2113 28.1309C50.1825 28.1256 50.153 28.1267 50.1248 28.1342C50.0965 28.1417 50.0703 28.1554 50.0478 28.1743L49.8944 28.3086L49.2077 28.9084C48.7184 29.3325 48.274 29.7163 47.9511 29.9879L47.5654 30.311C47.5197 30.3519 47.471 30.3894 47.4199 30.4231C47.4599 30.3765 47.504 30.3336 47.5515 30.2949L47.9242 29.9586C48.2411 29.6769 48.6816 29.2901 49.1699 28.866L49.8605 28.2703L50.0159 28.136C50.0436 28.1135 50.0757 28.0973 50.1101 28.0884C50.1445 28.0795 50.1803 28.0782 50.2152 28.0845L50.5601 28.136L51.0583 28.2127C51.1192 28.2204 51.1794 28.2322 51.2387 28.248Z" fill="#455A64"/>
<path d="M50.2619 28.7372C50.2619 28.7372 50.1772 28.6958 50.0625 28.9311C49.9479 29.1663 49.5862 29.8399 49.5862 29.8399L49.1876 29.4521L48.5757 29.3622C48.5757 29.3622 48.4133 29.446 48.49 29.5379C48.5667 29.6298 48.9205 29.8045 48.9205 29.8045L49.0849 30.2832L48.4013 29.6773C48.4013 29.6773 48.1183 29.6722 48.1512 29.857C48.1841 30.0418 48.5747 30.7032 48.5747 30.7032L48.187 30.5598L47.7964 30.1367C47.7964 30.1367 47.6499 30.1024 47.6698 30.2428C47.6898 30.3831 48.0535 30.9718 48.0535 30.9718L48.5667 31.4323C48.5667 31.4323 48.8976 31.4989 48.9554 31.4111C48.9962 31.3404 49.0296 31.2656 49.055 31.1879C49.055 31.1879 49.2404 31.1879 49.2962 31.1152C49.3344 31.0492 49.3588 30.976 49.368 30.9001C49.368 30.9001 49.6251 31.0243 49.7008 30.882C49.7772 30.6987 49.823 30.5038 49.8363 30.3054C49.8363 30.1802 50.2858 29.13 50.2838 29.0936C50.2818 29.0573 50.4512 28.714 50.2619 28.7372Z" fill="#BA7F72"/>
<path d="M48.9701 31.4117C48.9154 31.428 48.8574 31.4298 48.8017 31.4168C48.6659 31.3988 48.5347 31.3549 48.4151 31.2875C48.2952 31.221 48.1892 31.1315 48.1031 31.024C48.0374 30.9401 48.0115 30.8806 48.0174 30.8765C48.0234 30.8725 48.1759 31.0785 48.446 31.232C48.716 31.3855 48.9721 31.3925 48.9701 31.4117Z" fill="#8B5D54"/>
<path d="M48.8889 31.1564C48.8749 31.1675 48.7892 31.0817 48.6995 30.9544C48.6099 30.8272 48.564 30.7141 48.579 30.706C48.5939 30.698 48.6657 30.7949 48.7514 30.9181C48.8371 31.0413 48.9018 31.1453 48.8889 31.1564Z" fill="#8B5D54"/>
<path d="M49.345 30.7262C49.3321 30.7374 49.2454 30.6535 49.1646 30.5243C49.0839 30.395 49.053 30.2779 49.065 30.2708C49.0769 30.2638 49.1397 30.3718 49.2145 30.491C49.2892 30.6101 49.359 30.7141 49.345 30.7262Z" fill="#8B5D54"/>
<path d="M49.7887 30.4013C49.7708 30.4013 49.7419 30.274 49.6821 30.1246C49.6223 29.9752 49.5545 29.861 49.5695 29.8499C49.5844 29.8388 49.6781 29.9418 49.7409 30.1004C49.7879 30.193 49.8046 30.2984 49.7887 30.4013Z" fill="#8B5D54"/>
<path d="M42.705 20.4141C42.2934 20.6029 41.6546 20.8917 41.2849 21.1542C41.1992 21.2148 41.1035 21.3178 41.1534 21.4107C41.2032 21.5036 41.3776 21.541 41.4693 21.5581C41.7852 21.6167 42.5336 21.6056 43.0249 21.3663L42.705 20.4141Z" fill="#455A64"/>
<path d="M42.9845 22.7782C42.8329 22.3271 42.7202 21.8636 42.6477 21.3928C42.5756 20.9199 42.6205 20.4362 42.7782 19.9852C42.8041 19.9175 43.0224 19.4671 43.0931 19.4803C43.143 19.4863 43.0074 19.9074 43.0323 19.9528C43.2715 20.381 43.3313 20.894 43.2855 21.3837C43.2373 21.86 43.137 22.3294 42.9865 22.7833" fill="#263238"/>
<path d="M45.1565 28.3065C44.4281 28.2813 42.8954 26.1406 42.9053 25.4024L42.9621 20.9594C42.9402 19.7658 43.6069 18.757 44.7858 18.7682L44.8944 18.7752C45.4227 18.8112 45.9181 19.0474 46.2823 19.4368C46.6464 19.8262 46.8526 20.3402 46.8596 20.8766C46.8736 21.9116 46.8756 23.0547 46.8317 23.603C46.742 24.745 45.602 24.846 45.602 24.846C45.602 24.846 45.592 25.1116 45.5841 25.4519C45.5661 26.2062 45.8571 28.3278 45.1117 28.3015L45.1565 28.3065Z" fill="#BA7F72"/>
<path d="M45.6011 24.8513C45.08 24.8145 44.5802 24.627 44.1611 24.311C44.1611 24.311 44.4601 25.1946 45.5902 25.1683L45.6011 24.8513Z" fill="#8B5D54"/>
<path d="M46.4772 21.8148C46.4749 21.8575 46.4561 21.8976 46.425 21.9265C46.3939 21.9553 46.3529 21.9707 46.3108 21.9693C46.2902 21.9695 46.2698 21.9655 46.2507 21.9575C46.2317 21.9496 46.2144 21.938 46.1998 21.9232C46.1853 21.9085 46.1738 21.8909 46.1659 21.8716C46.1581 21.8523 46.1542 21.8317 46.1543 21.8108C46.1569 21.7682 46.1757 21.7283 46.2067 21.6995C46.2378 21.6707 46.2786 21.6552 46.3207 21.6563C46.3413 21.656 46.3618 21.66 46.3809 21.6678C46.4 21.6757 46.4174 21.6874 46.432 21.7021C46.4465 21.7169 46.4581 21.7345 46.4658 21.7539C46.4736 21.7732 46.4775 21.7939 46.4772 21.8148Z" fill="#263238"/>
<path d="M46.5861 21.3666C46.5642 21.3858 46.4486 21.2868 46.2752 21.2747C46.1018 21.2626 45.9692 21.3424 45.9513 21.3201C45.9333 21.2979 45.9652 21.2727 46.024 21.2353C46.1027 21.188 46.1939 21.1665 46.2851 21.1737C46.3753 21.1804 46.4611 21.2157 46.5303 21.2747C46.5811 21.3181 46.596 21.3575 46.5861 21.3666Z" fill="#263238"/>
<path d="M44.8912 21.7796C44.8891 21.8216 44.8712 21.8612 44.8411 21.8901C44.8111 21.9191 44.7712 21.9352 44.7297 21.9351C44.7091 21.9354 44.6886 21.9315 44.6695 21.9236C44.6504 21.9157 44.6331 21.9041 44.6185 21.8893C44.6039 21.8745 44.5924 21.8569 44.5846 21.8376C44.5769 21.8182 44.573 21.7975 44.5733 21.7766C44.5761 21.7342 44.595 21.6945 44.626 21.6659C44.657 21.6373 44.6977 21.622 44.7397 21.6231C44.7801 21.6239 44.8187 21.6407 44.847 21.67C44.8753 21.6993 44.8912 21.7386 44.8912 21.7796Z" fill="#263238"/>
<path d="M44.8836 21.2907C44.8616 21.3109 44.746 21.211 44.5726 21.1999C44.3992 21.1888 44.2657 21.2675 44.2488 21.2453C44.2318 21.2231 44.2627 21.1978 44.3215 21.1605C44.3998 21.113 44.4906 21.0911 44.5816 21.0979C44.6722 21.1039 44.7585 21.1393 44.8278 21.1989C44.8776 21.2423 44.8935 21.2827 44.8836 21.2907Z" fill="#263238"/>
<path d="M45.415 22.6834C45.5084 22.6608 45.6041 22.65 45.7001 22.6511C45.7449 22.6511 45.7868 22.644 45.7997 22.6137C45.8061 22.5675 45.7988 22.5204 45.7788 22.4784C45.7439 22.3674 45.708 22.2502 45.6702 22.128C45.5207 21.6292 45.416 21.2192 45.436 21.2192C45.4559 21.2192 45.5924 21.6131 45.7429 22.1119C45.7778 22.2351 45.8127 22.3522 45.8426 22.4643C45.8664 22.5205 45.8703 22.5833 45.8535 22.642C45.8459 22.6574 45.8349 22.6708 45.8214 22.6812C45.808 22.6917 45.7924 22.699 45.7758 22.7026C45.7506 22.7054 45.7252 22.7054 45.7001 22.7026C45.6046 22.7088 45.5088 22.7024 45.415 22.6834Z" fill="#263238"/>
<path d="M44.9116 20.6333C44.8847 20.6767 44.7192 20.6181 44.513 20.5999C44.3067 20.5818 44.1363 20.5999 44.1143 20.5535C44.1064 20.5313 44.1442 20.4929 44.214 20.4616C44.314 20.4224 44.4216 20.4074 44.5284 20.4177C44.6351 20.4281 44.738 20.4635 44.8289 20.5212C44.8936 20.5676 44.9285 20.6131 44.9116 20.6333Z" fill="#263238"/>
<path d="M46.5719 20.9524C46.534 20.9908 46.3945 20.9413 46.2251 20.9302C46.0557 20.9191 45.9092 20.9413 45.8783 20.8969C45.8654 20.8767 45.8903 20.8373 45.955 20.803C46.0438 20.7605 46.1423 20.7431 46.2401 20.7525C46.338 20.7581 46.4324 20.7909 46.5131 20.8474C46.5709 20.8918 46.5889 20.9343 46.5719 20.9524Z" fill="#263238"/>
<path d="M42.9979 21.8139C42.979 21.8038 42.2375 21.5281 42.2106 22.3117C42.1837 23.0953 42.965 22.961 42.967 22.9388C42.969 22.9166 42.9979 21.8139 42.9979 21.8139Z" fill="#BA7F72"/>
<path d="M42.7411 22.6337C42.7411 22.6337 42.7271 22.6428 42.7042 22.6519C42.6722 22.6649 42.6365 22.6649 42.6046 22.6519C42.5238 22.6186 42.4591 22.4842 42.4601 22.3429C42.4609 22.2757 42.4762 22.2095 42.5049 22.149C42.5131 22.1249 42.5268 22.1031 42.545 22.0855C42.5632 22.068 42.5854 22.0551 42.6095 22.048C42.6253 22.0445 42.6417 22.0466 42.656 22.054C42.6704 22.0614 42.6818 22.0735 42.6883 22.0884C42.6982 22.1106 42.6883 22.1258 42.6962 22.1278C42.7042 22.1298 42.7132 22.1147 42.7082 22.0824C42.7042 22.0628 42.6941 22.0451 42.6793 22.0319C42.6584 22.0153 42.632 22.0074 42.6056 22.0097C42.5737 22.0149 42.5437 22.0284 42.5184 22.0487C42.4931 22.069 42.4734 22.0955 42.4611 22.1258C42.4259 22.1927 42.4071 22.2671 42.4062 22.3429C42.4063 22.5004 42.481 22.6519 42.5916 22.6882C42.6121 22.695 42.6338 22.697 42.6552 22.6942C42.6766 22.6914 42.697 22.6839 42.7152 22.6721C42.7361 22.6519 42.7431 22.6347 42.7411 22.6337Z" fill="#8B5D54"/>
<path d="M46.3932 19.5661C46.5197 19.4994 46.155 19.0794 45.8521 18.9299C45.3926 18.7037 44.6861 18.5533 44.2576 18.6644C43.7374 18.7987 43.3019 19.0481 43.0308 19.5166C42.7687 19.9944 42.6367 20.5342 42.6481 21.0808C42.6383 21.2475 42.6727 21.4138 42.7478 21.5624C42.8475 21.7381 43.0557 21.8532 43.0408 22.0915C43.0364 22.1347 43.0407 22.1784 43.0534 22.2198C43.0661 22.2613 43.0869 22.2997 43.1145 22.3329C43.2521 22.4894 43.4284 22.3511 43.5131 22.2087C43.6905 21.9057 43.7194 21.5412 43.7434 21.1898C43.7737 20.9411 43.764 20.6891 43.7145 20.4436C43.6796 20.3123 43.6218 20.1871 43.5949 20.0538C43.5774 19.9879 43.5741 19.919 43.5853 19.8518C43.5965 19.7845 43.6218 19.7205 43.6596 19.664C43.6793 19.6412 43.701 19.6203 43.7244 19.6014C43.8347 19.5088 43.9673 19.4477 44.1087 19.4242C44.25 19.4008 44.395 19.416 44.5286 19.4681C44.9601 19.6358 45.6976 19.8892 45.8949 19.7448C46.1799 19.5368 46.2507 19.3975 46.2507 19.3975L46.3932 19.5661Z" fill="#263238"/>
<path d="M44.9355 22.7652C44.9255 22.7652 44.9175 22.8097 44.9355 22.8773C44.9544 22.9678 45.0012 23.0498 45.069 23.1116C45.1328 23.1703 45.2068 23.2165 45.2873 23.2479C45.348 23.2732 45.3869 23.2802 45.3939 23.2701C45.4009 23.26 45.367 23.2338 45.3142 23.1974C45.2461 23.1534 45.1815 23.1041 45.1208 23.05C44.9823 22.9268 44.9614 22.7602 44.9355 22.7652Z" fill="#263238"/>
<path d="M46.1005 18.9059C45.8102 18.6355 45.4518 18.4518 45.0648 18.3751C44.6778 18.2985 44.2775 18.3319 43.9081 18.4717C43.2225 18.7463 42.5727 19.4269 42.502 20.1671L42.5209 20.7144L42.6205 20.6609C43.2673 20.4216 43.9838 20.1418 44.4024 20.055C45.2724 19.8823 46.7552 20.1701 46.7552 20.1701C46.6773 19.6882 46.4477 19.2447 46.1005 18.9059Z" fill="#455A64"/>
<path d="M46.0396 19.5876C45.9902 19.517 45.9167 19.4673 45.8333 19.4483C45.543 19.3712 45.2391 19.3636 44.9454 19.4261C44.8703 19.4338 44.7978 19.4583 44.7331 19.4978C44.7004 19.5186 44.675 19.5493 44.6603 19.5855C44.6457 19.6217 44.6426 19.6616 44.6514 19.6997C44.6813 19.8007 44.8119 19.833 44.9165 19.8219C45.0276 19.8255 45.1385 19.8098 45.2444 19.7755C45.4527 19.7465 45.6644 19.754 45.8702 19.7977C45.9025 19.8074 45.9365 19.8098 45.9698 19.8047C45.9901 19.797 46.0083 19.7847 46.0232 19.7689C46.0382 19.753 46.0494 19.734 46.0561 19.7131C46.0628 19.6923 46.0648 19.6702 46.0619 19.6485C46.0591 19.6268 46.0514 19.606 46.0396 19.5876Z" fill="#263238"/>
<path d="M45.141 19.6528C45.2142 19.6697 45.2819 19.7049 45.3382 19.7551C45.3945 19.8053 45.4375 19.869 45.4632 19.9404C45.489 20.0118 45.4967 20.0885 45.4857 20.1637C45.4747 20.2389 45.4453 20.3101 45.4001 20.3708C45.4562 20.3541 45.5078 20.3248 45.5511 20.2852C45.5944 20.2455 45.6283 20.1964 45.6503 20.1415C45.6831 20.2241 45.6831 20.3164 45.6503 20.399C45.7521 20.3472 45.8371 20.267 45.8954 20.1678C45.9191 20.2626 45.9225 20.3614 45.9054 20.4576C46.0198 20.388 46.1025 20.2755 46.1356 20.1446C46.1669 20.014 46.1631 19.8773 46.1246 19.7487C46.1044 19.6501 46.0477 19.563 45.9662 19.5054C45.8828 19.4677 45.7906 19.4544 45.7001 19.467C45.5048 19.4701 45.3104 19.4941 45.1201 19.5387" fill="#263238"/>
<path d="M46.7743 19.9529C46.7183 19.9484 46.6627 19.9399 46.6079 19.9277C46.5551 19.9176 46.4893 19.9055 46.4086 19.8954C46.3279 19.8853 46.2462 19.8691 46.1505 19.861C45.9258 19.8342 45.7 19.819 45.4738 19.8156C45.1969 19.8121 44.9201 19.8249 44.6447 19.854C44.3698 19.8864 44.097 19.9346 43.8275 19.9984C43.6074 20.0511 43.3902 20.1155 43.1768 20.1912C43.0841 20.2205 43.0034 20.2549 42.9316 20.2821C42.8599 20.3094 42.7981 20.3346 42.7493 20.3558C42.6982 20.38 42.6456 20.4006 42.5918 20.4174C42.6385 20.3858 42.6882 20.359 42.7403 20.3377C42.7891 20.3124 42.8489 20.2841 42.9207 20.2549C42.9924 20.2256 43.0721 20.1882 43.1638 20.1539C43.3771 20.0741 43.5947 20.0067 43.8156 19.9519C44.358 19.8156 44.9161 19.7538 45.4748 19.7681C45.7022 19.7742 45.9291 19.7931 46.1545 19.8247C46.2541 19.8358 46.3378 19.854 46.4136 19.8681C46.4893 19.8822 46.5541 19.8954 46.6069 19.9085C46.6639 19.9184 46.7199 19.9333 46.7743 19.9529Z" fill="#263238"/>
<path d="M44.3986 18.3867C44.4036 18.3948 44.3119 18.4524 44.1843 18.5685C43.8486 18.8758 43.6285 19.2915 43.5615 19.7449C43.5366 19.9175 43.5395 20.0276 43.5306 20.0276C43.5216 20.0276 43.5236 20.0003 43.5196 19.9509C43.5156 19.8808 43.5176 19.8105 43.5256 19.7408C43.5728 19.2718 43.8009 18.8406 44.1604 18.5412C44.2131 18.4956 44.2698 18.4551 44.3298 18.42C44.3727 18.3948 44.3966 18.3837 44.3986 18.3867Z" fill="#263238"/>
<path d="M45.5324 19.4652C45.5077 19.3991 45.4868 19.3316 45.4696 19.2632C45.4163 19.1029 45.3375 18.9525 45.2364 18.8179C45.1348 18.6839 45.0127 18.5673 44.8746 18.4725C44.8135 18.438 44.7546 18.3996 44.6982 18.3574C44.7694 18.372 44.8371 18.4005 44.8976 18.4412C45.1977 18.6191 45.417 18.9092 45.5084 19.2491C45.5298 19.3189 45.5379 19.3922 45.5324 19.4652Z" fill="#263238"/>
<g opacity="0.3">
<path d="M42.6364 20.6577C42.1481 20.8789 41.6229 21.0869 41.2412 21.4878C41.3065 21.519 41.3755 21.5414 41.4465 21.5544C41.6488 21.5926 41.855 21.6055 42.0604 21.5928C42.2652 21.5864 42.4683 21.5524 42.6643 21.4918L42.6364 20.6577Z" fill="black"/>
</g>
<path d="M39.3254 36.384L38.8271 39.5366L39.1929 42.1418L39.2088 42.7073L39.5785 45.4872C39.5785 45.4872 39.441 48.1056 39.3723 48.6751C39.3035 49.2446 39.5467 57.2481 39.5467 57.2481L42.061 57.1361C42.061 57.1361 43.0107 45.259 43.0077 45.1287C43.0047 44.9985 44.3152 36.2427 44.3152 36.2427L39.3254 36.384Z" fill="#263238"/>
<path d="M45.6791 36.8706C45.6791 36.8706 45.6293 47.5389 45.3941 48.1559C45.1589 48.7728 38.5508 55.4041 38.5508 55.4041L36.458 53.7521L41.8035 46.4726L42.1324 36.3081L45.6791 36.8706Z" fill="#263238"/>
<path d="M43.926 39.6597C43.9399 39.6597 43.627 42.3558 43.2284 45.6759C42.8297 48.9961 42.4929 51.6882 42.479 51.6862C42.465 51.6841 42.7779 48.9911 43.1766 45.6699C43.5752 42.3487 43.912 39.6576 43.926 39.6597Z" fill="#455A64"/>
<path d="M39.5759 45.4873C39.5772 45.496 39.5772 45.5049 39.5759 45.5136V45.5903C39.571 45.662 39.564 45.761 39.555 45.8862C39.5341 46.1427 39.5112 46.5153 39.4833 46.9747C39.4324 47.8936 39.3896 49.1659 39.4015 50.5705C39.4135 51.9751 39.4524 53.2475 39.4763 54.1684C39.4872 54.6258 39.4952 54.9974 39.5012 55.259C39.5012 55.3852 39.5012 55.4841 39.5012 55.5558C39.5012 55.5871 39.5012 55.6124 39.5012 55.6326C39.5026 55.6416 39.5026 55.6508 39.5012 55.6598C39.4999 55.6511 39.4999 55.6423 39.5012 55.6336C39.5012 55.6124 39.5012 55.5871 39.4962 55.5558C39.4962 55.4841 39.4892 55.3852 39.4833 55.26C39.4733 54.9984 39.4593 54.6268 39.4414 54.1694C39.4085 53.2495 39.3597 51.9772 39.3507 50.5705C39.3417 49.1639 39.3886 47.8916 39.4504 46.9727C39.4833 46.5122 39.5122 46.1406 39.5391 45.8842C39.552 45.7599 39.562 45.661 39.57 45.5893C39.57 45.558 39.5769 45.5327 39.5789 45.5125C39.5764 45.5044 39.5754 45.4958 39.5759 45.4873Z" fill="#455A64"/>
<path d="M42.1167 39.4346C42.1237 39.4478 41.6653 39.6921 41.0952 39.9799C40.5252 40.2677 40.0558 40.4919 40.0499 40.4787C40.0439 40.4656 40.5003 40.2212 41.0713 39.9335C41.6424 39.6457 42.1107 39.4215 42.1167 39.4346Z" fill="#455A64"/>
<path d="M47.1797 31.1816L48.4413 32.3358C48.4413 32.3358 46.4662 34.522 45.8553 35.0057C45.2444 35.4894 46.0965 31.73 46.0965 31.73L47.1797 31.1816Z" fill="#01AE9A"/>
<path d="M42.8934 24.3423L42.3682 25.0794L40.3252 25.8448L39.3985 32.884L38.8135 39.1699C38.8135 39.1699 39.6316 37.9875 40.2575 37.9713C40.8833 37.9551 44.0513 38.8518 44.2656 39.0154L44.6832 37.5926L45.028 39.2406C45.028 39.2406 45.6259 39.3759 45.9328 38.4752L45.8013 35.3509C45.8013 35.3509 46.2198 29.7194 46.1999 28.8701C46.18 28.0209 45.61 25.6631 45.61 25.6631L45.3987 26.3588L43.5591 24.7684L42.8934 24.3423Z" fill="#01AE9A"/>
<path d="M40.9155 25.6309C40.9155 25.6309 39.5732 25.6309 39.1397 28.1452C38.7062 30.6596 38.0813 33.3678 38.4032 34.3786C38.7251 35.3894 39.9847 38.3016 39.9847 38.3016L41.7148 37.6695L41.0052 33.0972L41.8264 28.6218C41.8264 28.6218 41.927 25.8146 40.9155 25.6309Z" fill="#01AE9A"/>
<path d="M42.4602 38.6804C42.4602 38.6804 41.636 37.6979 41.5732 37.7221L40.204 38.227C40.1741 38.5836 40.1771 38.9423 40.2129 39.2984C40.2668 39.8114 40.3535 40.3597 40.3535 40.3597L42.1552 39.3862C42.1952 39.589 42.2539 39.7874 42.3306 39.979C42.4303 40.191 42.7791 39.9669 42.7791 39.9669L42.4602 38.6804Z" fill="#BA7F72"/>
<path d="M41.8266 28.6221C41.8266 28.6221 41.8266 28.6493 41.8146 28.7018C41.8027 28.7543 41.7917 28.8341 41.7748 28.9361L41.6153 29.8318C41.4748 30.6093 41.2725 31.7281 41.0254 33.1004V33.0934C41.2247 34.396 41.4718 35.9561 41.7389 37.6657V37.6869L41.719 37.6939L39.99 38.326L39.967 38.3341L39.9581 38.3119C39.7827 37.8989 39.5963 37.4627 39.408 37.0204C39.0781 36.2287 38.7572 35.4542 38.4802 34.6979C38.4443 34.603 38.4134 34.5071 38.3805 34.4111C38.3656 34.3637 38.3556 34.3101 38.3437 34.2637C38.33 34.2148 38.3206 34.1648 38.3158 34.1143C38.3015 34.0156 38.2932 33.9161 38.2908 33.8164C38.2859 33.7181 38.2859 33.6197 38.2908 33.5215C38.3033 33.1393 38.3366 32.758 38.3905 32.3794C38.4902 31.6393 38.6147 30.9435 38.7323 30.2922C38.8499 29.6409 38.9645 29.034 39.0662 28.4807C39.113 28.203 39.1658 27.9394 39.2216 27.692L39.3213 27.3356C39.3601 27.2225 39.403 27.1145 39.4409 27.0094C39.5785 26.6496 39.7897 26.3234 40.0607 26.0522C40.2339 25.8825 40.4427 25.7547 40.6716 25.6785C40.7311 25.6598 40.7921 25.6467 40.854 25.6392H40.9008H40.9168L40.854 25.6472C40.7931 25.657 40.7331 25.6719 40.6746 25.6917C40.4502 25.7718 40.246 25.9011 40.0767 26.0703C39.8103 26.3412 39.6035 26.666 39.4698 27.0236C39.4319 27.1245 39.39 27.2356 39.3532 27.3477C39.3163 27.4598 39.2874 27.581 39.2535 27.7032C39.2007 27.9495 39.1479 28.208 39.102 28.4898C39.0024 29.0441 38.8928 29.651 38.7752 30.3023C38.6576 30.9536 38.532 31.6504 38.4383 32.3885C38.3865 32.7655 38.3552 33.1451 38.3447 33.5255C38.3447 33.6265 38.3447 33.7194 38.3447 33.8174C38.3475 33.9154 38.3558 34.0132 38.3696 34.1102C38.3745 34.159 38.3835 34.2073 38.3965 34.2546C38.4084 34.3031 38.4174 34.3556 38.4324 34.398C38.4642 34.4929 38.4951 34.5888 38.532 34.6838C38.809 35.4421 39.1299 36.2166 39.4598 37.0063L40.0089 38.2937L39.977 38.2796L41.706 37.6495L41.6901 37.6768C41.426 35.9662 41.1858 34.4061 40.9855 33.1035V33.0964L41.5934 29.8308C41.6672 29.445 41.724 29.1431 41.7628 28.9371C41.7828 28.8361 41.7977 28.7584 41.8087 28.7038C41.8196 28.6493 41.8266 28.6221 41.8266 28.6221Z" fill="#263238"/>
<path d="M45.3906 26.3589C45.38 26.391 45.3667 26.4221 45.3508 26.4518L45.2282 26.7063L44.7738 27.5898L44.7558 27.6242L44.7299 27.5898C44.5695 27.3667 44.3851 27.1253 44.1818 26.883C43.8418 26.4696 43.4791 26.0758 43.0956 25.7036C42.9481 25.5612 42.8265 25.4481 42.7428 25.3693C42.6971 25.331 42.6542 25.2895 42.6143 25.2451C42.6643 25.2774 42.7117 25.3139 42.7558 25.3542C42.8435 25.4279 42.97 25.5369 43.1205 25.6773C43.5136 26.0422 43.8815 26.4339 44.2217 26.8497C44.426 27.0971 44.6094 27.3404 44.7688 27.5656H44.7279L45.1963 26.6901L45.3338 26.4417C45.3494 26.4119 45.3684 26.384 45.3906 26.3589Z" fill="#263238"/>
<path d="M45.8419 26.7336C45.8588 26.7275 45.9415 27.0476 45.8837 27.4738L45.8727 27.5485L45.8369 27.4798C45.8169 27.4435 45.798 27.4041 45.7801 27.3647C45.6804 27.1425 45.6296 26.9325 45.5758 26.7861C45.522 26.6397 45.4821 26.5528 45.4891 26.5498C45.5412 26.6169 45.582 26.6923 45.6097 26.773C45.6734 26.9174 45.7322 27.1274 45.8269 27.3425C45.8448 27.3819 45.8628 27.4192 45.8817 27.4546L45.8339 27.4616C45.8611 27.2908 45.8694 27.1174 45.8588 26.9446C45.8538 26.8123 45.8369 26.7366 45.8419 26.7336Z" fill="#263238"/>
<path d="M45.4779 26.7217C45.4794 26.731 45.4794 26.7406 45.4779 26.75C45.4779 26.7722 45.4779 26.7984 45.4779 26.8328C45.4779 26.9055 45.4779 27.0125 45.4779 27.1508C45.4779 27.4265 45.463 27.8254 45.4361 28.3181C45.3842 29.3047 45.2657 30.6618 45.1441 32.1624C45.0225 33.6629 44.9029 35.017 44.8202 35.9995C44.7764 36.4873 44.7405 36.8841 44.7156 37.1628C44.7026 37.2971 44.6926 37.4021 44.6847 37.4789C44.6807 37.5125 44.6777 37.5398 44.6757 37.5607C44.6748 37.5702 44.6731 37.5797 44.6707 37.5889C44.6697 37.5795 44.6697 37.5701 44.6707 37.5607C44.6707 37.5385 44.6707 37.5112 44.6757 37.4779C44.6757 37.4011 44.6877 37.2951 44.6966 37.1608L44.7843 35.9955C44.864 35.009 44.9727 33.6528 45.0933 32.1533C45.2138 30.6538 45.3394 29.2966 45.4002 28.3161C45.4321 27.8244 45.449 27.4255 45.459 27.1498C45.464 27.0155 45.468 26.9095 45.47 26.8328C45.47 26.7984 45.47 26.7712 45.47 26.75C45.4713 26.7402 45.474 26.7307 45.4779 26.7217Z" fill="#263238"/>
<path d="M46.202 29.6792C46.2159 29.6792 46.1392 30.9576 46.0296 32.5328C45.92 34.1081 45.8193 35.3835 45.8053 35.3824C45.7914 35.3814 45.8681 34.1041 45.9778 32.5288C46.0874 30.9535 46.188 29.6782 46.202 29.6792Z" fill="#263238"/>
<path d="M42.1611 27.4888C42.1522 27.4888 42.1522 27.3625 42.1033 27.1697C42.0403 26.9172 41.9162 26.6847 41.7422 26.493C41.5682 26.3014 41.3498 26.1567 41.1068 26.072C40.9204 26.0054 40.7969 25.9953 40.7979 25.9852C40.8269 25.9802 40.8565 25.9802 40.8856 25.9852C40.9647 25.9941 41.0428 26.0106 41.1187 26.0347C41.3724 26.112 41.601 26.257 41.7803 26.4546C41.9597 26.6521 42.0833 26.8949 42.1382 27.1576C42.1552 27.2362 42.1649 27.3164 42.1671 27.3969C42.1713 27.4276 42.1692 27.4589 42.1611 27.4888Z" fill="#263238"/>
<g opacity="0.3">
<path d="M45.876 34.9612C46.2539 33.9181 46.3232 32.786 46.0753 31.7036C46.0088 32.7982 45.9424 33.8925 45.876 34.9864" fill="black"/>
</g>
<path d="M41.6102 29.7621C41.5755 29.7563 41.5419 29.7451 41.5106 29.7288L41.2415 29.6208C41.0153 29.5299 40.7024 29.4057 40.3536 29.2744C40.0048 29.1432 39.6869 29.0301 39.4567 28.9503L39.1836 28.8544C39.1489 28.845 39.1155 28.8315 39.084 28.814C39.118 28.8164 39.1515 28.8236 39.1836 28.8352C39.2504 28.8523 39.3451 28.8796 39.4617 28.9149C39.6959 28.9866 40.0158 29.0937 40.3655 29.2249C40.7153 29.3562 41.0273 29.4865 41.2495 29.5864C41.3611 29.6369 41.4488 29.6793 41.5126 29.7096C41.547 29.7234 41.5797 29.741 41.6102 29.7621Z" fill="white"/>
<path d="M41.971 26.7961C41.8711 26.776 41.7728 26.7483 41.677 26.7133C41.4976 26.6588 41.2495 26.585 40.9725 26.5113C40.6954 26.4376 40.4423 26.3821 40.2589 26.3427C40.1578 26.3258 40.0579 26.3018 39.96 26.271C40.0605 26.2724 40.1606 26.2839 40.2589 26.3053C40.4443 26.3366 40.7004 26.3881 40.9784 26.4598C41.2565 26.5315 41.5046 26.6133 41.682 26.6769C41.7821 26.7066 41.8789 26.7465 41.971 26.7961Z" fill="white"/>
<path d="M43.1768 25.7944C42.8902 25.8786 42.599 25.946 42.3048 25.9964C42.0139 26.0629 41.7194 26.1121 41.4229 26.1438C41.7095 26.0597 42.0006 25.9922 42.2948 25.9419C42.5857 25.8754 42.8802 25.8262 43.1768 25.7944Z" fill="white"/>
<path d="M43.4226 24.7676C43.3567 24.8986 43.2757 25.0213 43.1814 25.1331C43.1006 25.2546 43.0059 25.3661 42.8994 25.4653C42.9658 25.3349 43.0467 25.2126 43.1406 25.1008C43.2213 24.9788 43.3159 24.867 43.4226 24.7676Z" fill="white"/>
<path d="M44.8383 25.9814C44.7596 26.1418 44.6651 26.2937 44.5563 26.4348C44.4612 26.5861 44.3524 26.728 44.2314 26.8589C44.3105 26.6988 44.4049 26.5469 44.5135 26.4056C44.6086 26.2543 44.7174 26.1123 44.8383 25.9814Z" fill="white"/>
<path d="M45.3511 29.1289C45.3045 29.13 45.2578 29.1269 45.2116 29.1198C45.1219 29.1107 44.9934 29.0956 44.8349 29.0744C44.517 29.033 44.0796 28.9673 43.5972 28.8805C43.1149 28.7936 42.6824 28.7048 42.3695 28.6341C42.213 28.5988 42.0874 28.5685 42.0007 28.5452C41.9549 28.536 41.9099 28.5228 41.8662 28.5059C41.913 28.5072 41.9595 28.514 42.0047 28.5261L42.3774 28.5977C42.6914 28.6593 43.1259 28.7432 43.6062 28.829C44.0865 28.9148 44.524 28.9865 44.8399 29.038L45.2146 29.0996C45.261 29.1046 45.3068 29.1144 45.3511 29.1289Z" fill="white"/>
<path d="M46.2131 28.9892C45.9426 28.9537 45.6774 28.8841 45.4238 28.7822C45.5594 28.7908 45.6934 28.817 45.8224 28.86C45.9575 28.8864 46.0887 28.9298 46.2131 28.9892Z" fill="white"/>
<path d="M45.0884 32.7531C45.0884 32.7673 44.2174 32.6259 43.1491 32.4371C42.0808 32.2482 41.2158 32.0836 41.2188 32.0685C41.2217 32.0533 42.0897 32.1957 43.158 32.3845C44.2263 32.5734 45.0904 32.74 45.0884 32.7531Z" fill="white"/>
<path d="M45.9802 32.6701C45.8345 32.6567 45.6899 32.6324 45.5477 32.5974C45.4025 32.5788 45.2589 32.5491 45.1182 32.5086C45.4132 32.5039 45.7063 32.5588 45.9802 32.6701Z" fill="white"/>
<path d="M47.3362 33.4707C47.1429 33.1827 46.964 32.8852 46.8001 32.5791C46.517 32.0792 46.3018 31.6703 46.3088 31.6602C46.5025 31.9482 46.6814 32.2461 46.8449 32.5528C47.024 32.8501 47.188 33.1564 47.3362 33.4707Z" fill="white"/>
<path d="M41.0145 32.7469C41.0145 32.762 40.4345 32.6752 39.7249 32.554C39.0154 32.4329 38.4414 32.3228 38.4434 32.3087C38.4454 32.2945 39.0234 32.3803 39.7389 32.5015C40.4544 32.6227 41.0175 32.7328 41.0145 32.7469Z" fill="white"/>
<path d="M44.812 35.8471C44.7662 35.851 44.7202 35.851 44.6745 35.8471C44.5868 35.8471 44.4602 35.84 44.3028 35.8309C43.9889 35.8127 43.5554 35.7734 43.08 35.7047C42.6046 35.636 42.1781 35.5502 41.8722 35.4785C41.7187 35.4422 41.5951 35.4109 41.5104 35.3876C41.4656 35.378 41.4219 35.3638 41.3799 35.3452C41.4256 35.3487 41.4709 35.3561 41.5154 35.3674L41.8792 35.4422C42.1871 35.5037 42.6136 35.5835 43.088 35.6522C43.5623 35.7209 43.9928 35.7663 44.3058 35.7936L44.6765 35.8269C44.7222 35.8285 44.7677 35.8353 44.812 35.8471Z" fill="white"/>
<path d="M45.8055 35.8863C45.4792 35.876 45.1549 35.831 44.8379 35.752C45.0013 35.7484 45.1646 35.762 45.3252 35.7924C45.4882 35.806 45.6493 35.8375 45.8055 35.8863Z" fill="white"/>
<path d="M41.5308 36.3799C41.4411 36.4365 41.3463 36.4845 41.2478 36.5233C41.0704 36.6041 40.8213 36.7081 40.5412 36.81C40.2612 36.912 40.0031 36.9908 39.8157 37.0423C39.7156 37.076 39.6125 37.0996 39.5078 37.113C39.6048 37.0702 39.7047 37.0348 39.8068 37.007C39.9921 36.9464 40.2463 36.8615 40.5263 36.7606C40.8063 36.6596 41.0555 36.5586 41.2358 36.4889C41.3313 36.4451 41.4299 36.4087 41.5308 36.3799Z" fill="white"/>
<g opacity="0.3">
<path d="M41.7552 29.0117C41.3118 31.3433 40.952 33.5557 41.0028 33.2528L41.7154 37.6726L42.1359 38.3047C41.7692 35.335 41.4672 31.9663 41.7552 29.0117Z" fill="black"/>
</g>
<path d="M31.8734 29.9214C30.4493 30.0789 28.6844 30.0365 27.2564 29.8759C26.6455 28.2057 27.087 26.4073 27.2085 24.6301L30.3048 24.5342L31.8734 29.9214Z" fill="#263238"/>
<path d="M30.9844 24.3312C30.9858 24.2234 30.9472 24.1189 30.8761 24.0387C30.805 23.9584 30.7067 23.9082 30.6007 23.898L28.6076 22.9428C27.8851 22.8711 27.1466 24.1727 27.1068 24.9068C27.0775 25.7116 27.1272 26.5173 27.2553 27.3121C27.4546 28.5329 28.2678 28.5673 28.2678 28.5673L28.1681 32.7265L30.8199 30.5676L30.9844 24.3312Z" fill="#FFBE9D"/>
<path d="M27.6338 25.9924C27.6338 26.0332 27.6495 26.0724 27.6776 26.1016C27.7057 26.1309 27.744 26.1478 27.7843 26.1489C27.804 26.1504 27.8238 26.1479 27.8425 26.1415C27.8612 26.1351 27.8785 26.125 27.8932 26.1117C27.908 26.0984 27.92 26.0822 27.9285 26.0642C27.937 26.0461 27.9418 26.0265 27.9427 26.0065C27.9427 25.9656 27.927 25.9263 27.899 25.8969C27.8709 25.8675 27.8326 25.8503 27.7922 25.849C27.7725 25.8476 27.7527 25.8503 27.734 25.8568C27.7152 25.8633 27.698 25.8735 27.6832 25.8869C27.6685 25.9002 27.6565 25.9164 27.648 25.9346C27.6395 25.9527 27.6347 25.9723 27.6338 25.9924Z" fill="#263238"/>
<path d="M27.3288 25.4695C27.3458 25.4847 27.4674 25.4695 27.6278 25.5059C27.7883 25.5422 27.9009 25.6159 27.9208 25.6069C27.9407 25.5978 27.9138 25.5806 27.866 25.5483C27.7941 25.5033 27.7153 25.4709 27.6328 25.4524C27.5539 25.4329 27.4723 25.4278 27.3916 25.4372C27.3408 25.4443 27.3209 25.4594 27.3288 25.4695Z" fill="#263238"/>
<path d="M29.127 25.8785C29.127 25.8992 29.131 25.9196 29.1388 25.9387C29.1466 25.9577 29.1581 25.975 29.1725 25.9896C29.187 26.0041 29.2041 26.0156 29.223 26.0234C29.2419 26.0312 29.262 26.0352 29.2824 26.0351C29.3021 26.0366 29.3219 26.034 29.3406 26.0277C29.3593 26.0213 29.3766 26.0111 29.3914 25.9978C29.4062 25.9846 29.4182 25.9684 29.4267 25.9504C29.4352 25.9323 29.44 25.9127 29.4409 25.8927C29.4409 25.8518 29.4252 25.8124 29.3971 25.783C29.369 25.7536 29.3307 25.7365 29.2904 25.7352C29.2702 25.7331 29.2499 25.7352 29.2306 25.7414C29.2113 25.7475 29.1934 25.7577 29.1781 25.7711C29.1628 25.7845 29.1504 25.801 29.1416 25.8195C29.1328 25.8379 29.1278 25.858 29.127 25.8785Z" fill="#263238"/>
<path d="M28.9704 25.5795C28.9943 25.5855 29.0999 25.5017 29.2693 25.4522C29.4388 25.4028 29.5882 25.4149 29.6032 25.3977C29.6181 25.3805 29.5833 25.3755 29.5195 25.3694C29.4282 25.3624 29.3364 25.372 29.2484 25.3977C29.1625 25.4208 29.0817 25.4602 29.0102 25.5138C28.9694 25.5512 28.9584 25.5774 28.9704 25.5795Z" fill="#263238"/>
<path d="M28.37 26.6982C28.2824 26.6705 28.1916 26.6545 28.0999 26.6508C28.0571 26.6508 28.0162 26.6386 28.0092 26.6094C28.0054 26.5649 28.0148 26.5202 28.0362 26.4811C28.076 26.3801 28.1169 26.267 28.1597 26.1519C28.3301 25.6834 28.4587 25.2987 28.4348 25.2916C28.4109 25.2845 28.2624 25.6592 28.092 26.1277C28.0511 26.2428 28.0112 26.3529 27.9744 26.4589C27.948 26.5112 27.9406 26.5713 27.9534 26.6286C27.9599 26.6436 27.9696 26.6569 27.9818 26.6676C27.9941 26.6783 28.0086 26.686 28.0242 26.6901C28.0476 26.6966 28.0717 26.7 28.0959 26.7002C28.187 26.7113 28.2791 26.7106 28.37 26.6982Z" fill="#263238"/>
<path d="M28.2705 28.5676C28.8375 28.5793 29.396 28.4273 29.8809 28.1294C29.8809 28.1294 29.4963 29.0382 28.2865 28.9372L28.2705 28.5676Z" fill="#EB996E"/>
<path d="M28.4008 27.1084C28.4343 27.0505 28.4801 27.0008 28.535 26.9631C28.5898 26.9253 28.6522 26.9005 28.7177 26.8903C28.7556 26.8861 28.7939 26.8935 28.8276 26.9115C28.8614 26.9295 28.889 26.9573 28.9071 26.9913C28.9258 27.0365 28.9335 27.0857 28.9293 27.1346C28.9251 27.1835 28.9093 27.2307 28.8832 27.272C28.8581 27.3157 28.8209 27.351 28.7763 27.3736C28.7317 27.3962 28.6816 27.4051 28.632 27.3992C28.5501 27.3759 28.4769 27.3285 28.4218 27.2629C28.4027 27.2471 28.388 27.2266 28.3789 27.2033C28.3742 27.1885 28.3728 27.1728 28.3751 27.1574C28.3773 27.142 28.3831 27.1273 28.3919 27.1145" fill="#EB996E"/>
<path d="M28.8612 26.8101C28.8343 26.8101 28.8353 26.9918 28.6818 27.1241C28.5284 27.2564 28.336 27.2362 28.334 27.2625C28.3321 27.2887 28.3779 27.2968 28.4586 27.2988C28.5639 27.3004 28.6665 27.2647 28.7486 27.1978C28.8269 27.132 28.877 27.0378 28.8881 26.9353C28.8941 26.8545 28.8742 26.8091 28.8612 26.8101Z" fill="#263238"/>
<path d="M28.8269 24.8434C28.8479 24.8869 29.0113 24.8434 29.2076 24.8495C29.4039 24.8556 29.5674 24.8879 29.5893 24.8445C29.5983 24.8232 29.5664 24.7839 29.4986 24.7435C29.4082 24.6986 29.3088 24.6753 29.2081 24.6753C29.1074 24.6753 29.0081 24.6986 28.9176 24.7435C28.8499 24.7829 28.817 24.8222 28.8269 24.8434Z" fill="#263238"/>
<path d="M27.273 25.0948C27.3098 25.1322 27.4523 25.0948 27.6238 25.0867C27.7952 25.0786 27.9407 25.1089 27.9735 25.0685C27.9875 25.0483 27.9646 25.011 27.9008 24.9746C27.8121 24.9303 27.7135 24.9101 27.6148 24.9161C27.5167 24.9175 27.4207 24.9454 27.3367 24.9968C27.276 25.0362 27.257 25.0766 27.273 25.0948Z" fill="#263238"/>
<path d="M32.1802 27.3665C32.0805 26.8233 31.7816 25.0814 31.3132 24.1696C30.8448 23.2577 30.3027 22.8922 29.7725 22.7559C29.2424 22.6196 28.6584 22.7377 28.4222 22.9578C28.186 23.178 28.2139 23.8565 28.2139 23.8565C28.2139 23.8565 29.5782 24.1595 30.0157 24.8936C30.5139 25.7347 30.6425 26.1598 30.6425 26.1598L30.8069 26.6213C30.8069 26.6213 30.9066 29.0367 30.8548 29.481L32.3785 29.8607C32.2549 29.3275 32.2778 27.9108 32.1802 27.3665Z" fill="#263238"/>
<path d="M28.2625 23.8922C28.2625 23.8922 27.5321 23.8195 27.266 24.6576C27.1484 25.0363 27.1205 26.142 27.1205 26.142C27.1205 26.142 26.9511 25.2635 26.9849 24.7687C27.0188 24.2739 27.256 23.6458 27.6267 23.2965C27.9974 22.9471 28.2914 22.7916 28.9422 22.8279C28.756 22.9001 28.5944 23.0253 28.4768 23.1884C28.4001 23.3136 28.3642 23.4207 28.2625 23.8922Z" fill="#263238"/>
<path d="M30.6324 26.2205C30.6341 26.1578 30.6514 26.0965 30.6827 26.0424C30.7141 25.9883 30.7584 25.9431 30.8117 25.9111C30.8649 25.879 30.9253 25.8611 30.9871 25.8591C31.049 25.857 31.1104 25.8709 31.1656 25.8994C31.2931 25.9721 31.3918 26.1206 31.3828 26.4043C31.3599 27.1707 30.6055 26.989 30.6045 26.9668C30.6035 26.9445 30.6205 26.5376 30.6324 26.2205Z" fill="#FFBE9D"/>
<path d="M30.8456 26.6883C30.8456 26.6883 30.8585 26.6974 30.8805 26.7085C30.8962 26.7152 30.9132 26.7186 30.9303 26.7186C30.9474 26.7186 30.9643 26.7152 30.9801 26.7085C31.0297 26.6786 31.0706 26.636 31.0986 26.5849C31.1266 26.5338 31.1408 26.4761 31.1396 26.4176C31.1437 26.3518 31.1332 26.2859 31.1087 26.2248C31.1019 26.2002 31.0892 26.1777 31.0718 26.1592C31.0545 26.1408 31.0329 26.1269 31.009 26.1188C30.994 26.1144 30.978 26.1155 30.9636 26.1217C30.9493 26.128 30.9375 26.139 30.9303 26.1531C30.9193 26.1743 30.9243 26.1904 30.9203 26.1915C30.9163 26.1925 30.9044 26.1783 30.9114 26.146C30.9159 26.1273 30.9269 26.1109 30.9423 26.0996C30.9637 26.0842 30.9901 26.0781 31.016 26.0824C31.047 26.0895 31.0756 26.1046 31.0991 26.1262C31.1227 26.1478 31.1404 26.1751 31.1505 26.2056C31.1803 26.2731 31.1936 26.3469 31.1894 26.4207C31.1794 26.5742 31.0977 26.7165 30.9901 26.7448C30.9697 26.7504 30.9484 26.7511 30.9277 26.7471C30.9069 26.7431 30.8874 26.7344 30.8705 26.7216C30.8466 26.7064 30.8426 26.6893 30.8456 26.6883Z" fill="#EB996E"/>
<path d="M29.0478 26.858C29.0338 26.858 29.0019 26.7943 28.9222 26.757C28.8425 26.7196 28.7747 26.7418 28.7687 26.7287C28.7627 26.7156 28.7807 26.7075 28.8136 26.6974C28.857 26.686 28.9029 26.6897 28.944 26.7081C28.985 26.7264 29.0188 26.7582 29.0398 26.7984C29.0547 26.8337 29.0537 26.8559 29.0478 26.858Z" fill="#EB996E"/>
<path d="M29.128 26.858C29.1141 26.858 29.0872 26.8135 29.0443 26.764C29.0015 26.7146 28.9586 26.6792 28.9656 26.6631C28.9726 26.6469 29.0334 26.6631 29.0842 26.7267C29.135 26.7903 29.141 26.8549 29.128 26.858Z" fill="#EB996E"/>
<path d="M27.4788 26.0005C27.4738 26.0137 27.4449 26.0147 27.415 26.0005C27.3851 25.9864 27.3652 25.9672 27.3712 25.9541C27.3772 25.9409 27.4051 25.9399 27.435 25.9541C27.4649 25.9682 27.4888 25.9864 27.4788 26.0005Z" fill="#EB996E"/>
<path d="M30.3966 56.1182L30.6019 58.5053L30.2272 60.44C30.2208 60.473 30.2212 60.507 30.2283 60.5399C30.2354 60.5728 30.2491 60.6038 30.2685 60.6311C30.2879 60.6583 30.3127 60.6813 30.3413 60.6984C30.3698 60.7156 30.4016 60.7266 30.4345 60.7308C30.4729 60.7359 30.5119 60.7316 30.5483 60.7183C30.5848 60.7049 30.6175 60.6829 30.6438 60.6541C30.9816 60.2805 32.2173 58.9011 32.1924 58.7274C32.1645 58.5255 32.1416 56.1949 32.1416 56.1949L30.3966 56.1182Z" fill="#01AE9A"/>
<path d="M30.4346 60.7309L32.1825 58.5659L32.1895 58.6669C32.1946 58.7544 32.1692 58.8408 32.1177 58.9113C31.9792 59.0991 31.5856 59.61 30.6508 60.6531C30.6239 60.6831 30.59 60.7058 30.5523 60.7192C30.5145 60.7326 30.4741 60.7363 30.4346 60.7299V60.7309Z" fill="#263238"/>
<g opacity="0.6">
<path d="M31.6507 57.827C31.6233 57.8506 31.6053 57.8835 31.6001 57.9196C31.595 57.9556 31.6031 57.9924 31.6228 58.0229C31.6451 58.0517 31.6774 58.0708 31.7132 58.0763C31.749 58.0817 31.7854 58.0731 31.8151 58.0521C31.8444 58.0271 31.8634 57.992 31.8686 57.9536C31.8737 57.9151 31.8646 57.8761 31.843 57.8441C31.8169 57.8175 31.7819 57.8019 31.7449 57.8004C31.708 57.7989 31.6718 57.8116 31.6437 57.8361" fill="white"/>
</g>
<path d="M30.9083 59.6511C30.8468 59.5804 30.7728 59.5218 30.6901 59.4785C30.6015 59.4491 30.5081 59.4374 30.415 59.4441C30.415 59.4381 30.4409 59.4179 30.4958 59.4057C30.568 59.3929 30.6424 59.4013 30.71 59.43C30.7778 59.4579 30.836 59.5053 30.8774 59.5663C30.9083 59.6138 30.9143 59.6491 30.9083 59.6511Z" fill="#263238"/>
<path d="M30.7609 59.9827C30.6909 59.9491 30.619 59.9194 30.5457 59.8939C30.4687 59.8839 30.3911 59.8789 30.3135 59.8787C30.348 59.8531 30.3882 59.8363 30.4306 59.83C30.473 59.8237 30.5162 59.8279 30.5566 59.8424C30.6981 59.8747 30.7779 59.9757 30.7609 59.9827Z" fill="#263238"/>
<path d="M31.1943 59.2212C31.0909 59.1593 30.9829 59.1056 30.8714 59.0606C30.7545 59.0314 30.6355 59.0112 30.5156 59C30.6365 58.959 30.7678 58.9626 30.8863 59.0101C31.0107 59.0407 31.1199 59.1156 31.1943 59.2212Z" fill="#263238"/>
<path d="M31.1911 58.4891C31.1911 58.5032 31.0526 58.4568 30.8822 58.4618C30.7117 58.4669 30.5832 58.5164 30.5742 58.5022C30.6627 58.436 30.7713 58.4031 30.8812 58.4093C30.9905 58.3976 31.1005 58.4259 31.1911 58.4891Z" fill="#263238"/>
<path d="M31.1494 57.7882C31.0443 57.7606 30.936 57.748 30.8275 57.7509C30.7209 57.7708 30.6174 57.8047 30.5195 57.8518C30.5195 57.8468 30.5395 57.8155 30.5923 57.7802C30.6618 57.7353 30.7408 57.7076 30.8229 57.6994C30.9049 57.6911 30.9877 57.7025 31.0646 57.7327C31.1224 57.7559 31.1523 57.7822 31.1494 57.7882Z" fill="#263238"/>
<path d="M30.8238 57.6167C30.8144 57.5878 30.8113 57.5571 30.8148 57.5268C30.8178 57.4435 30.8367 57.3615 30.8706 57.2855C30.8909 57.2277 30.9294 57.1784 30.9802 57.1451C30.998 57.1361 31.018 57.1326 31.0377 57.1351C31.0574 57.1376 31.0759 57.146 31.0909 57.1593C31.1179 57.188 31.1338 57.2257 31.1357 57.2653C31.1352 57.346 31.107 57.424 31.0559 57.4859C31.0048 57.5479 30.934 57.5898 30.8557 57.6046C30.7787 57.6166 30.6999 57.6055 30.629 57.5727C30.5582 57.5399 30.4984 57.4867 30.457 57.4198C30.447 57.4026 30.4406 57.3835 30.4384 57.3637C30.4362 57.3438 30.4381 57.3237 30.4441 57.3047C30.4519 57.2852 30.466 57.2689 30.4841 57.2584C30.5022 57.248 30.5232 57.244 30.5437 57.2471C30.6027 57.2567 30.6583 57.2814 30.7052 57.3188C30.7724 57.3667 30.8308 57.4261 30.8776 57.4945C30.8967 57.518 30.9109 57.5451 30.9194 57.5743C30.852 57.4886 30.7728 57.4132 30.6843 57.3501C30.6425 57.3191 30.594 57.2986 30.5428 57.2906C30.5318 57.2893 30.5207 57.2916 30.5112 57.2972C30.5016 57.3029 30.4942 57.3115 30.4899 57.3219C30.4868 57.3348 30.4865 57.3482 30.4889 57.3612C30.4913 57.3743 30.4964 57.3867 30.5039 57.3976C30.5416 57.4548 30.5946 57.4998 30.6568 57.5274C30.719 57.555 30.7876 57.5639 30.8547 57.5531C30.9206 57.54 30.9803 57.5048 31.024 57.4531C31.0678 57.4014 31.0931 57.3364 31.0958 57.2683C31.0956 57.2409 31.0857 57.2144 31.0679 57.1936C31.0601 57.1857 31.0499 57.1806 31.039 57.179C31.0281 57.1773 31.0169 57.1793 31.0071 57.1845C30.9627 57.212 30.9278 57.253 30.9075 57.3017C30.8619 57.401 30.8336 57.5076 30.8238 57.6167Z" fill="#263238"/>
<path d="M28.3696 56.0112L28.4044 57.9914C28.4044 57.9914 26.4303 58.6922 26.4014 59.0588L30.1883 59.1284L30.259 56.0415L28.3696 56.0112Z" fill="#01AE9A"/>
<path d="M29.5825 57.8472C29.6181 57.8597 29.6479 57.885 29.6663 57.9183C29.6847 57.9517 29.6903 57.9907 29.6821 58.028C29.6718 58.065 29.6479 58.0967 29.6153 58.1164C29.5827 58.1361 29.5438 58.1424 29.5068 58.134C29.4682 58.1212 29.4357 58.0944 29.4155 58.0588C29.3953 58.0232 29.3887 57.9813 29.3971 57.9411C29.412 57.9026 29.4414 57.8717 29.4787 57.8551C29.516 57.8384 29.5584 57.8374 29.5964 57.8523" fill="#E0E0E0"/>
<path d="M30.1924 59.1284V58.8174L26.5589 58.8659C26.5589 58.8659 26.3895 58.9375 26.4065 59.0587L30.1924 59.1284Z" fill="#263238"/>
<path d="M28.3439 57.9708C28.3439 57.989 28.4365 57.9991 28.5262 58.0617C28.6159 58.1243 28.6628 58.2031 28.6807 58.196C28.6986 58.189 28.6717 58.0799 28.5611 58.0072C28.4505 57.9345 28.3399 57.9527 28.3439 57.9708Z" fill="#263238"/>
<path d="M27.9426 58.1299C27.9376 58.1481 28.0173 58.1814 28.0781 58.2622C28.1389 58.343 28.1569 58.4268 28.1778 58.4268C28.1987 58.4268 28.2107 58.3197 28.132 58.2248C28.0532 58.1299 27.9426 58.1127 27.9426 58.1299Z" fill="#263238"/>
<path d="M27.7077 58.6082C27.7247 58.6082 27.7526 58.5193 27.7077 58.4153C27.6629 58.3113 27.5762 58.2689 27.5682 58.2851C27.5602 58.3012 27.6121 58.3558 27.6489 58.4416C27.6858 58.5274 27.6878 58.6062 27.7077 58.6082Z" fill="#263238"/>
<path d="M28.3855 57.5187C28.3935 57.5359 28.4782 57.5117 28.5848 57.5187C28.6914 57.5258 28.7702 57.5632 28.7841 57.547C28.7981 57.5308 28.7173 57.4622 28.5938 57.4531C28.4702 57.444 28.3755 57.5036 28.3855 57.5187Z" fill="#263238"/>
<path d="M33.9079 39.8081C33.9079 39.8081 33.9776 41.5651 33.9437 42.3931C33.9098 43.2212 32.3592 49.3485 32.3592 49.3485L32.4389 57.451L30.0293 57.3783C30.0293 57.3783 29.3785 49.0981 29.4124 48.9971C29.4463 48.8961 29.4124 46.8574 29.4124 46.8574L30.0103 42.2679V39.9141L33.9079 39.8081Z" fill="#455A64"/>
<path d="M25.7291 39.5254C25.7291 39.5254 25.6354 41.3299 25.7011 42.3649C25.7669 43.3999 27.196 49.0597 27.196 49.0597L28.1477 57.3783H30.2713L30.0122 42.4023V39.9142L25.7291 39.5254Z" fill="#455A64"/>
<g opacity="0.3">
<path d="M25.7949 40.5151C26.7337 41.0948 27.8877 41.2058 28.9839 41.1584C30.0801 41.1109 31.1763 40.9211 32.2725 40.9564C32.8296 40.9756 33.4684 41.0281 33.867 40.6343C31.1424 40.5303 28.5125 40.5071 25.7949 40.5151Z" fill="black"/>
</g>
<path d="M30.0321 41.9023C30.0299 41.9156 30.0269 41.9288 30.0232 41.9417C30.0162 41.97 30.0062 42.0074 29.9943 42.0558C29.9683 42.1568 29.9265 42.3022 29.8836 42.4931C29.7551 43.0318 29.6553 43.5772 29.5847 44.1269C29.3628 45.9424 29.3317 47.7767 29.492 49.5989C29.6415 51.7366 29.8368 53.6663 29.9743 55.0638C30.0421 55.7606 30.0979 56.3261 30.1358 56.7189C30.1537 56.9127 30.1677 57.0632 30.1776 57.1692C30.1776 57.2187 30.1846 57.2581 30.1866 57.2864C30.1877 57.2998 30.1877 57.3133 30.1866 57.3267C30.1832 57.3138 30.1809 57.3007 30.1796 57.2874C30.1796 57.2581 30.1716 57.2197 30.1647 57.1702L30.1138 56.7209C30.072 56.3281 30.0142 55.7636 29.9355 55.0679C29.789 53.6713 29.5877 51.7416 29.4372 49.6019C29.2588 47.4642 29.3475 45.5133 29.5448 44.1218C29.6176 43.5716 29.7217 43.0261 29.8567 42.488C29.9026 42.2972 29.9474 42.1518 29.9773 42.0528C29.9913 42.0053 30.0032 41.968 30.0112 41.9397C30.0166 41.9264 30.0237 41.9139 30.0321 41.9023Z" fill="#263238"/>
<path d="M29.7811 42.8843C29.6332 42.8092 29.4985 42.7099 29.3825 42.5904C29.2552 42.4839 29.1455 42.3574 29.0576 42.2158C29.183 42.3217 29.3031 42.434 29.4174 42.5521C29.6137 42.7369 29.7861 42.8722 29.7811 42.8843Z" fill="#263238"/>
<path d="M26.7465 30.0435L27.8875 29.481C28.898 29.7839 29.8109 29.8789 30.3012 29.0488C30.3012 29.0488 31.7511 28.8115 32.1846 29.0488C32.6181 29.2861 32.5833 32.2256 32.5833 32.2256L32.9699 36.0002C32.9699 36.0002 34.115 38.3014 33.9256 40.7037L25.713 40.5068C25.713 40.5068 25.6234 39.2345 26.012 38.1409C26.2466 37.48 26.3595 36.7811 26.3449 36.0789L26.2811 32.9133L26.7465 30.0435Z" fill="#01AE9A"/>
<g opacity="0.3">
<path d="M27.241 36.9604C27.7808 36.5643 28.2522 36.0805 28.6362 35.5285C28.7875 35.2896 28.954 35.061 29.1345 34.8439C29.3161 34.6256 29.5644 34.4749 29.84 34.4157C30.2725 34.3441 30.6851 34.5955 31.0528 34.8358L32.2716 35.6345C32.3695 35.711 32.4851 35.7607 32.6074 35.7789C32.731 35.787 32.9064 35.786 32.9194 35.6618C32.5877 35.4726 32.2694 35.2604 31.9667 35.0267C31.5481 34.6995 31.1046 34.4703 30.6871 34.1431C30.4938 33.9916 30.2885 33.818 30.2436 33.5746C30.2426 33.4875 30.2207 33.4019 30.1798 33.3252C30.1091 33.2363 29.9805 33.2383 29.8659 33.2484C29.6467 33.2686 29.4165 33.2919 29.2311 33.413C28.975 33.5807 28.8604 33.8937 28.7478 34.1815C28.3631 35.161 27.8247 36.0711 27.1533 36.8766" fill="black"/>
</g>
<path d="M26.747 30.0435C26.747 30.0435 25.5461 30.2878 25.3119 32.0792C25.0777 33.8705 24.3991 36.2193 24.7997 36.9605C24.9123 37.1695 25.292 37.5764 25.5122 37.6582C26.152 37.8975 26.8297 37.3613 27.2612 36.8262L28.48 34.9823L28.7361 34.4946L27.4406 33.6443L26.6642 34.4663L26.747 30.0435Z" fill="#01AE9A"/>
<path d="M31.9437 28.9751C32.342 29.0429 32.7213 29.1969 33.0556 29.4265C33.3899 29.6562 33.6714 29.9562 33.881 30.306C34.8945 31.9459 35.4755 34.7642 35.329 35.6114C35.1965 36.4 33.8671 36.8898 33.5183 36.6777C33.1924 36.4757 29.8809 33.6211 29.8809 33.6211L30.9641 32.4225L32.8396 33.4141L32.2417 31.4491L31.9437 28.9751Z" fill="#01AE9A"/>
<path d="M27.148 32.3955C27.166 32.3955 27.1391 32.7863 27.0763 33.2629C27.0464 33.4901 27.0185 33.6971 26.9956 33.8688C26.9884 33.9536 26.9744 34.0377 26.9537 34.1202C26.9358 34.1202 26.9627 33.7284 27.0254 33.2528C27.0553 33.0246 27.0832 32.8186 27.1062 32.6469C27.1132 32.5621 27.1272 32.478 27.148 32.3955Z" fill="#263238"/>
<path d="M32.397 31.9664C32.397 31.9664 32.397 31.9735 32.4069 31.9896L32.4308 32.0623L32.5205 32.3431L32.8534 33.4054L32.8633 33.4387L32.8334 33.4225L30.9549 32.437H30.9789L29.8986 33.6376V33.6033C30.7716 34.3788 31.7592 35.2593 32.8165 36.1691L33.1753 36.4721C33.236 36.5195 33.2948 36.573 33.3556 36.6154C33.3838 36.6385 33.4146 36.6582 33.4473 36.674C33.4814 36.6864 33.5169 36.6942 33.553 36.6972C33.7012 36.7064 33.8498 36.6897 33.9924 36.6478C34.1351 36.6094 34.2741 36.5583 34.408 36.4953C34.671 36.3781 34.9067 36.2061 35.0996 35.9904C35.1909 35.8862 35.2589 35.7632 35.2989 35.6299C35.3297 35.4977 35.3415 35.3616 35.3338 35.226C35.3061 34.7075 35.233 34.1925 35.1155 33.6871C35.0159 33.2095 34.8933 32.7702 34.7697 32.3744C34.5857 31.744 34.3372 31.1348 34.0283 30.5568C33.9405 30.4008 33.8405 30.2522 33.7293 30.1125C33.6935 30.063 33.6596 30.0317 33.6406 30.0115C33.6301 29.9995 33.6201 29.9871 33.6108 29.9741C33.6555 30.017 33.6978 30.0625 33.7373 30.1104C33.8497 30.2476 33.9497 30.3946 34.0363 30.5497C34.3535 31.1259 34.6082 31.7354 34.7957 32.3673C34.9222 32.7641 35.0428 33.2044 35.1484 33.68C35.2688 34.1882 35.3439 34.7062 35.3727 35.228C35.3814 35.3697 35.3693 35.512 35.3368 35.6501C35.2941 35.79 35.2224 35.9191 35.1265 36.0288C34.9286 36.2499 34.6872 36.4267 34.418 36.5478C34.2816 36.6122 34.1398 36.6642 33.9944 36.7033C33.8457 36.7474 33.6906 36.7648 33.536 36.7548C33.4955 36.7511 33.4556 36.742 33.4174 36.7275C33.3817 36.7102 33.3482 36.6885 33.3178 36.6629C33.254 36.6165 33.1962 36.5619 33.1344 36.5175L32.7746 36.2146C31.7163 35.3058 30.7307 34.4222 29.8597 33.6437L29.8418 33.6285L29.8577 33.6103L30.943 32.4138L30.9539 32.4016L30.9679 32.4087L32.8404 33.4064L32.8205 33.4235C32.683 32.9671 32.5753 32.6056 32.5006 32.3562C32.4647 32.234 32.4368 32.1401 32.4179 32.0735L32.397 32.0008V31.9664Z" fill="#263238"/>
<path d="M34.0418 33.3992C34.0319 33.4124 33.8007 33.2427 33.4798 33.0963C33.1589 32.9499 32.8818 32.8944 32.8818 32.8752C32.9449 32.8736 33.0079 32.8825 33.0682 32.9014C33.216 32.9365 33.3602 32.9859 33.4987 33.0489C33.6386 33.1104 33.7721 33.1858 33.8973 33.274C33.9518 33.3077 34.0006 33.35 34.0418 33.3992Z" fill="#263238"/>
<path d="M26.0676 35.0977C26.0743 35.0885 26.0816 35.0797 26.0895 35.0715L26.1583 34.9947L26.4264 34.7039L27.4229 33.6315L27.4319 33.6214L27.4448 33.6285L28.7792 34.4363L28.7972 34.4474L28.7872 34.4666L28.4952 34.9978L27.2405 36.8891C27.0488 37.1303 26.82 37.3386 26.5629 37.5061C26.3516 37.6507 26.1051 37.7335 25.8504 37.7454C25.7874 37.7459 25.7247 37.7398 25.663 37.7272C25.6022 37.711 25.5437 37.6872 25.4886 37.6565C25.3815 37.5965 25.2812 37.5247 25.1896 37.4425C25.0079 37.2881 24.8561 37.1008 24.7422 36.8901C24.7287 36.8635 24.7173 36.8358 24.7083 36.8073C24.7003 36.779 24.6953 36.7497 24.6894 36.7215L24.6704 36.6356C24.6704 36.6074 24.6655 36.5781 24.6625 36.5498C24.6527 36.4373 24.6494 36.3244 24.6525 36.2115C24.6747 35.7921 24.7233 35.3746 24.798 34.9614C24.8608 34.5737 24.9285 34.2132 24.9893 33.885C25.1139 33.2286 25.2136 32.6965 25.2743 32.3279C25.3062 32.1441 25.3282 32.0007 25.3431 31.9038C25.3511 31.8574 25.3571 31.82 25.361 31.7927L25.369 31.7554C25.3701 31.7681 25.3701 31.781 25.369 31.7937C25.369 31.821 25.361 31.8584 25.3561 31.9048C25.3441 32.0058 25.3252 32.1472 25.2963 32.332C25.2415 32.7015 25.1468 33.2347 25.0272 33.8921C24.9684 34.2213 24.9036 34.5807 24.8418 34.9685C24.7725 35.38 24.7279 35.7955 24.7083 36.2125C24.7055 36.3234 24.7092 36.4343 24.7193 36.5448C24.7193 36.573 24.7193 36.6013 24.7272 36.6286L24.7452 36.7104C24.7512 36.7376 24.7561 36.7649 24.7631 36.7922C24.772 36.8184 24.7827 36.8441 24.795 36.8689C24.9069 37.0726 25.0548 37.2537 25.2315 37.4031C25.4089 37.5535 25.6112 37.706 25.8563 37.6929C26.1013 37.6815 26.3383 37.6015 26.541 37.4616C26.793 37.2965 27.0177 37.092 27.2067 36.8558L28.4643 34.9675C28.564 34.7837 28.6636 34.604 28.7633 34.4373L28.7712 34.4676L27.4408 33.6598H27.4628L26.4513 34.7211C26.3327 34.8423 26.241 34.9382 26.1762 35.0048L26.1045 35.0775C26.0766 35.0907 26.0686 35.0988 26.0676 35.0977Z" fill="#263238"/>
<path d="M30.1384 35.5229C30.1384 35.531 30.0178 35.5755 29.8275 35.6663C29.5815 35.7841 29.3478 35.9265 29.1299 36.0915C28.9112 36.2581 28.7093 36.4462 28.527 36.6529C28.3874 36.8124 28.3107 36.9195 28.3027 36.9144C28.3148 36.8855 28.3305 36.8584 28.3496 36.8336C28.3957 36.7636 28.4456 36.6962 28.4991 36.6317C28.8526 36.1969 29.3046 35.855 29.8165 35.635C29.9162 35.5936 29.9959 35.5644 30.0527 35.5472C30.0798 35.5346 30.1087 35.5264 30.1384 35.5229Z" fill="#263238"/>
<path d="M27.559 33.7354L27.4444 32.9972L26.9062 32.3984L26.971 31.4543C26.971 31.4543 27.1703 31.3876 27.1703 31.5734C27.1703 31.7592 27.2341 32.2126 27.2341 32.2126L27.3936 32.359L27.3677 31.4422L27.7752 30.9211C27.8223 30.9662 27.855 31.0245 27.8691 31.0886C27.8831 31.1527 27.8778 31.2196 27.854 31.2806C27.8194 31.3953 27.7658 31.5032 27.6955 31.5997L27.7354 32.1722H27.8759V31.6401L28.4738 30.8555C28.4738 30.8555 28.5396 30.908 28.4738 31.1473C28.4271 31.3084 28.3654 31.4646 28.2895 31.6138L28.5027 32.5852L28.702 32.6781L28.8017 32.5186L29.1007 31.8794C29.1261 31.8722 29.153 31.8722 29.1784 31.8793C29.2039 31.8864 29.227 31.9004 29.2452 31.9198C29.298 31.9864 29.1007 32.5044 29.0877 32.5984C29.0747 32.6923 29.3817 33.2901 29.2541 33.596L28.6562 34.3836L27.559 33.7354Z" fill="#FFBE9D"/>
<path d="M28.0723 30.082V33.2002H29.8222V30.1315L28.0723 30.082Z" fill="#263238"/>
<path d="M29.8231 30.7485C29.8231 30.7485 30.1051 30.7485 30.131 30.9616C30.1569 31.1747 30.1569 31.2645 30.3413 31.4806C30.5257 31.6967 30.722 31.8795 30.7608 32.3319L30.8027 32.5601L30.0124 33.4103C30.0124 33.4103 28.7079 33.3831 28.5465 33.3295C28.4305 33.2858 28.3225 33.223 28.2266 33.1437L28.0433 32.5853C28.0433 32.5853 28.11 32.4591 28.2276 32.6217C28.3245 32.7466 28.4312 32.8634 28.5465 32.9711L28.9362 33.0104L29.1195 32.9175L28.398 32.5985C28.398 32.5985 27.8728 32.3056 27.8728 32.239C27.8728 32.1723 27.8958 32.0188 27.8958 32.0188C27.8696 31.9817 27.8537 31.9382 27.8496 31.8927C27.8456 31.8473 27.8536 31.8016 27.8728 31.7603C27.9376 31.6139 28.2007 31.7603 28.2007 31.7603C28.2007 31.7603 28.9979 32.0633 29.1195 32.0794C29.2157 32.0867 29.3123 32.0867 29.4085 32.0794L28.2406 31.3877C28.2406 31.3877 28.2406 31.2544 28.4768 31.308C28.7129 31.3615 29.4215 31.6402 29.553 31.6664C29.6479 31.6764 29.7433 31.6528 29.8231 31.5998V30.7485Z" fill="#FFBE9D"/>
<path d="M29.8231 30.7485C29.8231 30.7485 29.8231 30.7687 29.8231 30.8071C29.8231 30.8454 29.8231 30.902 29.8231 30.9727C29.8231 31.1191 29.8231 31.3301 29.8301 31.5997V31.6068C29.782 31.6376 29.7291 31.6598 29.6736 31.6725C29.6126 31.686 29.549 31.6818 29.4903 31.6603C29.3707 31.623 29.2441 31.5775 29.1096 31.5301C28.975 31.4826 28.8315 31.4291 28.6811 31.3826C28.6044 31.356 28.5262 31.3341 28.4469 31.317C28.408 31.3095 28.3681 31.3095 28.3293 31.317C28.312 31.3192 28.2959 31.3269 28.2833 31.3391C28.2707 31.3513 28.2624 31.3673 28.2595 31.3847L28.2495 31.3675L29.4205 32.0562L29.4863 32.0945L29.4105 32.0996C29.3088 32.1092 29.2064 32.1092 29.1046 32.0996C29.0034 32.0734 28.9037 32.042 28.8056 32.0057C28.6063 31.936 28.402 31.8613 28.1947 31.7825C28.1515 31.7603 28.1061 31.7427 28.0592 31.73C28.0159 31.7153 27.9686 31.7185 27.9277 31.7391C27.8959 31.7731 27.8787 31.8185 27.8798 31.8653C27.8788 31.9148 27.8935 31.9633 27.9217 32.0037L27.9277 32.0127V32.0228C27.9177 32.0905 27.9087 32.1612 27.9047 32.2299C27.8978 32.2399 27.9346 32.2692 27.9586 32.2884C27.9859 32.3107 28.0145 32.3312 28.0443 32.35C28.1628 32.4298 28.2894 32.5035 28.417 32.5762L28.9571 32.8145L29.1395 32.8953L29.1903 32.9175L29.1405 32.9428L28.9571 33.0357H28.9501H28.9431L28.5525 32.9953H28.5435L28.5376 32.9892C28.4503 32.9069 28.3675 32.8199 28.2894 32.7287C28.2495 32.6843 28.2157 32.6277 28.1798 32.5934C28.1649 32.5764 28.1443 32.5656 28.122 32.5631C28.112 32.5643 28.1024 32.568 28.094 32.5738C28.0857 32.5796 28.0789 32.5874 28.0742 32.5964V32.5762L28.2575 33.1346L28.2495 33.1235C28.3116 33.1743 28.3783 33.219 28.4489 33.2568C28.4832 33.2759 28.5193 33.2918 28.5565 33.3043C28.5939 33.3134 28.6318 33.3198 28.6701 33.3234C28.8275 33.3406 28.984 33.3487 29.1375 33.3558C29.4444 33.3709 29.7354 33.38 30.0194 33.3871L30.0025 33.3941L30.7997 32.5459V32.5621C30.7848 32.4803 30.7718 32.4066 30.7589 32.3339C30.7499 32.1907 30.7162 32.0502 30.6592 31.9188C30.6037 31.804 30.5326 31.6976 30.4479 31.6028C30.3716 31.5211 30.3019 31.4333 30.2397 31.3402C30.1901 31.2586 30.1604 31.1662 30.153 31.0706C30.1544 30.9974 30.1361 30.9251 30.1001 30.8616C30.0659 30.8206 30.0205 30.7908 29.9696 30.7758C29.9276 30.763 29.8846 30.7539 29.841 30.7485C29.8855 30.7463 29.9301 30.7521 29.9726 30.7657C30.0264 30.7798 30.0746 30.8101 30.1111 30.8525C30.1347 30.8814 30.1499 30.9164 30.155 30.9535C30.1619 30.9909 30.1659 31.0292 30.1719 31.0716C30.1812 31.1638 30.2112 31.2526 30.2596 31.3311C30.3225 31.4222 30.3924 31.508 30.4689 31.5876C30.5567 31.6835 30.6306 31.7916 30.6881 31.9087C30.7427 32.0446 30.7731 32.1892 30.7778 32.3359C30.7908 32.4076 30.8047 32.4813 30.8197 32.5641V32.5732L30.8127 32.5802L30.0254 33.4315L30.0194 33.4396H30.0095C29.7284 33.4396 29.4335 33.4264 29.1265 33.4123C28.972 33.4052 28.8156 33.3982 28.6551 33.382C28.6139 33.3776 28.5729 33.3706 28.5326 33.3608C28.4929 33.3467 28.4543 33.3298 28.417 33.3103C28.3431 33.2705 28.273 33.2239 28.2077 33.171H28.2027V33.1639C28.1419 32.9811 28.0801 32.7943 28.0183 32.6055V32.5944L28.0233 32.5843C28.0322 32.5672 28.0454 32.5527 28.0614 32.5423C28.0775 32.5318 28.096 32.5258 28.115 32.5247C28.1507 32.5267 28.1843 32.5426 28.2087 32.5691C28.2545 32.6166 28.2824 32.6641 28.3223 32.7085C28.3991 32.7981 28.4806 32.8834 28.5665 32.964L28.5515 32.9569L28.9422 32.9963H28.9282L29.1116 32.9034V32.9417L28.9292 32.861L28.3861 32.6227C28.2565 32.55 28.131 32.4752 28.0094 32.3944C27.9795 32.3743 27.9496 32.3541 27.9207 32.3308L27.8778 32.2945C27.8707 32.2865 27.864 32.2781 27.8579 32.2692C27.8539 32.2616 27.8509 32.2534 27.8489 32.245C27.848 32.2397 27.848 32.2342 27.8489 32.2288C27.8489 32.1551 27.8629 32.0865 27.8719 32.0168L27.8778 32.037C27.8421 31.9868 27.8236 31.9262 27.825 31.8643C27.8206 31.8334 27.8245 31.8018 27.8363 31.773C27.848 31.7441 27.8673 31.719 27.892 31.7003C27.9167 31.6816 27.9459 31.67 27.9765 31.6667C28.0072 31.6634 28.0382 31.6685 28.0662 31.6815C28.1178 31.695 28.1677 31.7146 28.2147 31.7401C28.421 31.8189 28.6252 31.8946 28.8236 31.9653C28.9232 31.9986 29.0229 32.036 29.1165 32.0572C29.216 32.0665 29.3161 32.0665 29.4155 32.0572L29.4065 32.1006L28.2396 31.4059L28.2286 31.3998V31.3887C28.231 31.3623 28.2422 31.3374 28.2603 31.3182C28.2784 31.2989 28.3023 31.2864 28.3283 31.2827C28.3724 31.2741 28.4177 31.2741 28.4618 31.2827C28.5425 31.3007 28.622 31.3237 28.7 31.3513C28.8515 31.4018 28.999 31.4523 29.1285 31.5018C29.2581 31.5513 29.3886 31.5977 29.5062 31.6361C29.5592 31.6539 29.6155 31.6589 29.6707 31.6507C29.7259 31.6424 29.7785 31.6212 29.8241 31.5886V31.5987C29.8241 31.3261 29.8241 31.113 29.8311 30.9646C29.8311 30.8973 29.8311 30.8427 29.8311 30.801C29.8268 30.7838 29.8242 30.7662 29.8231 30.7485Z" fill="#EB996E"/>
<path d="M29.2727 32.5598C29.1998 32.5577 29.1276 32.5448 29.0584 32.5214C28.8892 32.4768 28.7228 32.4218 28.5602 32.3568C28.3967 32.2929 28.2369 32.2194 28.0818 32.1367C28.015 32.1066 27.9529 32.0668 27.8975 32.0186C27.9665 32.0401 28.0333 32.0685 28.0968 32.1034C28.2184 32.1589 28.3878 32.2326 28.5781 32.3053C28.7684 32.378 28.9418 32.4406 29.0694 32.482C29.1394 32.5014 29.2075 32.5274 29.2727 32.5598Z" fill="#EB996E"/>
<path d="M29.4351 32.8832C29.442 32.8953 29.4032 32.9296 29.3434 32.9266C29.2836 32.9236 29.2437 32.8842 29.2577 32.8731C29.2716 32.862 29.3025 32.8731 29.3464 32.8731C29.3902 32.8731 29.4281 32.8701 29.4351 32.8832Z" fill="#EB996E"/>
<path d="M29.6397 32.5289C29.6526 32.5349 29.6257 32.5965 29.553 32.6167C29.4802 32.6369 29.4264 32.5986 29.4344 32.5864C29.4423 32.5743 29.4872 32.5864 29.534 32.5663C29.5809 32.5461 29.6267 32.5208 29.6397 32.5289Z" fill="#EB996E"/>
<path d="M29.8804 32.0429C29.8923 32.051 29.8684 32.0994 29.8106 32.1146C29.7528 32.1297 29.7109 32.1004 29.7109 32.0883C29.7109 32.0762 29.7538 32.0762 29.7937 32.0641C29.8335 32.052 29.8694 32.0328 29.8804 32.0429Z" fill="#EB996E"/>
<path d="M30.0896 31.5441C30.0896 31.5583 30.0238 31.5795 29.9401 31.6007C29.8564 31.6219 29.7866 31.635 29.7807 31.6219C29.7747 31.6088 29.8404 31.5714 29.9271 31.5492C30.0138 31.527 30.0876 31.528 30.0896 31.5441Z" fill="#EB996E"/>
<path d="M30.9771 26.9395C30.8326 26.5285 30.6991 26.0933 30.5277 25.6924C30.4978 25.6207 30.4101 25.5915 30.3812 25.5188C30.158 24.9593 29.9925 24.3656 29.6457 23.8748C29.2989 23.3841 28.707 23.0074 28.125 23.1326L28.3422 23.9748C28.6412 24.4292 29.288 24.5867 29.5022 25.0856C29.6388 25.4046 29.558 25.7823 29.6756 26.1095C29.7534 26.3276 29.9148 26.5063 30.0085 26.7153C30.14 27.0122 30.1311 27.3515 30.1201 27.6777L30.0802 28.8611C30.0733 29.0712 30.0703 29.2994 30.1948 29.467C30.3882 29.7295 30.8516 29.7447 31.1725 29.7053C31.313 29.6881 31.4714 29.6992 31.5382 29.6861C31.5382 29.6861 31.3987 28.6006 31.3897 28.535C31.2761 27.7403 31.2412 27.6908 30.9771 26.9395Z" fill="#263238"/>
<path d="M31.7401 28.7676C31.7383 28.744 31.7383 28.7204 31.7401 28.6969C31.7401 28.6444 31.7481 28.5767 31.754 28.4949C31.765 28.3172 31.7859 28.0617 31.7939 27.7447C31.8075 27.3729 31.7838 27.0008 31.7232 26.6339C31.6856 26.4192 31.6272 26.2088 31.5488 26.0058C31.4654 25.788 31.3553 25.5817 31.2209 25.3919C31.0868 25.2016 30.9232 25.0346 30.7366 24.8971C30.56 24.7735 30.368 24.6744 30.1655 24.6022C29.7779 24.4609 29.4112 24.371 29.1271 24.2276C28.8973 24.1253 28.693 23.9721 28.5292 23.7793C28.469 23.7093 28.4211 23.6294 28.3877 23.543C28.4348 23.6211 28.4874 23.6957 28.5452 23.7661C28.7119 23.9506 28.9158 24.0966 29.1431 24.1943C29.4251 24.3306 29.7888 24.4164 30.1815 24.5568C30.3891 24.6304 30.5859 24.7323 30.7665 24.8597C30.9587 24.9993 31.127 25.1698 31.2647 25.3646C31.402 25.5582 31.5138 25.769 31.5976 25.9917C31.677 26.1978 31.7355 26.4117 31.772 26.6299C31.8314 26.9985 31.8518 27.3726 31.8328 27.7457C31.8198 28.0638 31.7939 28.3192 31.776 28.4959C31.766 28.5808 31.758 28.6474 31.752 28.6979C31.7508 28.7215 31.7467 28.7449 31.7401 28.7676Z" fill="#E0E0E0"/>
<path d="M31.5939 24.8828C31.4758 24.7613 31.3448 24.6532 31.2033 24.5607C31.0456 24.4667 30.8786 24.3899 30.705 24.3315C30.4916 24.2598 30.2747 24.1991 30.0553 24.1497C29.6541 24.0526 29.27 23.8939 28.9162 23.6792C28.8105 23.6127 28.7105 23.5374 28.6172 23.454C28.5799 23.4248 28.5464 23.3908 28.5176 23.353C28.5558 23.3781 28.5921 23.4061 28.6262 23.4368C28.7241 23.5131 28.827 23.5826 28.9341 23.6449C29.2894 23.8478 29.6707 24.0001 30.0672 24.0972C30.288 24.147 30.5059 24.209 30.72 24.283C30.8947 24.3451 31.0618 24.4271 31.2182 24.5274C31.324 24.5959 31.4208 24.6776 31.5062 24.7708C31.5292 24.7962 31.5508 24.8228 31.571 24.8505C31.5889 24.8717 31.5949 24.8818 31.5939 24.8828Z" fill="#E0E0E0"/>
<path d="M30.9659 29.6325C30.8891 29.584 30.8199 29.524 30.7606 29.4548C30.5924 29.2677 30.4798 29.0364 30.4357 28.7873C30.4216 28.7053 30.4143 28.6222 30.4138 28.5389C30.4166 28.4483 30.4266 28.3582 30.4437 28.2693C30.4776 28.0855 30.5384 27.8967 30.5802 27.6947C30.6351 27.4883 30.6246 27.2697 30.5503 27.0697C30.4636 26.8677 30.2872 26.7011 30.1916 26.4719C30.0959 26.2426 30.0979 25.9993 30.056 25.7812C30.0157 25.5702 29.9318 25.3703 29.8099 25.1945C29.6995 25.0342 29.5729 24.8859 29.4322 24.7522C29.3116 24.6331 29.1809 24.5249 29.0415 24.4291C28.8336 24.296 28.6434 24.1365 28.4755 23.9545C28.4142 23.8861 28.3662 23.8066 28.334 23.7202C28.3797 23.7981 28.432 23.8717 28.4904 23.9403C28.6624 24.116 28.8544 24.2703 29.0625 24.3998C29.2044 24.4955 29.3378 24.6036 29.4611 24.7229C29.6058 24.8571 29.7358 25.0068 29.8487 25.1693C29.9765 25.3501 30.0642 25.5568 30.1059 25.7751C30.1487 25.9993 30.1497 26.2386 30.2394 26.4557C30.3291 26.6728 30.5045 26.8374 30.5962 27.0525C30.675 27.2624 30.6858 27.4923 30.627 27.7088C30.5822 27.9108 30.5204 28.1017 30.4855 28.2814C30.4682 28.3676 30.4579 28.455 30.4546 28.5429C30.4536 28.624 30.4592 28.7051 30.4716 28.7853C30.5107 29.0284 30.614 29.2562 30.7706 29.4447C30.8322 29.5108 30.8974 29.5735 30.9659 29.6325Z" fill="#E0E0E0"/>
</svg>
